<svg width="149.329" height="40" viewBox="0 0 39.51 10.583" xmlns="http://www.w3.org/2000/svg"><path d="M6.054.004h.031c.155 0 .307.004.46.027l.032.005c.641.094 1.272.347 1.759.78l.051.045a3.28 3.28 0 0 1 .501.54c.091.12.174.245.25.374l.013.022.035.06c.024.035.05.057.085.082l.026-.042a3.87 3.87 0 0 1 .539-.741 2.65 2.65 0 0 1 .383-.365l.038-.03a3.593 3.593 0 0 1 2.245-.758h.034c.167 0 .331.004.496.027l.038.005c.864.119 1.696.42 2.47.819l.029.014.208.11.026.014a3.19 3.19 0 0 1 .104.06c.087.07.102.179.126.284l.013.049.05.208.032.129.016.072c.021.083.021.083.077.146.036.02.036.02.072.034.098.046.146.143.183.24.02.06.036.12.053.18l.015.054.031.113.05.18.018.06.009.031.025.092c.05.18.102.36.154.539l.049.17.012.043c.118.414.234.828.35 1.242l.295 1.05.008.03c.069.245.138.49.21.735.002.012.006.023.01.035a674.05 674.05 0 0 0 .141.496l.01.03.143.511a6.154 6.154 0 0 0 .09.305l.008.025c.023.073.043.147.063.222.046.173.097.345.15.517l.043.143.03.093c.05.166.075.32-.003.482a.608.608 0 0 1-.334.29c-.105.031-.216.03-.325.03h-.251a175.448 175.448 0 0 1-.971.002h-.665a4085.751 4085.751 0 0 1-2.127.004h-.357l-.662.001h-.03c-.676.002-1.348.002-2.034.003l-.01.024c-.136.26-.484.435-.747.53l-.024.009c-.134.045-.27.068-.41.083l-.044.005c-.48.048-.988-.065-1.372-.37-.204-.168-.204-.168-.259-.262-.04-.038-.061-.037-.115-.038h-.196a50.165 50.165 0 0 1-.284 0l-.289.001a176.911 176.911 0 0 0-.97.002h-.182l-1.08.002h-.294l-.754.001h-.032l-.738.001h-.031a3011.098 3011.098 0 0 1-2.05.004c-.251 0-.467 0-.66-.185A.526.526 0 0 1 0 9.351c.015-.13.059-.254.099-.378.025-.078.048-.157.07-.237.046-.168.096-.337.145-.504a107.443 107.443 0 0 0 .412-1.434c.194-.674.383-1.348.573-2.021l.503-1.784.04-.144.1-.35.045-.159.02-.066.007-.028a.437.437 0 0 1 .201-.275c.066-.035.066-.035.098-.035L2.32 1.9c.033-.141.07-.282.107-.422l.03-.111.02-.071.009-.034c.025-.093.046-.158.133-.21a4.546 4.546 0 0 1 .302-.161l.03-.015C3.902.39 4.96-.001 6.031 0z" fill="#000002"/><path d="m13.776 5.48.075.001h.044l.093-.001c.072 0 .14 0 .212.013l.097.005c.066.004.129.011.193.026a.8.8 0 0 0 .108.01c.114.008.225.026.339.045l.109.017a5.976 5.976 0 0 1 .427.082c.079.017.158.035.237.055l.15.034c.175.039.35.08.523.127l.048.013.044.013.04.01c.03.011.03.011.055.036.01.112-.043.226-.08.328l-.02.058-.041.117-.084.242-.04.114-.013.038-.009.026a1.568 1.568 0 0 1-.279-.053 13.484 13.484 0 0 0-1.759-.321l-.029-.003a3.68 3.68 0 0 0-.388-.025h-.042c-.297-.003-.588-.003-.88.053l-.045.008c-.187.036-.373.08-.553.141l-.03.01a3.692 3.692 0 0 0-1.155.64l-.068.053c-.027.022-.053.042-.078.068-.016.015-.016.015-.041.015l-.013.038c-.02.02-.02.02-.047.042-.03.026-.06.052-.088.082-.027.026-.027.026-.052.026a.464.464 0 0 1-.057.09.214.214 0 0 0-.043.147.225.225 0 0 0 .125.137.267.267 0 0 0 .174-.037c.042-.036.08-.076.118-.115a3.415 3.415 0 0 1 2.009-1.003c.029-.005.057-.01.085-.017.16-.033.332-.027.495-.027a22.098 22.098 0 0 0 .157 0h.028a.51.51 0 0 1 .104.008.465.465 0 0 0 .091.007c.063-.001.123.005.185.013l.032.004.068.009.103.013.066.008.03.004a10.398 10.398 0 0 0 .21.034 9.62 9.62 0 0 1 .43.075c.123.023.244.048.367.078l.15.034c.117.025.233.054.349.085.147.037.321.077.462-.005.134-.097.169-.277.216-.426l.011-.034.009-.03c.01-.024.01-.024.035-.05.028.03.032.044.042.083a.537.537 0 0 0 .01.036l.01.039.011.04.035.132.024.089c.041.155.082.31.121.465l.01.04c.016.063.029.124.036.187h-.03a14.97 14.97 0 0 0-.375.002c-.132 0-.132 0-.251.054a.156.156 0 0 0-.045.125v.028a.31.31 0 0 0 .015.078c.022.015.022.015.05.025l.029.013a.276.276 0 0 0 .099.016h.038a2428.561 2428.561 0 0 0 .084.001l.135.002a46.628 46.628 0 0 1 .314.005 1.295 1.295 0 0 1 .077.257l.02.082a.445.445 0 0 1 .007.037c.01.036.01.036.023.074a.334.334 0 0 1 .011.123 1.167 1.167 0 0 1-.204.014h-.152a2596.78 2596.78 0 0 0-1.657-.002h-.99l-.03-.001a1712.607 1712.607 0 0 1-3.088-.004 65.77 65.77 0 0 1-.556 0c-.217-.005-.217-.005-.41.084a.795.795 0 0 0-.105.217.378.378 0 0 1-.095.155l-.016.017c-.153.15-.4.212-.608.22l-.034.001c-.28.007-.54-.061-.751-.25l-.022-.02c-.052-.052-.074-.117-.1-.184-.032-.084-.065-.159-.14-.208a.623.623 0 0 0-.215-.026h-.704a884.882 884.882 0 0 0-1.4.001H5.2l-.723.001h-.282l-1.032.001h-.175a563.625 563.625 0 0 0-1.603.001h-.033c-.075 0-.075 0-.103-.027.004-.087.025-.166.049-.249l.01-.034a11.567 11.567 0 0 1 .038-.142l.01-.037.007-.034a.126.126 0 0 1 .048-.066c.024-.005.024-.005.05-.005h.103l.121.001a71.178 71.178 0 0 0 .272.001 88.915 88.915 0 0 0 .709.002h.027l.213.001h.212a219.89 219.89 0 0 0 1.112.004h.034a.415.415 0 0 0 .25-.066.319.319 0 0 0 .005-.226c-.083-.065-.163-.064-.264-.063h-.151a174.858 174.858 0 0 1-.54 0h-.42l-.202.001H2.74a687.804 687.804 0 0 1-1.06.002h-.033c-.058 0-.113-.005-.172-.014-.016-.047-.008-.079.005-.125l.012-.046.014-.05.014-.052.037-.137.036-.138c.047-.176.095-.35.144-.525h.037l.02.056.014.037.034.097c.068.21.068.21.232.347l.023.013c.146.072.393-.033.542-.07l.115-.028.071-.017c.065-.016.129-.03.194-.043l.147-.03a18.092 18.092 0 0 1 .408-.082c.215-.04.215-.04.294-.052l.064-.009c.52-.076 1.058-.118 1.572-.016.04.008.08.014.12.02.092.015.182.042.272.068l.075.022c.236.07.462.166.676.284.034.02.068.037.103.055.044.025.085.051.126.082a.681.681 0 0 0 .066.04.512.512 0 0 1 .091.062v.024l.05.013v.025l.028.01c.037.016.06.035.09.062.033.03.066.06.1.088l.031.027V7.8h.025v.025l.02.002c.043.015.068.045.097.077a.355.355 0 0 0 .182.128c.087.002.087.002.157-.041.036-.045.056-.082.053-.14a.535.535 0 0 0-.21-.263v-.025l-.023-.01a.212.212 0 0 1-.063-.052c-.063-.064-.135-.116-.205-.17l-.085-.07a1.97 1.97 0 0 0-.198-.135l-.034-.022a4.76 4.76 0 0 0-.414-.227l-.031-.015a3.671 3.671 0 0 0-1.56-.375h-.22a5.862 5.862 0 0 0-1.043.09c-.481.07-.964.166-1.435.301a.23.23 0 0 1-.115.011.512.512 0 0 1-.084-.17l-.009-.026-.028-.088-.02-.06-.04-.122-.05-.154-.028-.082-.012-.038a.451.451 0 0 1-.028-.183c.453-.175.948-.261 1.422-.353l.03-.006c.056-.011.112-.02.169-.028l.07-.01c.562-.082.562-.082.726-.077.028.002.028.002.052-.013l.061-.001h.124a47.008 47.008 0 0 1 .317 0h.115a.578.578 0 0 1 .094.014l.09.005a.95.95 0 0 1 .184.027.54.54 0 0 0 .083.01c.075.007.147.027.22.046.037.009.074.017.112.024.062.012.121.03.18.05l.088.024c.34.084.663.248.97.414l.034.019c.073.04.14.082.21.13l.032.02c.053.035.104.072.154.11.038.028.078.053.117.078l.021.016v.025l.028.01a.414.414 0 0 1 .095.059l.03.023.022.02v.025l.022.003c.036.012.052.032.078.06l.025.012v.025h.025c.032.03.032.03.062.062v.025l.022.003c.04.014.053.039.078.072.034.036.07.069.107.1a.353.353 0 0 1 .08.087v.025l.021.008c.04.024.063.054.091.092v.025l.038.012c.017.02.017.02.034.044l.02.028.02.028.042.054c.184.237.4.52.495.807.022.014.022.014.05.025l.04.02c.072.03.151.027.225.004.1-.044.137-.138.182-.23a3.76 3.76 0 0 1 .577-.841l.025-.03a18.584 18.584 0 0 1 .1-.116 1.58 1.58 0 0 1 .1-.104l.019-.02c.044-.045.09-.088.138-.129a4.45 4.45 0 0 1 1.2-.824 4.044 4.044 0 0 1 1.942-.475c.054 0 .076-.012.126 0z" fill="#fbb627"/><path d="M6.578.403a2.957 2.957 0 0 1 1.347.56l.04.031a3.475 3.475 0 0 1 .34.301c.302.29.53.658.719 1.03l.014.027a4.226 4.226 0 0 1 .024.049c.023.057.023.111.023.172v.05a59.566 59.566 0 0 1-.002.153v.046c0 .036 0 .036.007.062a.418.418 0 0 1 .008.1v.045a69.862 69.862 0 0 1 0 .407 403.807 403.807 0 0 1 0 .596v.072a1440.024 1440.024 0 0 1 0 1.942v.072a6607.022 6607.022 0 0 0 0 1.012v.04c-.002.03-.002.03-.014.055l-.002.062v.033c0 .031 0 .031.014.067l-.012.075a1.334 1.334 0 0 1-.063-.05v-.025h-.025a1.357 1.357 0 0 1-.083-.12l-.015-.022a3.347 3.347 0 0 0-.201-.257l-.031-.038a4.798 4.798 0 0 0-.307-.328l-.023-.023a3.248 3.248 0 0 0-.288-.26L7.98 6.28c-.093-.077-.192-.143-.292-.21-.03-.02-.059-.042-.087-.063-.1-.07-.208-.13-.314-.192a5.052 5.052 0 0 0-1.852-.649L5.4 5.161c-1.132-.167-2.345.105-3.43.412l-.031.008-.057.016a.364.364 0 0 1-.104.018c.008-.08.024-.155.044-.232l.01-.04.032-.13.024-.092c.067-.266.136-.531.204-.797.067-.257.131-.514.196-.771l.131-.52.007-.028a185.048 185.048 0 0 0 .214-.845l.02-.083.053-.21c.124-.503.124-.503.177-.543a1.996 1.996 0 0 1 .115-.062l.086-.044.03-.015.206-.104.023-.012A7.969 7.969 0 0 1 4.386.662l.042-.014a5.65 5.65 0 0 1 1.143-.26l.035-.004c.32-.04.645-.032.963.017z" fill="#fbf2de"/><path d="M13.177.415c.037.008.074.013.111.018.102.014.2.037.3.06l.029.007a5.236 5.236 0 0 1 .476.134c.17.057.339.118.505.187l.108.041c.089.035.176.073.263.112l.024.011c.121.055.242.11.36.172l.034.018.113.061.036.02.034.018.03.017c.059.036.071.067.088.133l.006.024.02.076.013.05.074.294.017.069.056.223.032.129.016.065c.035.143.035.143.073.283.015.054.028.107.04.16.032.137.067.272.102.408.068.268.136.537.202.806.06.248.123.495.188.744.066.249.128.5.189.752l.022.092c-.051.017-.087-.001-.137-.018a7.388 7.388 0 0 0-.372-.103l-.028-.008a5.127 5.127 0 0 0-.333-.075c-.051-.01-.102-.024-.153-.037a6.721 6.721 0 0 0-.9-.154 1.619 1.619 0 0 1-.22-.036c-.05-.01-.1-.012-.151-.015-.038-.003-.038-.003-.065-.009a1.079 1.079 0 0 0-.143-.013l-.033-.002a10.278 10.278 0 0 0-.444-.007h-.046c-.228 0-.453.006-.679.04l-.043.007a5.146 5.146 0 0 0-1.921.717l-.026.016c-.26.161-.498.35-.727.553l-.054.044a1.07 1.07 0 0 0-.135.136.972.972 0 0 1-.12.112c-.03.032-.058.066-.086.1l-.034.038a4.357 4.357 0 0 0-.3.387l-.018.024-.03.046c-.027.038-.048.063-.092.08-.018-.036-.014-.066-.014-.106V7.206a154.187 154.187 0 0 0-.002-.23v-.144a519.3 519.3 0 0 1-.006-2.313 201.091 201.091 0 0 1-.003-1.149 46.947 46.947 0 0 1-.001-.53c-.004-.455-.004-.455.112-.628.023-.036.042-.074.063-.111a6.163 6.163 0 0 1 .06-.102 3.51 3.51 0 0 1 .39-.532l.03-.036c.047-.052.095-.102.144-.152l.032-.032a2.33 2.33 0 0 1 .243-.217l.02-.016c.72-.558 1.76-.818 2.657-.601z" fill="#e2d7ba"/><path d="M4.47 5.48h.123a46.211 46.211 0 0 1 .317 0h.115a.578.578 0 0 1 .094.014l.09.006c.063.003.123.01.184.026a.54.54 0 0 0 .083.01c.075.007.147.027.22.046.037.01.074.018.112.025.062.011.121.03.18.05l.088.023c.34.084.663.249.97.415l.034.018c.072.04.14.083.21.13l.032.02c.052.036.104.072.154.11.038.028.078.053.117.078l.021.017v.024l.028.01a.414.414 0 0 1 .095.059l.03.023.022.02v.026l.022.003c.035.012.052.032.078.059l.025.012v.025h.025c.032.03.032.03.062.063v.025l.022.002c.04.014.053.04.078.073.034.035.07.068.107.1a.353.353 0 0 1 .08.087v.025l.02.007a.3.3 0 0 1 .092.092v.025l.038.013c.016.019.016.019.034.044l.02.027.02.029.042.053c.183.238.4.52.495.808.022.013.022.013.05.025l.04.02c.072.03.151.027.225.004.115-.051.158-.18.21-.286l.037.025.027-.029c.035-.033.035-.033.068-.053a.212.212 0 0 0 .067-.068h.025l.011-.024c.014-.026.014-.026.039-.038l.012.062.05-.037v.212l-.085.007c-.03.003-.03.003-.052.03l.013.036c.012.04.012.04.012.064l-.037.013v.124h-.063l-.012.025.1-.012v-.137c.025.025.025.025.027.06v.04l-.001.042-.001.032h-.025v.025H9.76v.025h-.025v.025l-.15.012v.1h-.05v-.062h.038l-.013-.112H9.5v-.025h-.05v.025l-.025.012.05.013.012-.025v.037h-.1v.025l-.024.012c-.005.052-.005.052.016.098.022.017.022.017.058.027v.025c-.134.08-.134.08-.224.075l-.025-.112h.025l-.025-.063.075-.012a59.088 59.088 0 0 1-.088-.013v.088l-.05.025v.15l-.074.024v.025l-.063.013V8.8H8.95v.037h-.025v.025h-.038v.075H8.8l-.012-.063h-.025a.361.361 0 0 1-.064-.19c-.005-.07-.005-.07-.036-.134l-.025.013-.037-.038a9.66 9.66 0 0 1-.013.038l-.025-.025a1.909 1.909 0 0 0-.087-.025v-.025a.414.414 0 0 0-.187-.038l-.002.024-.005.03-.003.03c-.02.039-.047.044-.087.058a.577.577 0 0 1-.133.018l-.03.001a6.185 6.185 0 0 1-.153.008l-.06.003-.028.001a.497.497 0 0 1-.136-.01 1.404 1.404 0 0 0-.064-.002H7.55a89.739 89.739 0 0 1-.077 0c-.074 0-.147.004-.22.014v.05h.036a104.662 104.662 0 0 1 .832-.005h.027c.06 0 .06 0 .087.024l.016.018-1.996.001h-.03a12019.4 12019.4 0 0 1-.956 0H5.24a2955.864 2955.864 0 0 0-2.056.002h-.147a5526.776 5526.776 0 0 1-1.65 0h-.034c-.075 0-.075 0-.103-.028a1.1 1.1 0 0 1 .049-.248l.01-.035a7.015 7.015 0 0 1 .038-.142l.01-.037.008-.033a.126.126 0 0 1 .047-.066c.024-.005.024-.005.05-.005a74.916 74.916 0 0 0 .102 0l.121.001a71.178 71.178 0 0 0 .272 0 88.916 88.916 0 0 0 .709.003h.24a1672.364 1672.364 0 0 0 1.324.005h.034a.415.415 0 0 0 .25-.066.319.319 0 0 0 .005-.226c-.083-.066-.163-.064-.264-.063h-.151a174.9 174.9 0 0 1-.54 0h-.42l-.202.001H2.74a679.739 679.739 0 0 1-1.06.001h-.032a1.12 1.12 0 0 1-.173-.013c-.016-.047-.008-.079.005-.125l.012-.046.014-.05.014-.052.037-.138.036-.137c.047-.176.095-.35.144-.525h.037l.02.055.014.038.034.097c.068.21.068.21.232.346l.023.014c.146.072.393-.033.542-.07l.115-.028.071-.017a4.28 4.28 0 0 1 .194-.043l.147-.03a18.09 18.09 0 0 1 .408-.082c.215-.04.215-.04.294-.052l.064-.009c.52-.076 1.058-.118 1.572-.016.04.008.08.014.12.02.092.015.182.042.272.068l.075.022c.236.07.462.166.676.284l.103.055c.044.025.085.051.126.082a.681.681 0 0 0 .066.04.512.512 0 0 1 .091.061v.025l.05.013v.025l.028.01c.037.016.06.035.09.062.033.03.066.06.1.088l.031.027v.025h.025v.025l.02.002c.043.015.068.045.097.076a.355.355 0 0 0 .182.129c.087.002.087.002.157-.041.036-.045.056-.082.053-.14a.535.535 0 0 0-.21-.263v-.025l-.023-.01a.213.213 0 0 1-.063-.052c-.062-.064-.135-.117-.205-.17l-.085-.07a1.968 1.968 0 0 0-.232-.157 4.76 4.76 0 0 0-.414-.227l-.031-.016a3.671 3.671 0 0 0-1.56-.374h-.22a5.863 5.863 0 0 0-1.043.089c-.481.07-.964.167-1.435.302a.23.23 0 0 1-.115.011.512.512 0 0 1-.084-.17l-.009-.027-.028-.087-.02-.061-.04-.122-.05-.153-.028-.083-.012-.037a.45.45 0 0 1-.028-.184c.453-.174.948-.26 1.422-.353l.03-.005c.056-.011.112-.02.169-.028l.07-.01c.562-.082.562-.082.726-.077.04 0 .072-.014.113-.014z" fill="#f9b527"/><path d="M7.6.765c.16.057.3.174.428.282l.055.043c.168.13.324.29.453.46l.035.046c.175.228.323.47.453.727l.014.028a4.226 4.226 0 0 1 .024.049.432.432 0 0 1 .023.172v.05a59.194 59.194 0 0 1-.002.153v.046c0 .036 0 .036.007.062a.414.414 0 0 1 .008.1v.045a64.488 64.488 0 0 1 0 .25v.157a398.752 398.752 0 0 1 0 .596v.072a1426.689 1426.689 0 0 1 0 1.941v.073a6607.022 6607.022 0 0 0 0 1.051c-.002.03-.002.03-.014.056l-.002.061v.034c0 .031 0 .031.014.067l-.012.075a1.335 1.335 0 0 1-.063-.05v-.025h-.025a1.357 1.357 0 0 1-.083-.12l-.015-.022a3.349 3.349 0 0 0-.2-.257l-.032-.038a4.798 4.798 0 0 0-.307-.328l-.022-.023a3.248 3.248 0 0 0-.289-.26L7.98 6.28a3.218 3.218 0 0 0-.292-.21l-.09-.063c-.085-.06-.173-.112-.26-.166l.005-.037c.012-.08.022-.16.02-.242 0-.037.002-.074.005-.112a24.437 24.437 0 0 0 .022-.327c.007-.11.01-.218.01-.328 0-.09.005-.182.01-.273l.004-.098a1.88 1.88 0 0 1 .033-.303c.006-.03.006-.03-.013-.064a1.249 1.249 0 0 0-.118-.082c-.028-.02-.028-.02-.052-.043-.094-.094-.225-.158-.338-.226l-.029-.017c-.545-.33-1.107-.54-1.746-.56h-.03l-.054-.002a.272.272 0 0 1-.16-.058c-.033-.041-.03-.085-.025-.137a.216.216 0 0 1 .12-.115c.053-.018.103-.016.158-.014h.036c.547.013 1.07.177 1.56.416l.035.017c.21.104.41.227.599.364.027.02.027.02.064.03l.002-.024.01-.1.003-.03a.298.298 0 0 1 .035-.12 5.281 5.281 0 0 0-1.571-.72.223.223 0 0 1-.135-.12c-.007-.058.004-.084.032-.133.047-.054.074-.072.146-.08.09.002.173.035.258.062l.054.017c.127.042.253.086.377.139l.025.01c.268.114.534.242.786.39l.002-.034.002-.044.003-.043a.351.351 0 0 1 .03-.104V2.67l-.025-.025-.025-.025v-.025l-.026-.01a.809.809 0 0 1-.113-.061c-.713-.437-1.497-.653-2.32-.477l-.033.007a5.079 5.079 0 0 0-1.884.862.221.221 0 0 1-.173.041.22.22 0 0 1-.113-.085c-.015-.052-.008-.077.013-.127a.551.551 0 0 1 .151-.138l.03-.022a5.514 5.514 0 0 1 .57-.342 5.62 5.62 0 0 1 1.07-.434l.038-.01a3.192 3.192 0 0 1 2.183.123l.027.01c.15.062.292.137.434.211l.023.012.062.033c.042.021.084.04.128.058V2.21l-.001-.047v-.047a.713.713 0 0 1 .013-.12h.025v-.05l-.026-.01a.761.761 0 0 1-.111-.06 3 3 0 0 0-.213-.121c-.092-.052-.092-.052-.112-.105a.228.228 0 0 1 .05-.14.23.23 0 0 1 .163-.062.82.82 0 0 1 .124.049l.033.015c.027.011.053.023.08.036v-.08l-.001-.045c0-.038 0-.038.013-.063v-.078a2.4 2.4 0 0 1 .038-.52z" fill="#e2d7ba"/><path d="M13.177.415a.343.343 0 0 1 .01.103.3.3 0 0 0 .019.099c.02.058.037.118.052.178l.008.031c.048.183.048.183.048.226h-.021c-.734-.05-.734-.05-1.422.153-.04.022-.04.022-.09.022v.025c-.025.019-.025.019-.06.039l-.034.02c-.03.016-.03.016-.055.016v.025l-.025.012a1.744 1.744 0 0 0-.025.088h-.025v.025a16.543 16.543 0 0 1-.05-.013v-.037l-.025-.002-.035-.003-.033-.003c-.031-.005-.031-.005-.069-.03-.009-.033-.01-.065-.012-.1h-.025v-.037l-.075.025v.025h-.075l.013-.037h.025v-.05h-.025v.025l-.075.012-.013.063-.1.012v.025h-.024v.025h-.025v.025l-.1.025v.025h-.025v.1l-.05.024v.038h-.025v.037h-.025v.025h-.037l.012.025.036-.025c.039-.025.039-.025.064-.025v-.025c.054-.03.1-.043.162-.05a.43.43 0 0 1-.1.078 3.032 3.032 0 0 0-.212.147l-.04.03a2.992 2.992 0 0 0-.239.201c-.027.026-.056.05-.085.075-.037.03-.037.03-.06.068h-.025l-.01.023a.236.236 0 0 1-.054.066 1.343 1.343 0 0 0-.144.174l-.025.033a3.14 3.14 0 0 0-.116.165l-.025-.024.1-.138-.025-.037.025-.038-.03-.008-.032-.016c-.01-.033-.01-.033-.013-.063l-.037.013-.013.037-.062.013v.024h-.1v-.037l.034-.004a.212.212 0 0 0 .103-.046c.011-.032.011-.032.013-.062l-.038.012-.012.038-.063.012v.025H9.55v.025a2.348 2.348 0 0 1-.05.05c-.065.13-.026.357-.025.499l.075-.013.013-.074H9.6v.037l.025-.012v-.025h.037v.037h.025l-.007.024-.006.026.013.012v.088l.05-.013.01.024c.013.03.013.03.052.039a.178.178 0 0 1 .013.05c.05.012.098.014.15.014h.046c.039-.002.06-.004.091-.027.01-.038.01-.038.012-.075l.075-.012.013.062h.025c.028.025.028.025.05.062-.003.037-.014.065-.025.1h-.025c0 .01.002.019.003.028-.003.035-.003.035-.027.063-.026.022-.026.022-.051.022l-.013.037h-.062v.05h-.025v.037l-.05.013-.004.02c-.012.04-.03.078-.046.117a.571.571 0 0 0-.013.05h-.024c0 .015 0 .03.002.047a.16.16 0 0 1-.027.103h-.05v.074h-.075v-.024h-.074v-.025H9.6a2.096 2.096 0 0 1-.009-.024c-.017-.034-.017-.034-.078-.051v-.175l-.025-.012a9.961 9.961 0 0 0-.014.647v.142a234.013 234.013 0 0 0 0 1.094c0 .092.005.183.014.276l.037-.013c.01-.025.01-.025.013-.05h.025l.012.075.013-.012a.844.844 0 0 1 .05-.01l.03-.005.033-.005.032-.005.08-.013v-.025l.124-.05v-.087l-.062-.012.012-.05h.075v-.025l.025-.025.01-.023c.015-.027.015-.027.038-.056a.633.633 0 0 0 .064-.1l.02-.039.022-.04c.074-.14.156-.274.25-.404l.022-.029c.086-.118.18-.228.278-.334l.064-.075a.594.594 0 0 1 .078-.078c.035-.03.068-.06.1-.093.059-.06.124-.111.19-.163l.042-.036c.562-.463 1.31-.842 2.046-.84h.114c.03.002.03.002.068.015v.025l-.024-.002a1 1 0 0 0-.258.031.483.483 0 0 1-.105.008l-.012.013-.06.005-.038.003-.078.006c-.09.007-.174.02-.26.048V3.3l.062.013-.05.012.012.037.063.013v.062h.2v-.025l.04.001c.061 0 .122-.006.184-.013.04 0 .064.007.1.025V3.36l.038.013v.05l.026-.001a.517.517 0 0 1 .164.015c.081.021.166 0 .247-.014l.025-.087c.027.04.032.065.038.112h.025l.012.025c.03.005.058.01.088.012v-.1h.025c.015.052.012.1.01.154a.156.156 0 0 0 .027.083l.05-.012-.013.062h.025V3.56c.026.05.04.1.056.154l.008.028c.016.058.03.117.042.176a5.463 5.463 0 0 0 .092.372.273.273 0 0 0 .007.026c.025.097.05.194.073.29l.006.025c.029.113.056.226.082.34.008.036.008.036.021.073.002.033 0 .066 0 .1l-.043-.003c-.18-.01-.36-.013-.541-.013h-.046c-.228 0-.453.006-.679.04l-.043.007a5.146 5.146 0 0 0-1.921.718l-.026.015a5.42 5.42 0 0 0-.727.553l-.054.044a1.07 1.07 0 0 0-.135.136.98.98 0 0 1-.12.113c-.03.032-.058.066-.086.1l-.034.038a4.357 4.357 0 0 0-.3.386c-.007.008-.012.016-.018.025l-.03.045c-.027.038-.048.064-.092.08-.018-.036-.014-.066-.014-.105v-.111a155.046 155.046 0 0 0-.002-.229V6.84a519.3 519.3 0 0 1-.006-2.312 201.09 201.09 0 0 1-.003-1.15 47 47 0 0 1-.001-.53c-.004-.455-.004-.455.112-.628.023-.036.042-.073.063-.11a6.231 6.231 0 0 1 .06-.102 3.52 3.52 0 0 1 .39-.533l.031-.036c.046-.052.094-.102.143-.152l.032-.032a2.33 2.33 0 0 1 .243-.217l.02-.016c.766-.592 1.722-.75 2.657-.607z" fill="#fbf2de"/><path d="m1.425 5.78.02.027a.487.487 0 0 0 .07.069c.035.028.035.028.047.053a.686.686 0 0 1-.039.261 8.008 8.008 0 0 0-.022.077l-.025.084-.09.32-.039.138-.037.136-.028.097-.042.154-.016.056a29.063 29.063 0 0 0-.109.399c-.025.086-.04.173-.053.263a5 5 0 0 1-.11.493l-.008.027-.02.073a.469.469 0 0 0 .027.354c.06.097.156.153.262.188l.112.001h.238l.235.001h.227a797.636 797.636 0 0 0 .924.002h.174a3677.895 3677.895 0 0 0 2.028.003h.031l.31.001a2939.9 2939.9 0 0 0 .66.001l1.933.003c.02.038.038.076.054.116.096.223.272.366.494.458.113.043.225.08.345.096.03.004.03.004.052.01.19.042.425.012.614-.031l.027-.006c.232-.055.479-.175.617-.378a1.76 1.76 0 0 0 .129-.252c.023-.023.056-.014.087-.014h.185a183.896 183.896 0 0 0 .542.001 960.953 960.953 0 0 1 1.12.002h1.022a1134.414 1134.414 0 0 1 2.154.004h.03a220.59 220.59 0 0 1 1.16.002 33.282 33.282 0 0 0 .31 0c.194.002.338-.01.485-.152a.375.375 0 0 0 .076-.142l.007-.022c.018-.097-.005-.187-.027-.282l-.01-.045a8 8 0 0 0-.09-.355 1.237 1.237 0 0 1-.04-.208c-.016-.151-.06-.297-.1-.443a16.465 16.465 0 0 1-.033-.128l-.082-.303-.023-.087-.063-.235-.01-.036a28.136 28.136 0 0 0-.126-.454l-.023-.078-.013-.046-.011-.04c-.006-.041 0-.06.02-.098l.057-.066.031-.033.024-.025.025.012a2.017 2.017 0 0 1 .043.146l.02.076.047.163.036.131a106.718 106.718 0 0 0 .3 1.058l.025.089.036.13c.043.152.086.302.133.452l.091.31.008.025.07.239c.064.222.13.444.203.663.014.129.014.129-.027.181-.076.066-.137.074-.234.074h-.163a78.175 78.175 0 0 0-.287 0 107.671 107.671 0 0 0-.786 0 492.73 492.73 0 0 0-.988 0h-.032a1363.145 1363.145 0 0 1-.781 0l-.498.001h-1.341a1962.646 1962.646 0 0 0-2.194.002h-.035a.42.42 0 0 0-.305.117 2.981 2.981 0 0 0-.084.102c-.21.258-.55.41-.88.444-.441.033-.83-.048-1.182-.322l-.031-.024a.975.975 0 0 1-.169-.19.316.316 0 0 0-.162-.123.821.821 0 0 0-.052-.002H7.65a310.652 310.652 0 0 1-.588 0h-.439a885.186 885.186 0 0 1-.901 0h-.983a1255.558 1255.558 0 0 0-2.18 0l-.157-.001h-.03a225.343 225.343 0 0 0-.991 0 57.364 57.364 0 0 0-.606 0 8.521 8.521 0 0 1-.156 0 .296.296 0 0 1-.207-.085c-.03-.042-.039-.062-.035-.114l.01-.042.012-.046c.02-.074.041-.146.064-.219l.033-.108.01-.03.121-.411.027-.09.182-.63.163-.573.027-.093c.036-.128.073-.254.11-.38l.067-.238.025-.088.036-.124.011-.04.059-.208.012-.044.022-.083.01-.037.01-.033c.009-.026.009-.026.033-.051z" fill="#007d8f"/><path d="M11.206 1.201v.063l-.038.012-.012.025h.075v-.025l.075-.025v.038h.024l.025.1.033.006.042.01.041.009.034.012.013.037.037.013V1.45h.025l.013-.087.037-.013v-.025c.026-.019.026-.019.06-.039l.035-.02c.03-.016.03-.016.055-.016v-.025h.037l-.013.039a.226.226 0 0 0 0 .136c.039.043.074.056.132.062.067 0 .132-.02.198-.034.43-.094.872-.113 1.31-.028l.005.025c.01.051.02.101.034.15a.585.585 0 0 1 .01.149l-.034-.005-.128-.016-.055-.007c-.61-.078-1.172.036-1.734.29L11.509 2a3.844 3.844 0 0 0-.661.378c-.142.093-.142.093-.23.233a.183.183 0 0 0 .038.11.202.202 0 0 0 .162.038c.04-.02.076-.048.112-.075a3.472 3.472 0 0 1 .407-.268c.725-.412 1.447-.544 2.258-.355l.005.031c.033.191.088.378.135.565l.036.143.011.045.03.122.02.077a14.614 14.614 0 0 0 .082.313c.02.08.032.153.032.235v.044l-.001.033h-.025a2.426 2.426 0 0 1-.013.05v-.1l-.037.05a.593.593 0 0 1-.005-.043c-.002-.042-.002-.042-.02-.057v-.187c-.016.032-.02.064-.025.1h-.087l-.012-.038h-.025l-.025-.074-.013.03c-.025.032-.025.032-.072.044a1.761 1.761 0 0 1-.056.006l-.028.003a.377.377 0 0 1-.168-.021 1.224 1.224 0 0 0-.074-.008l-.036-.003-.027-.001v-.05h-.025a2.426 2.426 0 0 1-.013.05l-.026-.004a.771.771 0 0 0-.198.001.305.305 0 0 1-.1-.01v.025a.36.36 0 0 1-.135.007l-.037-.004-.028-.003V3.37h-.062l-.012-.05.012-.013-.025-.012V3.27c.086-.058.198-.056.298-.063l.077-.006.034-.003c.028-.002.028-.002.052-.016l.067-.008.075-.01a.62.62 0 0 1 .232-.007v-.024a2.795 2.795 0 0 0-.86.1l-.029.007c-.6.176-1.21.544-1.634 1-.016.016-.016.016-.04.016l-.013.037h-.025a1.82 1.82 0 0 0-.01.022c-.019.034-.042.056-.07.083-.071.069-.13.144-.19.223l-.048.06a3.345 3.345 0 0 0-.34.542.665.665 0 0 1-.112.16.14.14 0 0 0-.028.07h-.025v.025l-.075.013-.012.037h.074a.35.35 0 0 1-.012.1c-.045.04-.064.05-.125.05v.025a.606.606 0 0 1-.224.037l-.013.037c-.017-.033-.013-.062-.012-.1h-.025l-.005.03c-.008.033-.008.033-.033.058h-.025a4.085 4.085 0 0 1-.014-.35v-.323a236.947 236.947 0 0 1 0-.886c0-.221.003-.44.014-.661l.025.012c.018.054.018.107.021.163.001.036.001.036.016.062l.025.005.025.007.013.038.087.012v.025l.033-.001a.342.342 0 0 1 .117.026V3.82h.05l.025-.15h.025l.003-.037a.319.319 0 0 1 .059-.15c.027-.009.027-.009.05-.012v-.037h.025v-.05l.027-.003a.158.158 0 0 0 .097-.072.694.694 0 0 0 .063-.15c-.01-.027-.01-.027-.025-.05l-.013-.037h-.025a2.426 2.426 0 0 0-.012-.05h-.075c0 .012-.002.023-.003.035-.009.04-.009.04-.03.06-.04.023-.07.022-.115.021h-.045a.413.413 0 0 1-.119-.029v-.05l-.021-.004a.226.226 0 0 1-.091-.046c-.004-.046-.004-.046 0-.087h-.025c.012-.037.012-.037.025-.062h-.025v-.038H9.62l.013.038h-.037v-.038h-.038l-.012.075h-.038l-.012.038V2.91h-.025c-.053-.4-.053-.4.024-.522l.026-.027h.025v-.025h.112V2.31l.062-.012.013-.05h.037c.006.027.006.027 0 .062a.407.407 0 0 1-.137.075l.087.012v-.025l.063-.012.012-.05h.038l.009.03c.013.035.013.035.049.049l.03.008-.026.038.025.037c-.032.046-.065.09-.1.137a1.13 1.13 0 0 0 .135-.158c.06-.08.122-.156.19-.228l.057-.065a1.26 1.26 0 0 1 .128-.125c.031-.026.06-.053.09-.08.15-.137.316-.247.486-.354l-.029.006-.096.02v.024l-.112.062v-.037h.037V1.65h.025v-.037h.025v-.038l.038-.025c.007-.024.007-.024.009-.051 0-.016.003-.032.004-.048h.025v-.025l.1-.025v-.025h.024V1.35h.025v-.025c.034-.017.063-.014.1-.013v-.03c0-.032 0-.032.013-.045h.074v-.025c.025-.012.025-.012.038-.012zM6.578.403a11 11 0 0 1 .037.006c.28.045.778.144.983.354.019.035.015.049.005.087a1.377 1.377 0 0 0-.023.262l-.002.048-.003.169a.816.816 0 0 1-.013.122l-.012.1c-.07-.01-.128-.042-.192-.073-.066-.021-.111-.012-.172.018a.206.206 0 0 0-.072.117c.002.044.004.067.036.097l.032.019.037.022.045.025.027.015.118.065c.053.03.104.06.155.094-.012.07-.012.07-.02.097a.787.787 0 0 0-.012.118l-.004.048-.002.037c-.077-.006-.135-.043-.2-.08-.683-.381-1.423-.587-2.209-.457l-.037.006a4.891 4.891 0 0 0-1.497.528 4.07 4.07 0 0 0-.608.364l-.023.016c-.067.05-.13.101-.158.183.002.046.002.046.025.087.065.052.118.057.2.05v.025h.025v.075h-.038l-.012.05-.063.012v.025l.048-.005.027-.003c.027-.004.027-.004.062-.017l-.012.05-.054.007-.03.004c-.028.002-.028.002-.066-.01v-.05H2.87v-.026h-.05l.012.113h.088v.074h-.063v.025l-.047.014c-.044.016-.05.021-.076.063-.012.04-.022.08-.031.122a.447.447 0 0 1-.033.078c-.028.06-.035.12-.043.185a.28.28 0 0 1-.044.112h-.025l-.005.027-.02.12-.006.042-.007.041-.006.037c-.006.032-.006.032-.019.07h-.037l-.012.062H2.42l-.003.031a7.58 7.58 0 0 1-.022.256 9.66 9.66 0 0 0-.038.012l-.002.029a.974.974 0 0 1-.024.18.417.417 0 0 0 .03.25.53.53 0 0 1 .034.203c.035.01.067.014.104.016l.03.002.031.001.032.002.077.003v.013l-.024.002-.03.003-.031.002c-.03.003-.03.003-.052.03.03.015.05.014.083.013h.054l-.022.01c-.028.014-.028.014-.052.034a.18.18 0 0 1-.091.03.619.619 0 0 0-.141.04.845.845 0 0 1-.342.06v-.075l-.062.013.012-.075H1.91l-.002-.025-.004-.033-.003-.033c-.003-.033-.003-.033-.011-.061a.309.309 0 0 1 .015-.127l.007-.028.024-.092.016-.066.046-.177.047-.186.105-.41.033-.129.114-.44c.064-.247.126-.496.188-.743l.006-.024.086-.344.095-.382.032-.13c.077-.307.077-.307.114-.444l.008-.027c.029-.104.029-.104.064-.13l.023-.012.027-.013.03-.015.03-.015.097-.05.068-.034.163-.082.073-.036c.318-.16.654-.288.99-.402L4.434.65A5.65 5.65 0 0 1 5.576.39L5.61.386c.32-.04.645-.032.963.017z" fill="#fbf2dd"/><path d="M16.732 6.665c.043.029.044.035.056.082a.537.537 0 0 0 .01.036l.01.04a.262.262 0 0 1 .011.04l.035.131.024.09.066.255.01.034.045.175.01.041c.015.062.028.123.036.186h-.031a14.807 14.807 0 0 0-.373.002c-.097 0-.179.002-.26.06l-.022.013-.038-.013a3.206 3.206 0 0 0-.107-.001h-.032a25.437 25.437 0 0 0-.265 0 .922.922 0 0 0-.156.014c-.025-.012-.025-.012-.045-.03-.05-.043-.102-.047-.167-.047h-.353a158.17 158.17 0 0 0-.89-.001h-.039c-.132-.002-.132-.002-.247.054-.06.044-.14.028-.21.017a.937.937 0 0 0-.127-.007h-.097a75.881 75.881 0 0 1-.203 0h-.155a289.511 289.511 0 0 0-.824 0h-.154c-.226 0-.452.002-.68.01a9.023 9.023 0 0 1-.402.004v-.025l-.037-.013.043-.043.038-.04a1.42 1.42 0 0 1 .161-.139c.01-.006.018-.013.027-.02.489-.359 1.054-.618 1.659-.69.029-.003.057-.01.085-.016.161-.033.332-.027.495-.026a22.26 22.26 0 0 0 .157 0h.028c.036 0 .07 0 .104.008.032.006.06.006.091.006.063 0 .123.005.185.013l.033.004.067.009.103.013.066.008.031.004a10.398 10.398 0 0 0 .21.034 9.624 9.624 0 0 1 .429.076c.123.022.245.047.367.077l.15.034c.117.025.233.055.349.085.147.038.322.077.463-.005.147-.108.184-.325.238-.49.008-.024.008-.024.02-.05zM1.75 6.678c.037.031.048.062.063.108l.014.042.029.088c.046.14.085.24.218.31l.023.015c.146.072.393-.034.542-.07l.115-.028.072-.018a4.28 4.28 0 0 1 .193-.042l.147-.03c.124-.027.248-.052.373-.076l.035-.006c.216-.041.216-.041.294-.052l.064-.01c.52-.075 1.058-.117 1.572-.016.04.008.08.014.12.02.092.016.182.042.272.069l.075.021c.236.07.462.166.676.285l.103.055c.044.024.085.05.126.081a.681.681 0 0 0 .066.04.512.512 0 0 1 .091.062v.025l.05.012v.025l.028.01c.037.016.06.035.09.063.033.03.066.06.1.088l.031.026V7.8h.025v.025c-.025.025-.025.025-.069.028l-.056-.001h-.03a25.607 25.607 0 0 0-1.05-.016h-.03c-.472 0-.942.006-1.41.012h-.03l-.076.001c-.068.001-.088-.005-.139-.047-.063-.037-.143-.029-.214-.028H4.02a134.45 134.45 0 0 0-.852 0l-.025.001H2.74a687.8 687.8 0 0 1-1.06.002h-.033c-.058 0-.114-.005-.172-.014-.017-.047-.008-.079.005-.125l.012-.046.014-.05.014-.052.036-.137.037-.138.082-.3.01-.04c.01-.032.018-.065.027-.097l.007-.028c.017-.058.017-.058.03-.072zm12.1-4.179c.025.025.025.025.025.062h.025l.013-.062c.025.025.025.025.025.062l.075.013v.025l.055.013.031.007.026.004.013-.012a1.19 1.19 0 0 1 .098 0h.026v.037h.025v.025h.025l.025.025a.27.27 0 0 0 .058.008l.03.003.024.002v.025l.034.01c.025.009.05.018.073.028a4.434 4.434 0 0 1 .143.037v.025h.025v.024l.046.004c.047.006.08.015.116.046v.05l.063.013v.037h.05l.009.029c.02.042.036.052.078.071.04.009.04.009.075.012v.025l.032.005.041.007.041.007a.129.129 0 0 1 .06.019v.025h.175v.037l.162.025v.025l.04-.001c.048.014.048.014.067.04a.45.45 0 0 1 .056.173h.025c.037.072.037.072.037.1l.05.012v.03l-.002.04v.039c0 .042 0 .042.014.083a.651.651 0 0 1 .022.186c0 .024.002.048.003.071h.025v.038h.025c0 .08 0 .157-.013.237v.037l.05.013.013.112h.025v.037h.025c.02.044.027.077.025.125h.024l.013.038h.05v.1h.025c.048.084.048.084.062.112h-.025l.025.062h-.025v.05h-.025v.037l-.029-.004-.033.004c-.022.03-.022.03-.038.063h-.024v.025l-.063.025v-.025l-.037.025.012.025h-.075l-.012-.025-.025.002a.34.34 0 0 1-.157-.052.452.452 0 0 0-.241-.047l-.042-.001c-.082-.002-.165-.002-.246-.002v.025h.025v.025h-.075v-.025h-.112v-.038a16.543 16.543 0 0 1-.05-.012v-.025h-.025v-.025l-.024-.01c-.03-.018-.038-.032-.05-.065h-.038l-.013.025-.075-.025v-.025h-.025l-.012-.025h-.075v-.025l-.023-.005a.98.98 0 0 1-.064-.02v-.025h-.038v-.025l-.2-.024.026-.013.012-.037a61.563 61.563 0 0 1-.037-.025h.025l-.002-.03c.002-.033.002-.033.026-.07.001-.043.001-.043-.004-.09 0-.017-.002-.033-.004-.05a2.005 2.005 0 0 0-.011-.094.83.83 0 0 1-.006-.14h-.025v-.05a2.356 2.356 0 0 0-.038-.038l-.006-.077c-.01-.06-.037-.112-.062-.167a.917.917 0 0 1-.044-.13h-.025l-.012-.062h-.025a.155.155 0 0 1-.025-.1 16.543 16.543 0 0 1-.05-.013v-.037l-.037-.013c-.017-.12-.017-.12-.013-.162l.025-.025c0-.025 0-.025-.004-.054l-.004-.03a.836.836 0 0 0-.012-.06c-.007-.04-.006-.078-.005-.118L14 3.06v-.025l-.025-.013.025-.05-.025-.012.013-.025c-.001-.034-.007-.066-.013-.1l-.025-.012c-.008-.032-.008-.032-.012-.063h-.025l-.018-.036c-.016-.04-.016-.04-.045-.05a.82.82 0 0 1-.007-.087c-.003-.031-.003-.031-.043-.051V2.51l.038.012.012-.025z" fill="#e3d7ba"/><path d="m13.776 5.48.075.001h.044l.093-.001c.072 0 .14 0 .212.013l.097.005c.066.004.129.011.193.026a.8.8 0 0 0 .108.01c.114.008.225.026.339.045l.109.017a5.976 5.976 0 0 1 .427.082c.079.017.158.035.237.055l.15.034c.175.039.35.08.523.127l.048.013.044.013.04.01c.03.011.03.011.055.036.007.103-.035.205-.067.3l-.016.048c-.038.113-.038.113-.066.127v-.025l-.034-.004c-.074-.01-.144-.034-.215-.055a9.998 9.998 0 0 0-.487-.128l-.05-.012c-.778-.187-1.583-.31-2.382-.2l-.046.006c-.922.13-1.784.518-2.532 1.064-.023.014-.023.014-.048.014v.025c-.017.015-.017.015-.04.032l-.025.019a5.536 5.536 0 0 0-.027.02l-.055.04a2.922 2.922 0 0 0-.154.122c-.023.017-.023.017-.048.017V7.4c-.056.05-.056.05-.088.05v.025l-.03.01c-.033.011-.033.011-.044.038a.206.206 0 0 1-.06.07l-.028.023-.058.046a.49.49 0 0 0-.064.066.899.899 0 0 1-.117.113c-.025.022-.025.022-.052.057l-.02.026h-.038l-.013.037c-.032.021-.032.021-.062.038-.016-.044-.014-.06.007-.103a1.18 1.18 0 0 1 .029-.045l.015-.025.05-.077.014-.023c.124-.192.258-.378.41-.55a18.584 18.584 0 0 1 .068-.078l.058-.068a1.58 1.58 0 0 1 .098-.104l.02-.02a2.08 2.08 0 0 1 .138-.129c.03-.025.057-.051.086-.078a4.45 4.45 0 0 1 1.115-.746 4.044 4.044 0 0 1 1.942-.475c.053 0 .075-.012.125 0z" fill="#e28b35"/><path d="m5.542 6.067.038.007c.396.083.79.228 1.147.417l.036.019a7.331 7.331 0 0 1 .597.346l.039.024.031.02.02.015v.025l.022.004c.056.017.103.056.15.089l.034.022.031.022.03.02.02.017v.025l.027.01c.041.018.07.041.104.07.042.037.085.073.13.107l.023.018.047.035c.053.04.053.04.067.074a.288.288 0 0 1-.011.085H8.06v.063h-.025l.02.034c.018.04.018.04.018.09a43.19 43.19 0 0 1-.075-.012v.1h.087v.137H8.06v.062C8.036 8 8.036 8 8.017 7.96c-.022-.041-.044-.056-.087-.077-.053-.027-.067-.047-.09-.102a.503.503 0 0 0-.086-.11l-.018-.02c-.033-.035-.033-.035-.074-.062v-.025l-.022-.01a.213.213 0 0 1-.063-.051c-.063-.065-.135-.117-.205-.171l-.086-.07a1.968 1.968 0 0 0-.231-.157 4.76 4.76 0 0 0-.415-.227l-.03-.015a3.671 3.671 0 0 0-1.56-.374h-.04l-.134-.001H4.83a5.862 5.862 0 0 0-1.043.09c-.482.07-.964.167-1.435.301a.23.23 0 0 1-.115.012c-.06-.07-.082-.159-.11-.245L2.11 6.6l-.015-.044-.013-.04a.174.174 0 0 1 .004-.1c1.058-.312 2.183-.586 3.456-.349z" fill="#fbb627"/><path d="M16.732 6.665c.043.029.044.035.056.082a.537.537 0 0 0 .01.036l.01.04a.262.262 0 0 1 .011.04l.035.131.024.09.066.255.01.034.045.175.01.041c.015.062.028.123.036.186h-.031a14.807 14.807 0 0 0-.373.002c-.097 0-.179.002-.26.06l-.022.013-.038-.013a3.206 3.206 0 0 0-.107-.001h-.032a25.437 25.437 0 0 0-.265 0 .922.922 0 0 0-.156.014c-.025-.012-.025-.012-.045-.03-.05-.043-.102-.047-.167-.047h-.353a158.17 158.17 0 0 0-.89-.001h-.039c-.132-.002-.132-.002-.247.054-.06.044-.138.029-.21.017a1.097 1.097 0 0 0-.145-.007h-.125a156.865 156.865 0 0 1-.449 0 517.304 517.304 0 0 0-1.649.001v-.025c.21-.14.53-.164.774-.207l.082-.016a8.648 8.648 0 0 1 1.078-.126l.03-.001a16.65 16.65 0 0 1 1.07-.025h.145a241.396 241.396 0 0 1 1.04 0h.153c.032.002.032.002.069.014.04 0 .081-.005.122-.01l.033-.002a.5.5 0 0 0 .182-.05l.03-.009c.026-.021.025-.034.03-.068l.002-.048.03-.007c.11-.025.195-.056.258-.155.062-.123.099-.257.14-.387.008-.025.008-.025.021-.05zM1.75 6.678c.037.031.048.062.063.108l.014.042.029.088c.048.16.048.16.16.278l.029.018a.834.834 0 0 0 .13.053l.002.042.01.045c.023.015.023.015.05.025l.023.013.024.013.024.013a.535.535 0 0 0 .2.025h.161a66.442 66.442 0 0 0 .321 0l.457-.002c1.422-.002 1.422-.002 1.82.03l.033.002c.187.014.372.036.557.063L6 7.552c.196.024.389.061.581.112a17.956 17.956 0 0 0 .254.063l.027.007.074.018c.04.011.08.023.12.037v.037l.037.013h-.048l-.602-.001h-.049c-.595 0-1.19.004-1.784.013-.066 0-.085-.006-.136-.047-.063-.038-.143-.03-.214-.029h-.233a134.446 134.446 0 0 0-.852.001h-.429a696.091 696.091 0 0 1-1.06.002h-.033a.998.998 0 0 1-.172-.014c-.017-.046-.008-.078.005-.125l.012-.046.014-.05.013-.052.037-.137.037-.137.082-.301.01-.04c.01-.032.018-.065.027-.097l.007-.027c.017-.059.017-.059.03-.073z" fill="#fbf2dd"/><path d="M6.578.403a2.561 2.561 0 0 1 .786.236v.025A2.306 2.306 0 0 1 7.167.6.607.607 0 0 0 7 .565a11.704 11.704 0 0 1-.037-.013 3.174 3.174 0 0 0-.06-.012A.716.716 0 0 1 6.8.514.567.567 0 0 0 6.628.49l.024.012-.007.021c-.006.034 0 .058.007.091L6.64.627l.03.006c.08.017.129.03.183.094.027.016.027.016.05.025v.025l.062.012v.025h.025V.84h.075l.01.024c.013.028.013.028.04.038V.94h.05c.02.022.02.022.038.05a.791.791 0 0 0 .036.05h.025v.05h-.037l.037.024a.228.228 0 0 1-.033.169c-.029.031-.064.042-.104.056a3.882 3.882 0 0 0-.035.02c-.027.017-.027.017-.052.017V1.4h-.212l-.025-.05a11.704 11.704 0 0 1-.038-.012c-.015-.032-.013-.054-.013-.09v-.06l.026.012v.025h.037l.013-.075h-.025a20.175 20.175 0 0 0-.013-.05h-.1v-.037l-.074.013v.05l.037.012-.025.012v.025h.038a.444.444 0 0 1 .074.113c-.001.044-.001.044-.012.075l-.025-.025.012-.025h-.024c-.05-.085-.05-.085-.05-.113a1.887 1.887 0 0 0-.395-.107 3.144 3.144 0 0 0-.596-.046h-.036a3.58 3.58 0 0 0-.537.036c-.05.008-.101.014-.152.02l-.08.01.025-.025h.05v-.025l.05-.012V.988l-.04.013a.317.317 0 0 1-.11.012l-.012-.05h-.162v.063l-.04.005a.786.786 0 0 0-.097.02v.025c-.034.016-.063.013-.1.012v.062l-.1-.012v.037c-.036.019-.066.013-.106.01-.015 0-.03 0-.044-.002l-.037-.008c-.014-.024-.014-.024-.025-.05-.024-.01-.024-.01-.051-.015l-.049-.01v-.024l-.062-.013-.013-.062h-.05V.926h.038V.9l-.137.025V.9C4.646.527 5.619.255 6.579.402z" fill="#fbf2de"/><path d="m11.143 7.813.023.009v.025l.047-.003a31.765 31.765 0 0 1 1.534-.025 129.395 129.395 0 0 0 .888 0c.076.001.15.004.226.015h.048c.039 0 .039 0 .064.013a.354.354 0 0 0 .012.213c-.047.046-.188.025-.252.025a21.081 21.081 0 0 1-.33 0 124.227 124.227 0 0 0-1.721.005h-.05a.162.162 0 0 0-.104.057c-.034.066-.027.138-.025.212l.038.012.012.087-.174-.037.025.037c.038.004.038.004.075 0l.012.063-.03-.008a1.505 1.505 0 0 0-.294-.042v.025a.929.929 0 0 1-.223.006 1.104 1.104 0 0 0-.239.006v.025h-.05v-.037h-.1V8.47l-.037-.013-.012-.025-.063-.02-.035-.01-.027-.007V8.37h-.037v-.025l-.113-.012a.204.204 0 0 1 .05-.088l.004-.025.01-.024c.02-.01.04-.018.062-.025l.025-.038h.025V8.11c.017-.02.017-.02.037-.037h.025v-.025h.025l.002-.04c.01-.047.01-.047.038-.077a.217.217 0 0 1 .097-.033l.015.035a.23.23 0 0 0 .11.103.27.27 0 0 0 .174-.038c.044-.038.082-.08.12-.123l.025-.026.02-.023c.022-.015.022-.015.05-.011zM4.769 8.387h.238a116.46 116.46 0 0 1 .763-.001h.093c.023.003.023.003.06.028v.05a.218.218 0 0 1-.124 0v.025h.05v.024h.075v.013h-.125v.025h.05v.025l.026.001c.078.006.14.018.211.049v.05H6.06l-.12.005-.042.002-.04.001-.037.002c-.032.001-.032.001-.056.009a.37.37 0 0 1-.088.007 37.347 37.347 0 0 0-.075 0h-.04a40.242 40.242 0 0 1-.296 0h-.039a.94.94 0 0 1-.174-.014 2.645 2.645 0 0 0-.09-.004h-.024L4.86 8.68l-.053-.001-.13-.004-.012.037-1.298.002h-.182a683.852 683.852 0 0 0-1.78.001h-.108c-.024-.003-.024-.003-.05-.028 0-.025 0-.025.005-.055l.003-.03c.005-.027.005-.027.018-.064l.037.012a.786.786 0 0 0 .051.002h1.248a337.515 337.515 0 0 1 1.443.001h.152c.101 0 .16-.02.237-.09l.027-.035c.077-.06.207-.042.302-.042z" fill="#f9b527"/><path d="M7.45 4.083a.555.555 0 0 1 .192.165.172.172 0 0 0 .056.048c.04.036.042.071.052.124h.025l-.013.038v-.025L7.74 4.42l-.052-.026v.025h.025l.013.125h.025v.025h.025c.015.036.025.06.025.1h.025c.018.037.014.071.012.112l-.012.025H7.8v.045a.833.833 0 0 1-.013.142l-.025-.013v-.075l-.025-.012-.012.137H7.65v-.05h-.025l.025.125.1-.012v-.038h.075v.038h.037a11.704 11.704 0 0 0-.012-.038h.037v.038l.087.012.013.037.025.013c.014.043.013.08.012.125h.05l.013.1h.025l.012.062h.025v.025h.025v.025l.05.012v.038h.062v-.038h.025V5.48c.123-.016.123-.016.187 0v.125h.088l.012.1h.025l.013.062h.037l.025.1h.087v.037H8.66v.025h-.024l.012.038.02-.026c.03-.024.03-.024.077-.021l.04.01v.037h-.05l-.012.05h-.038l-.012.037a9.66 9.66 0 0 0-.013-.037h-.037l-.005.036c-.007.039-.007.039-.032.064a.461.461 0 0 0 .1-.05h.05c.003-.009.008-.017.012-.025v.062h-.025l-.011.023c-.014.027-.014.027-.039.052a.264.264 0 0 1-.112-.013l-.013-.025c-.025-.014-.025-.014-.05-.024h.05v-.025l-.05-.025.05-.013V6.03h-.025l-.012-.087-.075-.025v-.025a43.19 43.19 0 0 1-.075-.012l.003.025.003.034.004.033a.668.668 0 0 1 .003.082l.012.025h-.037v-.025H8.31V6.03l-.029.002c-.033-.002-.033-.002-.07-.027V5.98h.037v-.025l-.029-.002-.037-.003-.038-.003c-.033-.004-.033-.004-.07-.017v-.025h-.026c-.025-.037-.025-.037-.025-.074a9.66 9.66 0 0 0-.037.012 7.39 7.39 0 0 1-.028-.03.27.27 0 0 0-.084-.057c-.02-.018-.02-.018-.038-.038l-.02-.017a.227.227 0 0 1-.042-.082H7.75V5.58h-.025v-.05a3.182 3.182 0 0 0-.02-.004.767.767 0 0 1-.117-.046v-.025l-.03-.01-.033-.015a9.66 9.66 0 0 0-.012-.037H7.45l.013.025a48.307 48.307 0 0 1-.087-.013c.01-.311.01-.311.018-.432.006-.095.01-.19.012-.285.013-.434.013-.434.044-.606z" fill="#e3d7ba"/><path d="M6.99 7.838a9.127 9.127 0 0 0 .272.005.36.36 0 0 0 .118-.014l.013.062-.038.013-.025.025V7.89l-.05.013v.025l.038.012-.012.025H7.28v.025l.1.025.012.075-.024.005-.026.008-.012.025v-.025h-.182l-.03.001c-.026-.001-.026-.001-.063-.014v.05H7.02v.137h-.025a5.482 5.482 0 0 0-.01-.028l-.014-.038-.013-.037c-.013-.036-.013-.036-.038-.071-.051-.017-.104-.015-.157-.014h-.029a31.95 31.95 0 0 0-.31 0 164.406 164.406 0 0 1-.724.001 677.275 677.275 0 0 1-1.063.002H4.61c-.06 0-.06 0-.089-.014l.007-.02c.008-.04.007-.079.007-.12a1763.335 1763.335 0 0 0-.001-.085c.044-.014.08-.014.126-.015h.027a27.378 27.378 0 0 1 .157-.002l.176-.002.11-.001c1.285-.014 1.285-.014 1.86.004zM5.542 6.067l.038.007a4.05 4.05 0 0 1 1.022.355l-.037.025-.068-.028c-.063-.019-.129-.012-.194-.01l.075.025v.025c-.142.031-.288-.033-.424-.075l-.042-.012c-.033-.013-.033-.013-.07-.038a.936.936 0 0 0-.063-.012v-.012c.09-.005.17.01.251.05.032.016.063.02.099.024v-.025l-.037-.01a12.88 12.88 0 0 0-.048-.012l-.047-.013c-.043-.014-.043-.014-.069-.034-.033-.025-.064-.026-.105-.031a.344.344 0 0 1-.131-.037 1.089 1.089 0 0 1-.252-.064.694.694 0 0 0-.227-.024h-.031l-.077.001.039.005c.049.007.049.007.092.02.047.013.092.02.14.026.087.01.087.01.128.024l.043.004c.049.01.064.02.094.058a.437.437 0 0 1-.19-.03.925.925 0 0 0-.214-.046L5.204 6.2c-.203-.017-.407-.014-.61-.016a52.807 52.807 0 0 1-.524-.005v.025c-.052.011-.104.02-.157.027l-.027.004-.058.009-.086.013a4.823 4.823 0 0 1-.283.035v.025l-.06.032-.034.018c-.031.012-.031.012-.068 0-.03.003-.059.008-.088.012a1.926 1.926 0 0 1-.109.008l-.028.002a.269.269 0 0 1-.112-.01v-.025c-.052.007-.052.007-.1.025-.034-.002-.066-.007-.1-.012v-.025l.087-.025c-.03-.016-.053-.014-.087-.013V6.28l.087-.012.013-.063c.4-.098.8-.17 1.21-.212l.044-.004a4.58 4.58 0 0 1 1.422.08zm10.616.274-.012.075h-.075l.025.012a2.426 2.426 0 0 1-.012.05.874.874 0 0 1-.375-.017l-.042-.008c-.102-.021-.102-.021-.145-.05a1.889 1.889 0 0 0-.103-.012.666.666 0 0 1-.184-.038l-.029-.01a13.039 13.039 0 0 1-.07-.027v-.025h-.031l-.116-.004-.074-.002a1.117 1.117 0 0 1-.423-.076c-.14-.058-.315-.03-.464-.024a8.995 8.995 0 0 1-.47.006 2.388 2.388 0 0 0-.358.02.68.68 0 0 1-.099.005c-.075 0-.15.01-.225.019l-.033.003-.029.004c-.024 0-.024 0-.049-.026l.138-.037c-.028 0-.028 0-.055.002-.03 0-.03 0-.058-.002l-.025-.025.03-.007.038-.01.039-.009.03-.011.013-.038c.034-.034.06-.033.108-.04l.025-.004.082-.012.03-.004c.063-.01.128-.019.192-.027l.039-.006c.92-.121 1.883.106 2.77.355z" fill="#f9b527"/><path d="M14.3 7.763h.277a154.577 154.577 0 0 1 .888-.001h.04c.098 0 .177.006.252.078.02.061.021.123.013.187-.023.043-.05.08-.098.094a.478.478 0 0 1-.091.008h-.128a52.603 52.603 0 0 1-.44 0 86.622 86.622 0 0 0-.766.002h-.042c-.07 0-.121-.002-.182-.042l-.029-.016c-.03-.03-.037-.054-.046-.096.003-.038.003-.038.012-.075l.008-.032a.218.218 0 0 1 .105-.092c.076-.015.15-.015.228-.015z" fill="#000002"/><path d="M10.632 7.838a.232.232 0 0 0 .125.137.439.439 0 0 0 .174-.025l.038.038v.025h.025v-.038l.037.013v.05l.025-.013c.04 0 .078 0 .117.002a.208.208 0 0 0 .12-.027c.03-.002.03-.002.06-.001h.03l.022.001v.025l.038.013c.016.061.013.123.012.187h.038l.012.075.038.012.012.087-.175-.037.025.037c.039.003.039.003.075 0l.013.063-.03-.008a1.505 1.505 0 0 0-.295-.042v.025a.929.929 0 0 1-.223.006 1.104 1.104 0 0 0-.238.006v.025h-.05v-.037h-.1v-.025l-.037-.013-.013-.025c-.029-.011-.029-.011-.063-.02l-.035-.01-.026-.007v-.025h-.038v-.025l-.112-.012a.204.204 0 0 1 .05-.088c0-.008.003-.016.004-.025l.009-.025.062-.025.025-.037h.025V8.05c.017-.02.017-.02.038-.037h.025v-.025h.025l.002-.04c.01-.048.01-.048.04-.077a.165.165 0 0 1 .094-.033z" fill="#f9b527"/><path d="M4.769 8.387h.238a116.46 116.46 0 0 1 .763-.001h.093c.023.003.023.003.06.028v.05a.218.218 0 0 1-.124 0v.025h.05v.024h.075v.013h-.125v.025h.05v.025l.026.001c.078.006.14.018.211.049v.05H6.06l-.12.005-.042.002-.04.001-.037.002c-.032.001-.032.001-.056.009a.37.37 0 0 1-.088.007 37.347 37.347 0 0 0-.075 0h-.04a40.242 40.242 0 0 1-.296 0h-.039a.94.94 0 0 1-.174-.014 2.645 2.645 0 0 0-.09-.004h-.024L4.86 8.68l-.053-.001-.13-.004V8.7a22.26 22.26 0 0 1-.31.004h-.026c-.024 0-.024 0-.064-.004l-.024-.038c-.039-.009-.039-.009-.075-.012v-.025h.087V8.59H4.14l.013-.038.027.001c.113.002.175-.01.26-.088l.027-.034c.076-.062.207-.043.302-.043z" fill="#fbb627"/><path d="m14.749 8.55.03-.001a42.16 42.16 0 0 1 .383 0h.17a496.45 496.45 0 0 1 1.646-.001h.129c.086 0 .086 0 .122.028.015.043.014.079.013.124a1.156 1.156 0 0 1-.2.014H16.9a208.165 208.165 0 0 0-.294 0h-.223a695.549 695.549 0 0 1-1.899-.001V8.7l.113-.012-.025-.025.037-.012-.012-.025.037-.038-.025-.025c.046-.015.09-.014.137-.014z" fill="#f9b527"/><path d="M16.732 6.665c.043.029.044.035.056.082a.537.537 0 0 0 .01.036l.01.04a.262.262 0 0 1 .011.04l.035.131.024.09.066.255.01.034.045.175.01.041c.015.063.026.122.036.186h-.574l.025-.05a.902.902 0 0 1 .075-.01.166.166 0 0 0 .075-.027l-.013-.024c-.02-.043-.012-.091-.012-.138h-.05l.012.15h-.075a.645.645 0 0 1-.055-.184.294.294 0 0 0-.032-.079l-.025.013a.088.088 0 0 1-.005-.073c.009-.022.02-.043.03-.065h.025l.012-.037-.025-.025.034-.02c.155-.105.19-.325.244-.492.008-.024.008-.024.021-.05z" fill="#faf1de"/><path d="m11.143 7.813.023.008v.025l.026-.001.116-.006.04-.002.04-.002.036-.001c.029 0 .029 0 .054.012l-.013.038-.087.012a.494.494 0 0 0-.013.125l.084-.01.047-.006a.291.291 0 0 0 .106-.046c.033-.006.033-.006.064-.008a.347.347 0 0 0 .099-.017l.037-.013h-.187l.012-.025c.034-.005.034-.005.075-.007.052-.002.052-.002.1-.018a.533.533 0 0 1 .187.025v.025l.025.013-.012.012h.041a7.538 7.538 0 0 1 .396.007l.036.002.033.001a.778.778 0 0 1 .093.015l.053.004.03.001.03.001.058.003.027.001a.418.418 0 0 1 .055.009c.045.008.089.007.134.006a150.662 150.662 0 0 1 .152-.001c.212-.003.212-.003.31.026v.05l-.221.004-.085.002c-.211.004-.423.007-.634.008l-.243.001a53.09 53.09 0 0 1-.571.003h-.03a.186.186 0 0 0-.112.03.175.175 0 0 0-.049.098l-.009.038-.006.028h-.037l-.005-.04-.006-.053-.003-.027a1.39 1.39 0 0 0-.011-.067l-.025-.013v-.025a3.076 3.076 0 0 0-.052.005l-.03.003c-.03.004-.03.004-.059.018-.046.016-.09.014-.137.013h-.028l-.068-.001c0-.008-.003-.016-.005-.024l-.008-.026-.025-.013v.038h-.025c-.02-.025-.02-.025-.037-.05.025-.055.062-.092.104-.135l.022-.023.022-.021.019-.02c.02-.013.02-.013.047-.009z" fill="#fbb627"/><path d="M4.756 6.94v.05l.036.005c.039.007.039.007.064.02v.025h.05l.012.074.15.025v.038h.037v.1l.024-.001h.03l.03-.002c.029.003.029.003.066.028v.025h.025v.025l.025.012h-.05v.025h.025v.025l.03.002c.076.005.146.014.22.035v.025l.162.013v.025a25.46 25.46 0 0 1-.258-.02 12.397 12.397 0 0 0-.806-.04h-.093a.84.84 0 0 1-.153-.015L4.37 7.4l-.187-.012v-.013h.2a11.704 11.704 0 0 0-.013-.037c-.204-.016-.407-.03-.612-.037a9.66 9.66 0 0 0 .038-.013l.012-.037.023.002c.15.016.29.018.436-.013.095-.02.19-.022.288-.026a2.15 2.15 0 0 0 .163-.013l.013-.05.087-.013.025-.087h-.05l-.012-.025a2.255 2.255 0 0 0-.088-.025l-.025-.012v-.038a.298.298 0 0 1 .088-.012z" fill="#e2d7ba"/><path d="m7.326 7.826.062.012-.012.062H7.35l-.025.025v-.037l-.05.012v.025l.038.013-.013.025h-.025v.025l.1.025.012.075-.024.004-.026.008-.012.025V8.1H7.21l-.034.001h-.062C7.09 8.1 7.09 8.1 7.053 8.088v.05h-.038v.137H6.99a5.482 5.482 0 0 0-.01-.029l-.013-.038-.013-.037c-.013-.036-.013-.036-.039-.07a.438.438 0 0 0-.13-.015h-.13a80.25 80.25 0 0 0-.476.002c.025-.025.025-.025.058-.027l.03.002v-.05l.08-.011.026-.003.135-.017.026-.003.074-.008a.46.46 0 0 0 .133-.045l.013-.025h-.038v-.025l.063.012v-.025l-.025-.025h.574v-.012z" fill="#fbb627"/><path d="m5.567 7.002.045.003.06.003.03.002c.059.004.118.005.177.004.04.001.075.013.113.026h.025v.024h.037v.025l-.037.013.062.025-.013-.063.05.025h-.025v.038h.05v-.025c.084-.022.136.001.212.037l.035.015c.1.045.195.095.29.147l.075.04c.045.025.087.052.13.083a.681.681 0 0 0 .066.041.512.512 0 0 1 .09.061v.025h.026l-.013.037h-.025l-.012-.012-.013.05-.037-.038v.038l-.05-.025v-.025H6.89l-.012-.025c-.03-.007-.03-.007-.064-.012a.473.473 0 0 1-.161-.05c-.014-.025-.014-.025-.025-.05a1.373 1.373 0 0 0-.063-.038l-.012-.025c-.029-.005-.029-.005-.062-.007-.06-.004-.06-.004-.088-.018v-.025l-.034-.01c-.04-.014-.04-.014-.064-.032-.058-.043-.128-.058-.197-.074a.195.195 0 0 1-.129-.083v-.025l-.032.002c-.136.004-.26-.02-.392-.052l.013-.05z" fill="#e2d7ba"/><path d="M15.946 7.826h.032a12.704 12.704 0 0 1 .235 0h.03a.34.34 0 0 1 .115.015l-.006.024a.46.46 0 0 0 .006.2h.025v.026h-.025v.025l-.599.012v-.025l-.037-.012.018-.026a.224.224 0 0 0 .021-.128v-.048l-.002-.036a.45.45 0 0 1 .188-.027z" fill="#f8b427"/><path d="M1.75 6.678c.04.032.05.067.065.115l.015.045.015.048.016.048.038.118-.025.025v.037h-.087l-.016-.042c-.016-.046-.016-.046-.049-.057H1.7l.001.038a.412.412 0 0 1-.026.136L1.65 7.2c-.014.03-.014.03-.027.063L1.61 7.3a4.755 4.755 0 0 1-.01.027h-.012a.632.632 0 0 1 .032-.216l.01-.036.02-.076.033-.117.02-.073.01-.036.009-.032.008-.029c.007-.021.007-.021.02-.034z" fill="#faf1de"/><path d="m6.166 7.401.012.025h.05v-.025l.06-.002.033-.001c.037.004.054.016.082.04l-.025.013v.025l.022.005c.028.008.028.008.065.033L6.49 7.5c.033.016.033.016.063.038v.025l.037.024h-.025v.025l.087.013-.012.037-.032-.008-.041-.011-.042-.011c-.034-.01-.034-.01-.06.005l-.025-.025.013-.025h-.038l-.024-.062-.073-.006-.04-.004c-.037-.003-.037-.003-.075-.002v.037l.1.025v.013a1.066 1.066 0 0 1-.287-.025V7.5l.05.038.013-.063h.037v-.05h.05V7.4z" fill="#e2d7ba"/><path d="m13.489 2.05.112.012.005.031a2.68 2.68 0 0 0 .038.176l.033.134c.01.043.013.078.011.121l-.037.013-.013-.013-.012.237H13.6l-.013.025c-.026-.04-.027-.053-.025-.1h-.025c-.02-.015-.02-.015-.037-.037v-.05h-.025V2.56h-.025c.005-.024.005-.024.013-.05l.025-.012v.025h.087l-.013-.112h.038v-.187h-.025l-.013-.113h-.037v-.025l-.038-.012V2.05z" fill="#faf1de"/><path d="m7.176 7.638.017.015.022.019.024.02c.022.02.045.037.067.056l.032.028V7.8h.025v.025c-.033.033-.058.028-.104.028h-.061a.293.293 0 0 1-.146-.028l.012-.063.025-.012-.012-.025.023.006c.026.007.026.007.052.006l-.038-.025a9.66 9.66 0 0 1 .013-.037h.025l.025-.038z" fill="#e2d6b8"/><path d="M15.185 6.054h.025l.025.025c.03.005.03.005.066.006a.463.463 0 0 1 .147.031v.025h.1v.013l.036.008.048.01.047.01.093.022v.025h.05v.025c-.18-.03-.358-.074-.535-.116a2.848 2.848 0 0 0-.1-.022v-.062z" fill="#e28c36"/><path d="M12.528 7.938h.02a18.71 18.71 0 0 0 .795.022h.06c.022.003.022.003.047.015l-.012.038L13.413 8a3.483 3.483 0 0 0-.112-.003l-.035-.001-.11-.002c-.271-.005-.271-.005-.405-.012l-.027-.001a1.104 1.104 0 0 1-.197-.03v-.013z" fill="#fcb727"/><path d="M4.644 8.387h.137l.013.037h-.05v.038h.224v.025h-.125v.025l-.02-.006c-.04-.01-.077-.012-.116-.016-.026-.003-.026-.003-.05-.016V8.45l.062.013v-.038H4.63l.013-.037z" fill="#f9b527"/><path d="m16.333 8.063-.025.05h-.337V8.1l.022-.001a.603.603 0 0 0 .18-.039c.064-.023.097-.026.16.003z" fill="#fcb727"/><path d="M6.702 6.49c.067.02.125.05.186.083l.03.016.072.039-.025.025c-.027-.005-.027-.005-.05-.013v-.025h-.05V6.59a8.57 8.57 0 0 1-.041.008c-.047.005-.047.005-.084-.02v-.05a11.704 11.704 0 0 1-.037-.012V6.49z" fill="#f9b528"/><path d="m17.194 8.562.036.015c.015.043.014.08.013.125l-.1-.038-.012-.1c.025-.012.025-.012.063-.002z" fill="#fcb727"/><path d="M8.71 7.975c.055.007.087.038.125.075a.298.298 0 0 1 .025.062l.025.038h-.05v-.025h-.024v-.037l-.024-.004c-.026-.009-.026-.009-.042-.035l-.01-.024h-.024v-.05z" fill="#fbb627"/><path d="m15.697 8.587-.025.074c-.072.002-.072.002-.1-.012v-.05l-.025-.025c.062-.035.09-.018.15.013zM9.696 7.938l.038.012V8h-.025l-.011.022-.039.078-.013-.025-.05.025a.094.094 0 0 0 .012-.022c.014-.027.014-.027.017-.052.014-.04.042-.06.071-.088z" fill="#fcb727"/><path d="m10.77 1.488.026.004v.063l-.074.012v.025l-.113.062v-.037h.038v-.025h.025v-.037c.05-.061.05-.061.097-.067zM3.783 5.106v.037a14.49 14.49 0 0 1-.065.007c-.013 0-.025.002-.037.003a1.09 1.09 0 0 1-.085.003l-.012.025h-.038l.013-.038h.037v-.025l.058-.006.033-.003a.988.988 0 0 1 .096-.003z" fill="#fcf3dd"/><path d="M4.656 8.487h.025v.037h.225v.025H4.78v.025a1.266 1.266 0 0 1-.125-.037zm-.136-.075.02.01v.037l.025.013a.155.155 0 0 1-.1.025v.025H4.44c-.01-.021-.01-.021-.012-.05.05-.063.05-.063.091-.06z" fill="#f9b528"/><path d="m12.353 7.838.046.002.11.005v.012a2.312 2.312 0 0 1-.424 0v-.012c.09-.015.177-.011.268-.007zm3.381-1.448c.067.008.134.016.2.026-.06.04-.104.039-.175.037l-.025-.062z" fill="#fcb727"/><path d="M8.511 8.824c.027.021.037.033.044.068l.002.034.003.034.001.026-.025-.038a7.148 7.148 0 0 1-.032-.012l-.03-.013a9.66 9.66 0 0 0-.013-.037H8.5l.012-.062z" fill="#f9b528"/><path d="M4.831 2.935h.025l.004.028a.192.192 0 0 0 .046.085l.012.037a9.66 9.66 0 0 0-.037.013v-.025h-.037v-.025a9.66 9.66 0 0 1-.038-.013l.025-.1z" fill="#fcf3dd"/><path d="M13.975 6.116v.025c-.04.02-.083.014-.126.014h-.028l-.07-.001-.013-.025.084-.006.047-.004c.036-.002.07-.003.106-.002z" fill="#fcb727"/><path d="M12.39 3.335a5.267 5.267 0 0 0-.023.017c-.025.018-.025.018-.039.032l.013.025-.087.013.012-.038-.025-.025c.049-.032.093-.026.15-.024z" fill="#fcf3dd"/><path d="m3.933 6.017-.025.012v.025l.05.013h-.114c-.036 0-.036 0-.06-.013V6.03a.567.567 0 0 1 .149-.012z" fill="#fbb627"/><path d="M4.07.952a4.503 4.503 0 0 1 .115.006l.035.006.025.038h-.15V.977H4.07zM10.57 6.079l.037.013-.025.05.025.012c-.014.037-.021.048-.058.065l-.03.01.013-.03c.014-.03.014-.03.013-.058a1.91 1.91 0 0 1 .025-.062zm.212-1.697.012.063h-.037c-.028.03-.028.03-.05.062l-.025-.012c.016-.05.04-.113.1-.113z" fill="#fcf3dd"/><path d="M16.32 7.988v.037l-.04-.008a.177.177 0 0 0-.11.02c-.028-.004-.028-.004-.05-.012a.343.343 0 0 1 .2-.037z" fill="#fcb727"/><path d="m10.258 2.087-.024.01c-.028.013-.028.013-.039.04-.012.025-.012.025-.039.034l-.023.003V2.15h.025v-.062c.04-.01.059-.014.1 0zM4.107 1.014l.08.011.043.006c.04.008.04.008.077.033h-.15v-.025l-.05-.025z" fill="#fcf3dd"/><path d="m3.583 6.067-.05.012.013.037a3.65 3.65 0 0 1-.055.002h-.03c-.027-.001-.027-.001-.052-.027a.521.521 0 0 1 .174-.024z" fill="#fbb627"/><path d="M7.538 8.038c.05.007.092.017.137.037V8.1c-.08-.006-.08-.006-.117-.038l-.02-.024z" fill="#fcb727"/><path d="M24.829 4.67q0 .297-.212.508-.212.212-.508.212h-1.54q-.34 0-.526.246-.144.22-.288.448-.194.246-.533.246-.296 0-.508-.212-.212-.212-.212-.508 0-.118.043-.245.211-.627.779-1.016.575-.398 1.244-.398h1.541q.296 0 .508.211.212.212.212.508zm-.009 1.922q0 .127-.042.246-.22.626-.787 1.024-.56.39-1.228.39h-1.541q-.296 0-.508-.212-.212-.212-.212-.508 0-.296.212-.508.212-.212.508-.212h1.54q.467 0 .661-.465.195-.474.678-.474.296 0 .508.211.211.212.211.508zm4.682.94q0 .296-.211.508-.212.212-.508.212-.305 0-.517-.212-.203-.212-.203-.508v-1.44q0-.296-.212-.499-.203-.211-.49-.211-.289 0-.5.211-.212.212-.212.5v1.44q0 .295-.212.507-.211.212-.508.212-.304 0-.516-.212-.203-.212-.203-.508v-4.31q0-.296.203-.507.212-.212.516-.212.297 0 .508.212.212.211.212.508v.838q.356-.119.711-.119.88 0 1.507.635.635.627.635 1.516zm4.682 0q0 .296-.211.508-.212.212-.508.212H32.05q-.89 0-1.524-.627-.627-.635-.627-1.524t.627-1.515q.635-.635 1.524-.635.753 0 1.33.465.583.466.761 1.203.017.05.017.16 0 .297-.212.508-.211.212-.508.212-.541 0-.71-.55-.162-.55-.678-.55-.296 0-.508.211-.203.203-.203.491t.203.5q.212.211.508.211h1.414q.296 0 .508.212.211.212.211.508zm1.838 0q0 .296-.212.508-.212.212-.508.212-.296 0-.508-.212-.212-.212-.212-.508v-4.31q0-.296.212-.507.212-.212.508-.212.296 0 .508.212.212.211.212.508zM39.51 6.11q0 .296-.212.508-.211.211-.508.211h-.982v.703q0 .296-.211.508-.212.212-.508.212-.305 0-.517-.212-.203-.212-.203-.508v-2.87q0-.89.626-1.516.635-.635 1.524-.635h.271q.297 0 .508.212.212.212.212.508 0 .296-.212.508-.211.212-.508.212h-.27q-.297 0-.509.211-.203.204-.203.5v.728h.982q.297 0 .508.212.212.211.212.508z" aria-label="shelf" style="-inkscape-font-specification:'PicoBlack, Normal'" font-size="8.467" font-family="PicoBlack" fill="#06bcd6" stroke-width=".265"/></svg>