<svg id="catalog-icon" xmlns="http://www.w3.org/2000/svg" fill="currentColor" viewBox="0 0 1024 1024"><path d="M92.783 449.389h335.434c15.443 0 27.951-12.528 27.951-27.951V86.013c0-15.425-12.508-27.954-27.951-27.954H92.783c-15.432 0-27.954 12.529-27.954 27.954v335.425c0 15.423 12.522 27.951 27.954 27.951m27.954-335.427h279.528v279.524H120.737ZM93.277 952.93h335.434c15.443 0 27.952-12.528 27.952-27.954V589.553c0-15.425-12.509-27.954-27.952-27.954H93.277c-15.432 0-27.953 12.529-27.953 27.954v335.425c0 15.425 12.521 27.951 27.953 27.951m27.952-335.425h279.528v279.524H121.23Zm838.59-27.951c0-15.425-12.504-27.954-27.954-27.954H596.431c-15.425 0-27.958 12.529-27.958 27.954v335.425c0 15.425 12.533 27.953 27.958 27.953h335.434c15.45 0 27.954-12.528 27.954-27.953V589.553ZM903.91 897.028H624.378V617.504h279.533z"/><ellipse cx="765.051" cy="254.82" fill="none" stroke="currentColor" stroke-width="65" rx="163.392" ry="163.982"/></svg>