<svg width="0" height="0" class="hidden">
  <symbol id="litecoin" fill="none" xmlns="http://www.w3.org/2000/svg" viewBox="0 0 183 52">
    <path fill-rule="evenodd" clip-rule="evenodd" d="M25.7819 0C11.5442 0 0 11.5442 0 25.782C0 40.0198 11.5442 51.5639 25.7819 51.5639C40.02 51.5639 51.5642 40.0198 51.5642 25.782C51.5344 11.5442 40.02 0 25.7819 0ZM26.167 26.6108L23.5029 35.6685H37.8294C38.3327 35.6685 38.6582 36.1421 38.5399 36.6157L37.2967 40.9078C37.1781 41.3222 36.7934 41.6182 36.3494 41.6182H14.445L18.1451 29.0972L14.0602 30.37L14.9483 27.41L19.0629 26.1372L24.2724 8.55452C24.3909 8.14012 24.7757 7.84411 25.2197 7.84411H30.7551C31.258 7.84411 31.5838 8.31772 31.4653 8.79133L27.055 23.6507L31.1398 22.3779L30.2518 25.3676L26.167 26.6108Z" fill="#345D9D"></path>
    <path d="M66.4532 7.81451H64.8546C64.5586 7.81451 64.3514 7.99212 64.2921 8.28812L60.148 41.115C60.1185 41.4406 60.2073 41.5886 60.5331 41.5886H62.1313C62.4571 41.5886 62.6346 41.4406 62.6938 41.115L66.8674 8.28812C66.9561 7.96251 66.7787 7.81451 66.4532 7.81451Z" fill="#345D9D"></path>
    <path d="M73.2318 17.2866H74.8301C75.1558 17.2866 75.2741 17.4642 75.2446 17.7899L72.314 41.1446C72.2548 41.4702 72.0478 41.6182 71.7518 41.6182H70.1532C69.8572 41.6182 69.6797 41.4702 69.7092 41.1446L72.6693 17.7603C72.7285 17.4347 72.9358 17.2866 73.2318 17.2866Z" fill="#345D9D"></path>
    <path fill-rule="evenodd" clip-rule="evenodd" d="M144.865 16.9018C142.645 16.9018 140.721 17.5235 139.093 18.7963C137.465 20.0691 136.399 21.7267 135.866 23.7987C135.422 25.486 135.037 27.854 134.86 29.4524L134.818 29.8372L134.817 29.8439C134.599 31.8299 134.416 33.4941 134.416 35.1061C134.445 37.2077 135.126 38.8654 136.399 40.1382C137.701 41.3814 139.477 42.0326 141.727 42.0326C143.918 42.0326 145.842 41.411 147.47 40.1382C149.098 38.895 150.163 37.2077 150.696 35.1061C151.051 33.7149 151.407 31.8501 151.703 29.4524C151.999 26.966 152.147 25.0716 152.147 23.7691C152.147 21.6971 151.495 20.0395 150.193 18.7963C148.861 17.5235 147.085 16.9018 144.865 16.9018ZM149.364 27.1732C149.216 28.3572 149.127 29.1268 149.098 29.4524C148.802 31.8797 148.535 33.5965 148.299 34.6325C147.943 36.1717 147.174 37.4149 146.019 38.3622C144.865 39.3094 143.503 39.7534 141.993 39.7534C140.454 39.7534 139.241 39.2798 138.323 38.3622C137.405 37.4445 136.961 36.2309 136.961 34.7213C136.961 33.9221 137.05 32.9157 137.198 31.7317C137.346 30.5476 137.435 29.778 137.465 29.4524C137.761 27.1436 138.027 25.4268 138.264 24.2724C138.619 22.7331 139.389 21.4899 140.543 20.5427C141.697 19.5955 143.059 19.1515 144.569 19.1515C146.108 19.1515 147.322 19.6251 148.239 20.5131C149.157 21.4307 149.601 22.6443 149.601 24.154C149.601 25.0124 149.512 25.9892 149.364 27.1732Z" fill="#345D9D"></path>
    <path d="M159.695 17.2866H161.264C161.589 17.2866 161.708 17.4642 161.678 17.7899L158.748 41.1446C158.688 41.4702 158.481 41.6182 158.185 41.6182H156.587C156.291 41.6182 156.113 41.4702 156.143 41.1446L159.132 17.7603C159.192 17.4643 159.399 17.2866 159.695 17.2866Z" fill="#345D9D"></path>
    <path d="M181.451 18.6779C180.356 17.5235 178.817 16.961 176.804 16.961C175.501 16.961 174.317 17.1979 173.222 17.7011C172.127 18.2043 171.209 18.9443 170.44 19.9507C170.292 20.0691 170.232 20.0395 170.232 19.8619L170.469 17.7899C170.499 17.4939 170.38 17.3163 170.084 17.3163H168.486C168.19 17.3163 167.983 17.4939 167.924 17.7899L164.993 41.1446C164.964 41.4406 165.052 41.6182 165.378 41.6182H166.976C167.272 41.6182 167.48 41.4406 167.509 41.1446L169.64 24.3908C169.996 22.8219 170.736 21.5491 171.831 20.6315C172.926 19.7139 174.229 19.2403 175.768 19.2403C177.189 19.2403 178.313 19.6843 179.142 20.5723C179.971 21.4603 180.385 22.6443 180.385 24.154C180.385 24.598 180.356 24.9532 180.326 25.2196L178.284 41.1446C178.284 41.2926 178.284 41.3814 178.343 41.4702C178.432 41.559 178.55 41.6182 178.728 41.6182H180.326C180.622 41.6182 180.829 41.4702 180.859 41.1446L182.901 24.8348C182.961 24.1836 182.99 23.7099 182.99 23.3843C183.079 21.3715 182.546 19.8027 181.451 18.6779Z" fill="#345D9D"></path>
    <path d="M73.2318 8.67292C73.7053 7.69611 74.9188 7.3409 75.8661 7.84411C76.8428 8.34732 77.1981 9.53134 76.6951 10.5082C76.1919 11.4554 75.0078 11.8402 74.0606 11.337C73.1133 10.8338 72.7285 9.62014 73.2318 8.67292Z" fill="#345D9D"></path>
    <path d="M162.418 7.84411C161.471 7.3409 160.257 7.69611 159.784 8.67292C159.281 9.62014 159.665 10.8338 160.613 11.337C161.56 11.8402 162.773 11.4554 163.277 10.5082C163.75 9.53134 163.365 8.34732 162.418 7.84411Z" fill="#345D9D"></path>
    <path d="M118.254 18.7963C119.882 17.5531 121.806 16.9018 124.026 16.9018C126.276 16.9018 128.022 17.5235 129.354 18.7371C130.657 19.9803 131.308 21.6379 131.308 23.7099V24.2724C131.308 24.45 131.16 24.5684 131.012 24.5684H129.147C128.94 24.5684 128.762 24.3908 128.762 24.1836V24.154C128.762 22.6443 128.318 21.4307 127.401 20.5131C126.483 19.5955 125.24 19.1515 123.73 19.1515C122.221 19.1515 120.859 19.5955 119.705 20.5427C118.55 21.4899 117.781 22.7331 117.425 24.2724C117.189 25.4268 116.922 27.1436 116.626 29.4524C116.606 29.6679 116.548 30.1557 116.476 30.7527C116.44 31.0578 116.4 31.3913 116.36 31.7317C116.212 32.9157 116.123 33.9221 116.123 34.7213C116.123 36.2309 116.567 37.4445 117.485 38.3622C118.402 39.2798 119.616 39.7534 121.155 39.7534C122.665 39.7534 124.026 39.3094 125.181 38.3622C126.335 37.4149 127.105 36.1717 127.46 34.6325C127.46 34.6325 127.49 34.5733 127.49 34.5437C127.519 34.3661 127.667 34.3069 127.786 34.3069H129.769C129.887 34.3069 130.006 34.4253 129.976 34.5733C129.971 34.6036 129.965 34.6339 129.959 34.6643C129.952 34.6962 129.944 34.7282 129.936 34.7602L129.917 34.8384L129.896 34.9222C129.881 34.9835 129.868 35.0448 129.858 35.1061C129.325 37.2077 128.259 38.895 126.631 40.1382C125.003 41.411 123.079 42.0326 120.889 42.0326C118.639 42.0326 116.863 41.3814 115.561 40.1382C114.288 38.8654 113.607 37.2077 113.577 35.1061C113.577 33.4971 113.786 31.6021 113.983 29.811V29.805L114.021 29.4524C114.169 28.15 114.584 25.486 115.028 23.7987C115.561 21.7267 116.626 20.0691 118.254 18.7963Z" fill="#345D9D"></path>
    <path fill-rule="evenodd" clip-rule="evenodd" d="M107.953 18.7963C106.651 17.5531 104.875 16.9018 102.655 16.9018C100.435 16.9018 98.5105 17.5235 96.8825 18.7963C95.2544 20.0691 94.1889 21.7267 93.6562 23.7987C93.2347 25.4006 93.0263 26.8423 92.7025 29.0865L92.6496 29.4524C92.3241 31.8797 92.2056 33.3893 92.2056 35.1061C92.2351 37.2077 92.9162 38.8654 94.1889 40.1382C95.4912 41.3814 97.2672 42.0326 99.517 42.0326C101.707 42.0326 103.631 41.411 105.259 40.1382C106.887 38.895 107.953 37.2077 108.486 35.1061C108.501 35.0169 108.523 34.9276 108.545 34.8384C108.558 34.7883 108.571 34.7381 108.582 34.688C108.59 34.6498 108.598 34.6115 108.604 34.5733C108.634 34.4253 108.545 34.3069 108.397 34.3069H106.414C106.295 34.3069 106.147 34.3661 106.118 34.5437C106.118 34.5733 106.088 34.6325 106.088 34.6325C105.733 36.1717 104.963 37.4149 103.809 38.3622C102.655 39.3094 101.293 39.7534 99.7832 39.7534C98.2442 39.7534 97.0305 39.2798 96.113 38.3622C95.1952 37.4445 94.7512 36.2309 94.7512 34.7213C94.7512 34.0109 94.8104 33.1229 94.9289 32.1165L109.315 27.6468C109.611 27.558 109.729 27.41 109.788 27.0548C109.877 26.3148 109.936 25.042 109.936 23.7395C109.907 21.8747 109.255 20.0395 107.953 18.7963ZM107.391 25.5156C107.391 25.6636 107.302 25.782 107.154 25.8116L95.2249 29.5116V29.4524C95.5209 27.1436 95.7872 25.4268 96.0242 24.2724C96.3792 22.7331 97.149 21.4899 98.3032 20.5427C99.4578 19.5955 100.819 19.1515 102.329 19.1515C103.868 19.1515 105.082 19.6251 105.999 20.5131C107.45 22.0227 107.479 23.5619 107.391 25.5156Z" fill="#345D9D"></path>
    <path d="M87.2918 39.4278C87.351 39.1022 87.0255 38.895 86.7295 39.043C85.723 39.5166 83.7695 39.9902 82.7629 39.1614C82.0319 38.4583 82.1825 37.1941 82.3513 35.7749L82.3782 35.5501L84.1247 21.4899H89.0976C89.2158 21.4899 89.3936 21.4603 89.4823 21.3715C89.5711 21.2531 89.6008 21.1643 89.6303 20.9867L89.7783 19.8619C89.7783 19.5659 89.6598 19.3883 89.3638 19.3883H84.3615L85.279 11.633C85.3382 11.3666 85.2495 11.1594 84.8942 11.1594H83.355C83.0295 11.1594 82.8222 11.3074 82.7927 11.633L82.0822 17.0795L81.7862 19.5363L79.6847 36.6749C79.4181 38.9246 79.8916 40.7302 81.7269 41.559C83.3255 42.2694 85.3088 42.0326 86.7295 41.4998C86.907 41.411 87.055 41.2334 87.0848 41.0262L87.2918 39.4278Z" fill="#345D9D"></path>
    <path d="M26.167 26.6108L23.5029 35.6685H37.8294C38.3327 35.6685 38.6582 36.1421 38.5399 36.6157L37.2967 40.9078C37.1781 41.3222 36.7934 41.6182 36.3494 41.6182H14.445L18.1451 29.0972L14.0602 30.37L14.9483 27.41L19.0629 26.1372L24.2724 8.55452C24.3909 8.14012 24.7757 7.84411 25.2197 7.84411H30.7551C31.258 7.84411 31.5838 8.31772 31.4653 8.79133L27.055 23.6507L31.1398 22.3779L30.2518 25.3676L26.167 26.6108Z" fill="white"></path>
  </symbol>
  <symbol id="ripple" fill="none" xmlns="http://www.w3.org/2000/svg" viewBox="0 0 195 51">
    <path d="M37.007 31.1411C35.4374 30.2312 33.6669 29.9689 31.9128 29.9116C30.4415 29.8624 28.2488 28.9198 28.2488 26.223C28.2573 25.2516 28.6452 24.322 29.3299 23.6328C30.0145 22.9436 30.9414 22.5494 31.9128 22.5345C33.6669 22.473 35.4374 22.2107 37.007 21.305C38.4164 20.4889 39.5863 19.3163 40.3992 17.9051C41.2121 16.4938 41.6394 14.8935 41.6382 13.2649C41.637 11.6362 41.2073 10.0366 40.3923 8.62652C39.5773 7.21647 38.4056 6.04566 36.995 5.23165C35.5844 4.41764 33.9845 3.98908 32.3558 3.98901C30.7272 3.98894 29.1272 4.41735 27.7165 5.23123C26.3058 6.04511 25.1341 7.21582 24.3189 8.62579C23.5038 10.0358 23.074 11.6354 23.0726 13.264C23.0726 15.0632 23.712 16.7189 24.5316 18.2558C25.216 19.5468 25.5644 21.9443 23.2079 23.3009C22.3561 23.7748 21.3526 23.8961 20.4125 23.6387C19.4724 23.3812 18.6706 22.7656 18.1792 21.9239C17.257 20.4484 16.13 19.055 14.5849 18.1657C13.1737 17.3516 11.5731 16.9234 9.94394 16.9239C8.31479 16.9243 6.71445 17.3536 5.30373 18.1684C3.893 18.9833 2.72157 20.1551 1.90713 21.566C1.0927 22.977 0.66394 24.5775 0.66394 26.2066C0.66394 27.8358 1.0927 29.4363 1.90713 30.8472C2.72157 32.2582 3.893 33.43 5.30373 34.2448C6.71445 35.0597 8.31479 35.4889 9.94394 35.4894C11.5731 35.4899 13.1737 35.0616 14.5849 34.2476C16.1423 33.346 17.257 31.9648 18.1792 30.4894C18.9374 29.2599 20.8267 27.7353 23.2079 29.1124C24.0442 29.6134 24.6509 30.4223 24.8976 31.3655C25.1443 32.3087 25.0115 33.3111 24.5275 34.1575C23.7079 35.6943 23.0726 37.3501 23.0726 39.1493C23.0726 41.612 24.0509 43.9739 25.7923 45.7154C27.5337 47.4568 29.8955 48.4352 32.3583 48.4353C33.9883 48.4359 35.5897 48.0072 37.0015 47.1926C38.4133 46.3779 39.5857 45.2059 40.4009 43.7943C41.6326 41.6619 41.9671 39.1277 41.3308 36.7487C40.6944 34.3698 39.1393 32.3409 37.0074 31.1083L37.007 31.1411Z" fill="#008CFF"></path>
    <path d="M54.4181 12.112H60.8812V15.1611C61.7431 14.1126 62.8259 13.2674 64.0522 12.6857C65.2786 12.1041 66.6182 11.8004 67.9755 11.7964C68.8961 11.7619 69.8165 11.8683 70.705 12.112V19.489C70.705 19.489 69.8115 19.1734 67.6599 19.1734C63.9714 19.1734 61.5124 21.6325 61.5124 25.321V40.3825H54.4181V12.112ZM89.1517 12.112H95.6148V14.8456C97.8215 12.8974 100.659 11.8142 103.603 11.7964C110.697 11.7964 116.844 17.9439 116.844 26.2472C116.844 34.5505 110.697 40.698 103.603 40.698C100.892 40.7049 98.2734 39.7144 96.246 37.9152V50.5259H89.1517V12.112ZM109.75 26.2472C109.75 21.6243 106.701 18.5751 102.709 18.5751C98.7173 18.5751 95.6148 21.612 95.6148 26.2472C95.6148 30.8825 98.7132 33.907 102.713 33.907C106.713 33.907 109.75 30.8743 109.75 26.2472ZM122.045 12.112H128.508V14.8456C130.715 12.8984 133.553 11.8153 136.496 11.7964C143.59 11.7964 149.738 17.9439 149.738 26.2472C149.738 34.5505 143.59 40.698 136.496 40.698C133.786 40.7026 131.168 39.7124 129.139 37.9152V50.5259H122.045V12.112ZM142.648 26.2472C142.648 21.6243 139.598 18.5751 135.603 18.5751C131.607 18.5751 128.508 21.612 128.508 26.2472C128.508 30.8825 131.611 33.907 135.603 33.907C139.594 33.907 142.648 30.8743 142.648 26.2472ZM154.943 1.65705H162.037V40.3825H154.943V1.65705ZM167.238 26.2472C167.238 18.2636 173.701 11.7964 181.373 11.7964C188.779 11.7964 194.926 17.6325 194.926 26.2472C194.897 27.1832 194.791 28.1152 194.611 29.0341H174.91C175.541 31.7677 177.713 33.907 181.373 33.907C184.684 33.907 186 32.3866 186 32.3866H193.672C192.25 36.0751 187.836 40.6857 181.377 40.6857C173.701 40.698 167.238 34.2349 167.238 26.2472ZM188.139 24.0956C187.817 22.5361 186.967 21.1355 185.732 20.13C184.497 19.1244 182.953 18.5753 181.361 18.5753C179.768 18.5753 178.224 19.1244 176.99 20.13C175.755 21.1355 174.905 22.5361 174.582 24.0956H188.139ZM74.8443 4.70213C74.8447 3.63593 75.2683 2.61349 76.0223 1.85958C76.7762 1.10566 77.7986 0.681967 78.8648 0.681641C79.66 0.681641 80.4373 0.917438 81.0985 1.35922C81.7596 1.80099 82.275 2.42891 82.5793 3.16356C82.8836 3.89821 82.9632 4.70659 82.8081 5.48649C82.6529 6.26639 82.27 6.98277 81.7077 7.54505C81.1454 8.10732 80.4291 8.49024 79.6492 8.64537C78.8693 8.8005 78.0609 8.72088 77.3262 8.41658C76.5916 8.11228 75.9637 7.59696 75.5219 6.9358C75.0801 6.27463 74.8443 5.49731 74.8443 4.70213ZM75.3197 12.112H82.4263V40.3907H75.332L75.3197 12.112Z" fill="#000008"></path>
  </symbol>
  <symbol id="tether" fill="none" xmlns="http://www.w3.org/2000/svg" viewBox="0 0 203 44">
    <path d="M27.2818 21.4939C33.8098 21.4939 39.2661 20.3897 40.6014 18.9151C39.4691 17.6646 35.3732 16.6806 30.1735 16.4104V19.5254C29.2415 19.5739 28.2741 19.5994 27.2818 19.5994C26.2897 19.5994 25.3222 19.5739 24.3902 19.5254V16.4104C19.1905 16.6806 15.0947 17.6646 13.9624 18.9151C15.2977 20.3897 20.754 21.4939 27.2818 21.4939Z" fill="#009393"></path>
    <path fill-rule="evenodd" clip-rule="evenodd" d="M12.256 0H42.8307C43.5603 0 44.2343 0.385044 44.5981 1.00972L53.5058 16.3036C53.9678 17.0967 53.8305 18.0978 53.1716 18.741L28.653 42.674C27.8587 43.4492 26.5811 43.4492 25.7867 42.674L1.30122 18.7733C0.62701 18.1152 0.500762 17.085 0.996543 16.287L10.5182 0.960653C10.889 0.363764 11.547 0 12.256 0ZM38.883 6.82819V11.1194H30.1735V14.0947C36.2905 14.4126 40.8798 15.7184 40.914 17.2836L40.9137 20.5467C40.8796 22.1119 36.2905 23.4177 30.1735 23.7357V31.0372H24.3902V23.7357C18.2733 23.4177 13.6839 22.1119 13.6499 20.5467L13.65 17.2836C13.6841 15.7184 18.2733 14.4126 24.3902 14.0947V11.1194H15.6807V6.82819H38.883Z" fill="#009393"></path>
    <path d="M65.4414 8.29937L72.5091 7.51405V14.2874H78.6443V20.1772H72.46V29.3064C72.46 31.4661 73.3762 32.5459 75.2087 32.5459C76.3865 32.5459 77.3681 32.3495 78.1535 31.9569L79.7732 37.8466C78.1699 38.4684 76.4683 38.8284 74.6688 38.9264C71.8219 39.0574 69.5643 38.3865 67.8955 36.9141C66.2594 35.4089 65.4414 32.873 65.4414 29.3064V20.1772H61.1222V14.2874H65.4414V8.29937Z" fill="#009393"></path>
    <path fill-rule="evenodd" clip-rule="evenodd" d="M87.2799 28.5702H105.096C105.849 23.7601 105.08 20.0462 102.79 17.4285C100.532 14.8108 97.2597 13.502 92.9734 13.502C89.0468 13.502 85.9219 14.6636 83.5988 16.9868C81.2755 19.2773 80.114 22.2877 80.114 26.0178C80.114 29.9772 81.2919 33.1184 83.6479 35.4416C86.0364 37.7649 89.3904 38.9264 93.7095 38.9264C98.225 38.9264 101.694 37.7321 104.115 35.3434L100.139 30.9261C98.6667 32.2021 96.5727 32.8402 93.8568 32.8402C91.959 32.8402 90.4375 32.4476 89.2922 31.6622C88.147 30.8442 87.4761 29.8135 87.2799 28.5702ZM98.7649 23.4166H87.2799C87.6398 22.2058 88.327 21.257 89.3413 20.5698C90.3557 19.8825 91.5663 19.539 92.9734 19.539C94.544 19.539 95.8855 19.8825 96.998 20.5698C98.1106 21.2242 98.6994 22.1731 98.7649 23.4166Z" fill="#009393"></path>
    <path d="M110.989 8.29937L118.057 7.51405V14.2874H124.192V20.1772H118.007V29.3064C118.007 31.4661 118.924 32.5459 120.756 32.5459C121.934 32.5459 122.916 32.3495 123.701 31.9569L125.321 37.8466C123.717 38.4684 122.016 38.8284 120.216 38.9264C117.369 39.0574 115.112 38.3865 113.443 36.9141C111.807 35.4089 110.989 32.873 110.989 29.3064V20.1772H106.67V14.2874H110.989V8.29937Z" fill="#009393"></path>
    <path d="M135.088 4.02915H127.971V38.3865H135.038V26.116C135.038 24.2509 135.546 22.7949 136.56 21.7478C137.607 20.7007 138.9 20.1771 140.438 20.1771C141.844 20.1771 142.957 20.6352 143.775 21.5514C144.626 22.4675 145.051 23.7601 145.051 25.4289V38.3865H152.119V25.3798C152.119 17.6249 148.896 13.7474 142.45 13.7474C139.276 13.7474 136.822 14.8763 135.088 17.1341V4.02915Z" fill="#009393"></path>
    <path fill-rule="evenodd" clip-rule="evenodd" d="M179.838 28.5702H162.022C162.218 29.8135 162.889 30.8442 164.033 31.6622C165.179 32.4476 166.701 32.8402 168.599 32.8402C171.314 32.8402 173.409 32.2021 174.881 30.9261L178.857 35.3434C176.435 37.7321 172.967 38.9264 168.452 38.9264C164.132 38.9264 160.778 37.7649 158.39 35.4416C156.034 33.1184 154.856 29.9772 154.856 26.0178C154.856 22.2877 156.017 19.2773 158.341 16.9868C160.664 14.6636 163.788 13.502 167.716 13.502C172.002 13.502 175.273 14.8108 177.532 17.4285C179.821 20.0462 180.591 23.7601 179.838 28.5702ZM162.022 23.4166H173.507C173.442 22.1731 172.853 21.2242 171.74 20.5698C170.627 19.8825 169.285 19.539 167.716 19.539C166.308 19.539 165.097 19.8825 164.082 20.5698C163.069 21.257 162.382 22.2058 162.022 23.4166Z" fill="#009393"></path>
    <path d="M189.346 14.1891H182.769V38.3864H189.837V25.7725C189.837 24.0382 190.377 22.6803 191.457 21.6987C192.537 20.6843 193.878 20.1771 195.481 20.1771C196.922 20.1771 198.213 20.5861 199.358 21.4041L202.304 15.8088C200.635 14.3363 198.655 13.6001 196.365 13.6001C193.583 13.6001 191.424 14.6799 189.886 16.8395L189.346 14.1891Z" fill="#009393"></path>
  </symbol>
  <symbol id="bitpay" fill="none" xmlns="http://www.w3.org/2000/svg" viewBox="0 0 171 60" >
    <path d="M170.217 14.1046H161.396L156.291 35.6419L155.575 38.5971C155.082 38.7315 154.59 38.8658 154.097 38.9553C153.202 39.1344 152.262 39.224 151.276 39.224C150.157 39.224 149.262 39.0449 148.59 38.7315C147.963 38.418 147.47 37.9703 147.202 37.3434C146.933 36.7613 146.844 36.0449 146.888 35.2389C146.933 34.433 147.112 33.5374 147.336 32.6419L150.023 21.4479L151.769 14.015H142.769L138.694 31.2091C138.202 33.2688 137.933 35.2389 137.844 37.1195C137.754 39.0001 138.068 40.6121 138.694 42.0897C139.321 43.5225 140.441 44.6419 141.963 45.4927C143.485 46.3434 145.679 46.7464 148.456 46.7464C150.381 46.7464 152.082 46.5673 153.515 46.2538C153.56 46.2538 153.65 46.2091 153.694 46.2091C153.291 48.0001 152.485 49.4329 151.232 50.5524C149.933 51.6718 148.053 52.2538 145.545 52.2538C144.47 52.2538 143.485 52.2091 142.59 52.0747L140.844 59.3732C142.008 59.5076 143.306 59.5971 144.739 59.5971C147.426 59.5971 149.754 59.2837 151.769 58.7016C153.784 58.0747 155.485 57.1792 156.963 55.9255C158.396 54.6718 159.605 53.1046 160.59 51.2688C161.575 49.3882 162.336 47.1941 162.918 44.5971L169.008 18.9852L170.217 14.1046Z" fill="#2A3F90"></path>
    <path d="M133.276 32.5073C132.739 34.7461 132.56 37.0297 132.784 39.2685C133.008 41.5521 133.903 44.9999 134.754 46.7461H126.246C125.217 44.9999 125.261 44.1491 125.037 43.6118C123.918 44.5073 122.709 45.2685 121.366 45.8506C120.023 46.4327 118.545 46.7461 116.843 46.7461C114.873 46.7461 113.172 46.3879 111.784 45.7163C110.396 45.0446 109.231 44.1043 108.336 42.9402C107.44 41.776 106.814 40.4327 106.411 38.8655C106.008 37.2984 105.828 35.6417 105.828 33.8506C105.828 31.1193 106.321 28.567 107.261 26.1491C108.246 23.7312 109.59 21.6267 111.291 19.8357C112.993 18.0446 117.157 14.0596 123.963 14.0596C126.918 14.0596 130.858 14.0596 137.62 14.0596L133.276 32.5073ZM127.052 21.5372C122.933 21.5372 122.172 21.5372 120.47 22.3879C119.261 23.0148 118.276 23.9551 117.425 25.0297C116.575 26.1043 115.858 27.3581 115.366 28.7909C114.873 30.2237 114.605 31.7014 114.605 33.2237C114.605 35.1043 114.918 36.6267 115.545 37.7461C116.172 38.8655 117.336 39.4029 119.037 39.4029C119.933 39.4029 120.784 39.2237 121.5 38.8655C122.217 38.5073 123.023 37.9252 123.828 37.0745C123.918 36.0894 124.052 35.0596 124.231 33.9849C124.411 32.9103 124.634 31.8805 124.814 30.9849L127.052 21.5372Z" fill="#2A3F90"></path>
    <path d="M103.411 27.0447C103.411 29.9552 102.918 32.597 101.978 35.0149C101.038 37.4328 99.6943 39.4925 97.9928 41.2388C96.2913 42.985 94.2764 44.3283 91.9033 45.3134C89.5301 46.2985 86.9779 46.791 84.2018 46.791C82.8585 46.791 81.5152 46.6567 80.1272 46.4328L77.4406 57.2238H68.6197L78.8734 14.1492C80.351 14.1492 88.2316 14.1492 90.6495 14.1492C92.8883 14.1492 94.8137 14.5074 96.3809 15.1791C97.9928 15.8507 99.2913 16.791 100.366 17.9552C101.396 19.1194 102.157 20.5074 102.65 22.0746C103.187 23.597 103.411 25.2537 103.411 27.0447ZM81.7839 39.2686C82.4555 39.4477 83.3062 39.4925 84.2913 39.4925C85.8585 39.4925 87.2466 39.2238 88.5451 38.6418C89.7988 38.0597 90.9182 37.2537 91.8137 36.2238C92.7092 35.194 93.3809 33.9403 93.9182 32.5074C94.4107 31.0746 94.6794 29.4627 94.6794 27.7164C94.6794 26.0149 94.3212 24.5373 93.56 23.3731C92.7988 22.1641 91.5003 21.5373 89.6197 21.5373C88.3212 21.5373 86.1272 21.5373 86.1272 21.5373L81.7839 39.2686Z" fill="#2A3F90"></path>
    <path d="M63.2465 39.2687C62.1271 39.2687 61.2315 39.0896 60.5599 38.7761C59.933 38.4627 59.4405 38.0149 59.1718 37.3881C58.9032 36.806 58.8136 36.0896 58.8584 35.2836C58.9032 34.4776 59.0823 33.5821 59.3062 32.6866L61.9927 21.4926H72.0226L73.8584 14.0597H63.7838L66.1121 4.65674L56.7092 6.13435L50.7539 31.2985C50.2614 33.3582 49.9927 35.3284 49.9032 37.209C49.8136 39.0896 50.1271 40.7015 50.7539 42.1791C51.3808 43.612 52.5002 44.7314 54.0226 45.5821C55.545 46.4329 57.739 46.8358 60.5151 46.8358C62.4405 46.8358 64.142 46.6567 65.5748 46.3433C65.7092 46.2985 65.933 46.2538 66.0674 46.209L67.9032 38.5523C67.2763 38.7761 66.6495 38.9105 66.0674 39C65.1718 39.1791 64.2315 39.2687 63.2465 39.2687Z" fill="#2A3F90"></path>
    <path d="M40.8136 14.1044L33.0225 46.791H41.8434L49.5897 14.1044H40.8136Z" fill="#2A3F90"></path>
    <path d="M50.5299 10.3433L51.8732 4.65674H43.0523L41.709 10.3433H50.5299Z" fill="#2A3F90"></path>
    <path d="M21.2912 14.1493C23.1718 14.1493 24.8285 14.5075 26.2166 15.1791C27.6046 15.8507 28.724 16.7463 29.6643 17.9104C30.5599 19.0746 31.2315 20.4179 31.6793 21.9403C32.127 23.4627 32.3509 25.1194 32.3509 26.9104C32.3509 29.6418 31.8584 32.194 30.8285 34.6567C29.7987 37.0746 28.4554 39.2239 26.7091 41.0149C24.9629 42.806 22.9031 44.2388 20.53 45.2687C18.1569 46.2985 15.6046 46.8358 12.8285 46.8358C12.4703 46.8358 11.8434 46.8358 10.9479 46.791C10.0524 46.791 9.02255 46.7015 7.90315 46.5224C6.73897 46.3433 5.53001 46.1194 4.27628 45.806C2.97777 45.4925 1.76882 45.0448 0.649414 44.5075L10.9031 1.43284L20.0823 0L16.4554 15.2687C17.2614 14.9104 17.9778 14.6418 18.7837 14.4627C19.5449 14.2388 20.3957 14.1493 21.2912 14.1493ZM13.5897 39.4925C14.9778 39.4925 16.2763 39.1791 17.4852 38.4627C18.6942 37.791 19.7688 36.8955 20.6643 35.7761C21.5599 34.6567 22.2763 33.3582 22.7688 31.9701C23.2614 30.5373 23.53 29.0597 23.53 27.5373C23.53 25.6567 23.2166 24.1791 22.5897 23.1045C21.9628 22.0299 20.6643 21.5373 18.9628 21.5373C18.4255 21.5373 17.8434 21.5821 16.9479 21.806C16.0524 21.9851 15.2912 22.4328 14.5748 23.0597L10.724 39.3134C11.8882 39.4925 13.142 39.4925 13.5897 39.4925Z" fill="#2A3F90"></path>
  </symbol>
  <symbol id="binance" fill="none" xmlns="http://www.w3.org/2000/svg" viewBox="0 0 225 46">
    <path d="M10.2036 22.5779L5.09959 27.6775L0 22.5779L5.09959 17.4783L10.2036 22.5779ZM22.5776 10.195L31.3166 18.9384L36.4162 13.8389L22.5776 0.000244141L8.73901 13.8389L13.8386 18.9384L22.5776 10.195ZM40.06 17.4783L34.9604 22.5779L40.06 27.6775L45.1552 22.5779L40.06 17.4783ZM22.5776 34.9607L13.8386 26.2217L8.73901 31.3169L22.5776 45.1555L36.4162 31.3169L31.3166 26.2217L22.5776 34.9607ZM22.5776 27.6775L27.6772 22.5779L22.5776 17.4783L17.478 22.5779L22.5776 27.6775ZM76.3969 28.1671V28.0965C76.3969 24.7703 74.6323 23.1072 71.7605 22.0132C73.525 21.0206 75.0161 19.4634 75.0161 16.671V16.6004C75.0161 12.7095 71.9016 10.195 66.8417 10.195H55.3544V34.9607H67.1329C72.7221 34.9607 76.4057 32.6977 76.4057 28.1671H76.3969ZM69.6033 17.5797C69.6033 19.4193 68.0813 20.2001 65.6771 20.2001H60.6613V14.9726H66.0389C68.3372 14.9726 69.6121 15.8902 69.6121 17.518L69.6033 17.5797ZM70.984 27.4878C70.984 29.3273 69.5327 30.1743 67.1241 30.1743H60.6613V24.735H66.9564C69.7533 24.735 70.9929 25.7629 70.9929 27.426L70.984 27.4878ZM87.8445 34.9607V10.195H82.3787V34.9607H87.8445ZM117.132 34.9607V10.195H111.737V25.4453L100.135 10.195H95.1101V34.9607H100.488V19.2164L112.478 34.9607H117.132ZM147.31 34.9607L136.679 10.0186H131.654L121.045 34.9607H126.599L128.871 29.4067H139.343L141.606 34.9607H147.31ZM137.407 24.5939H130.807L134.098 16.5651L137.407 24.5939ZM173.28 34.9607V10.195H167.885V25.4453L156.279 10.195H151.259V34.9607H156.632V19.2164L168.626 34.9607H173.28ZM201.403 30.964L197.94 27.4613C195.995 29.2259 194.261 30.3596 191.429 30.3596C187.185 30.3596 184.247 26.8305 184.247 22.5779V22.5073C184.247 18.2635 187.256 14.7961 191.429 14.7961C193.904 14.7961 195.84 15.8549 197.764 17.5886L201.218 13.5918C198.919 11.3288 196.127 9.77153 191.455 9.77153C183.85 9.77153 178.543 15.5372 178.543 22.5646V22.6352C178.543 29.7464 183.956 35.371 191.244 35.371C196.012 35.3842 198.84 33.6858 201.385 30.964H201.403ZM224.651 34.9607V30.1082H211.188V24.8983H222.865V20.0457H211.188V15.0432H224.457V10.1906H205.775V34.9563L224.651 34.9607Z" fill="#F0B90B"></path>
  </symbol>
  <symbol id="coinbase" fill="none" xmlns="http://www.w3.org/2000/svg" viewBox="0 0 234 42">
    <path d="M47.0681 11.6399C38.6029 11.6399 31.9797 18.0672 31.9797 26.6892C31.9797 35.3112 38.4461 41.6994 47.0681 41.6994C55.7293 41.6994 62.2741 35.1937 62.2741 26.6501C62.3133 18.1064 55.8468 11.6399 47.0681 11.6399ZM47.1465 35.468C42.326 35.468 38.7989 31.7057 38.7989 26.6892C38.7989 21.5944 42.2868 17.8713 47.1073 17.8713C52.0061 17.8713 55.5333 21.6728 55.5333 26.6892C55.4941 31.7057 51.967 35.468 47.1465 35.468ZM64.1553 18.1848H68.3487V41.1115H75.0895V12.1886H64.1553V18.1848ZM15.0493 17.8321C18.5764 17.8321 21.3982 20.0268 22.4563 23.2404H29.589C28.2957 16.3037 22.5739 11.6007 15.1276 11.6007C6.62324 11.6399 0 18.0672 0 26.6892C0 35.3112 6.46648 41.6994 15.0884 41.6994C22.3779 41.6994 28.2174 36.9964 29.5107 30.0205H22.4563C21.4374 33.2733 18.6548 35.5072 15.0884 35.5072C10.1896 35.5072 6.78 31.7449 6.78 26.7284C6.78 21.5944 10.1504 17.8321 15.0493 17.8321ZM192.113 23.8675L187.175 23.1229C184.824 22.7702 183.138 21.9863 183.138 20.1444C183.138 18.1456 185.333 17.1267 188.312 17.1267C191.564 17.1267 193.642 18.5375 194.112 20.8106H200.618C199.873 15.0104 195.405 11.6007 188.508 11.6007C181.375 11.6007 176.672 15.2455 176.672 20.3795C176.672 25.3176 179.768 28.1393 185.999 29.0407L190.937 29.7853C193.367 30.138 194.7 31.0786 194.7 32.8814C194.7 35.1937 192.348 36.1343 189.095 36.1343C185.098 36.1343 182.864 34.5274 182.511 32.0584H175.888C176.515 37.7019 180.944 41.6602 189.017 41.6602C196.385 41.6602 201.245 38.2897 201.245 32.5287C201.205 27.3947 197.639 24.7297 192.113 23.8675ZM71.7191 0.274585C69.2501 0.274585 67.4081 2.07736 67.4081 4.5072C67.4081 6.97622 69.2501 8.73982 71.7191 8.73982C74.1881 8.73982 76.0301 6.93703 76.0301 4.5072C76.0301 2.07736 74.1881 0.274585 71.7191 0.274585ZM170.558 22.1039C170.558 15.8334 166.757 11.6399 158.644 11.6399C151.002 11.6399 146.73 15.5198 145.907 21.4377H152.57C152.922 19.1254 154.686 17.2442 158.527 17.2442C161.936 17.2442 163.621 18.7727 163.621 20.6147C163.621 23.0053 160.525 23.6324 156.724 24.0243C151.551 24.5729 145.163 26.3757 145.163 33.0774C145.163 38.2898 149.042 41.621 155.195 41.621C160.016 41.621 163.034 39.6222 164.562 36.4086C164.797 39.2695 166.913 41.1115 169.892 41.1115H173.811V35.1153H170.48L170.558 22.1039ZM163.935 29.3542C163.935 33.2341 160.565 36.0559 156.489 36.0559C153.981 36.0559 151.825 34.9977 151.825 32.7638C151.825 29.9029 155.235 29.1191 158.409 28.8055C161.427 28.5312 163.112 27.865 163.974 26.5717C163.935 26.5717 163.935 29.3542 163.935 29.3542ZM128.193 11.6399C124.431 11.6399 121.295 13.2076 119.062 15.8334V0.000244141H112.321V41.1115H118.944V37.31C121.178 40.0533 124.392 41.6602 128.193 41.6602C136.266 41.6602 142.38 35.272 142.38 26.6501C142.38 18.0281 136.149 11.6399 128.193 11.6399ZM127.174 35.468C122.354 35.468 118.826 31.7057 118.826 26.6892C118.826 21.6728 122.432 17.8713 127.252 17.8713C132.151 17.8713 135.561 21.6336 135.561 26.6892C135.522 31.7057 131.995 35.468 127.174 35.468ZM96.1741 11.6399C91.7848 11.6399 88.9239 13.4427 87.2387 15.9509V12.1886H80.5762V41.1115H87.317V25.3959C87.317 20.9674 90.1388 17.8321 94.293 17.8321C98.1729 17.8321 100.564 20.5755 100.564 24.5337V41.1115H107.304V24.0635C107.304 16.774 103.542 11.6399 96.1741 11.6399ZM233.303 25.7095C233.303 17.4402 227.228 11.6007 219.116 11.6007C210.454 11.6007 204.145 18.1064 204.145 26.6501C204.145 35.664 210.925 41.6602 219.233 41.6602C226.248 41.6602 231.735 37.5059 233.146 31.6665H226.131C225.112 34.2531 222.643 35.7031 219.351 35.7031C215.04 35.7031 211.787 32.999 211.042 28.3353H233.342L233.303 25.7095ZM211.395 23.4756C212.453 19.4389 215.51 17.4794 218.959 17.4794C222.76 17.4794 225.7 19.6741 226.366 23.4756H211.395Z" fill="#0052FF"></path>
  </symbol>
  <symbol id="crypto" fill="none" xmlns="http://www.w3.org/2000/svg" viewBox="0 0 233 45">
    <path d="M27.028 36.2154H24.2708L20.97 33.2178V31.6805L24.3873 28.4523V23.3409L28.8531 20.4585L33.9403 24.2632L27.028 36.2154ZM15.611 28.1448L16.1158 23.3409L14.446 19.0365H24.3096L22.6786 23.3409L23.1446 28.1448H19.339H15.611ZM17.8633 33.2178L14.5625 36.2539H11.7665L4.81533 24.2632L9.94132 20.4969L14.446 23.3409V28.4523L17.8633 31.6805V33.2178ZM11.7277 10.1588H26.9891L28.8143 17.8451H9.94132L11.7277 10.1588ZM19.3778 0.589355L0 11.6577V33.7943L19.3778 44.8625L38.7556 33.7943V11.6577L19.3778 0.589355Z" fill="#002E73"></path>
    <path d="M24.2709 36.2155H27.0281L33.9404 24.2633L28.8532 20.4586L24.3874 23.341V28.4524L20.9701 31.6806V33.2179L24.2709 36.2155Z" fill="white"></path>
    <path d="M16.1159 23.341L15.6111 28.1449H23.1447L22.6787 23.341L24.3097 19.0366H14.4461L16.1159 23.341Z" fill="white"></path>
    <path d="M14.5626 36.254L17.8634 33.2179V31.6806L14.4461 28.4524V23.341L9.94142 20.497L4.81543 24.2633L11.7666 36.254H14.5626Z" fill="white"></path>
    <path d="M26.9892 10.1589H11.7278L9.94142 17.8453H28.8144L26.9892 10.1589Z" fill="white"></path>
    <path d="M131.062 18.8828V27.2609C131.062 28.7597 131.839 29.3746 133.198 29.3746H134.751V32.8719H132.033C129.16 32.8719 127.101 31.6036 127.101 27.8758V18.8828H124.927V15.5392H127.101V10.8506H131.062V15.5392H134.751V18.8828H131.062Z" fill="#002E73"></path>
    <path d="M101.821 15.1549L93.0834 37.7527H89.0836L90.9864 32.9872L83.4916 15.1549H87.7244L92.8116 28.337L97.7045 15.1549H101.821Z" fill="#002E73"></path>
    <path d="M51.6094 24.1479C51.6094 29.0287 55.3762 32.9872 60.5022 32.9872C63.8419 32.9872 65.8224 31.6421 67.531 29.8358L65.1622 27.4915C63.9195 28.7213 62.5604 29.6052 60.6964 29.6052C57.6674 29.6052 55.5315 27.1456 55.5315 24.071C55.5315 21.0734 57.6285 18.6138 60.5022 18.6138C62.4827 18.6138 63.7642 19.4593 64.968 20.7275L67.4145 18.1142C65.8224 16.3847 63.803 15.1934 60.541 15.1934C55.415 15.1934 51.6094 19.2671 51.6094 24.1479Z" fill="#002E73"></path>
    <path d="M71.0649 32.9872H75.0259V26.1464C75.0259 21.6114 77.4336 19.3824 80.8897 19.3824H81.1227V15.2318C78.0937 15.0781 76.1132 16.8459 75.0259 19.3824V15.2318H71.0649V32.9872Z" fill="#002E73"></path>
    <path fill-rule="evenodd" clip-rule="evenodd" d="M108.539 29.9511C109.743 31.5268 111.529 32.9487 114.364 32.9487C118.48 32.9487 122.403 29.7205 122.403 24.0326C122.403 18.3447 118.442 15.1549 114.364 15.1549C111.607 15.1549 109.821 16.5769 108.539 18.3447V15.1549H104.578V37.7527H108.539V29.9511ZM108.461 24.071C108.461 20.7275 110.791 18.5753 113.471 18.5753C116.15 18.5753 118.403 20.6891 118.403 24.071C118.403 27.453 116.189 29.5668 113.471 29.5668C110.83 29.5668 108.461 27.4146 108.461 24.071Z" fill="#002E73"></path>
    <path fill-rule="evenodd" clip-rule="evenodd" d="M138.091 24.1479C138.091 29.0287 141.975 32.9872 147.217 32.9872C152.576 32.9872 156.459 28.9134 156.459 24.071C156.459 19.1518 152.576 15.1934 147.295 15.1934C142.013 15.1934 138.091 19.2287 138.091 24.1479ZM142.013 24.0326C142.013 21.035 144.033 18.5753 147.217 18.5753C150.324 18.5753 152.537 21.0734 152.459 24.1095C152.459 27.1071 150.44 29.5668 147.256 29.5668C144.188 29.5668 142.013 27.0687 142.013 24.0326Z" fill="#002E73"></path>
    <path fill-rule="evenodd" clip-rule="evenodd" d="M194.244 32.9872C189.002 32.9872 185.118 29.0287 185.118 24.1479C185.118 19.2287 189.04 15.1934 194.322 15.1934C199.603 15.1934 203.486 19.1518 203.486 24.071C203.486 28.9134 199.564 32.9872 194.244 32.9872ZM194.244 18.5753C191.06 18.5753 189.04 21.035 189.04 24.0326C189.04 27.0687 191.215 29.5668 194.283 29.5668C197.467 29.5668 199.487 27.1071 199.487 24.1095C199.525 21.0734 197.351 18.5753 194.244 18.5753Z" fill="#002E73"></path>
    <path d="M233 21.6883C233 17.4993 230.709 15.1549 226.942 15.1549C224.34 15.1549 222.515 16.3463 221.078 18.191C220.146 16.3847 218.437 15.1933 215.952 15.1933C213.311 15.1933 211.836 16.6153 210.709 18.1142V15.1933H206.748V32.9872H210.709V22.995C210.709 20.3432 212.224 18.7291 214.399 18.7291C216.573 18.7291 217.894 20.2279 217.894 22.8797V32.9872H221.855V22.9565C221.855 20.2279 223.408 18.7291 225.544 18.7291C227.757 18.7291 229.039 20.151 229.039 22.8797V32.9487H233V21.6883Z" fill="#002E73"></path>
    <path d="M159.915 29.1825L161.624 28.2217H161.857L163.605 29.1825L163.721 29.3746V31.3731L163.605 31.5652L161.857 32.526H161.624L159.915 31.5652L159.799 31.3731V29.3746L159.915 29.1825Z" fill="#002E73"></path>
    <path d="M166.983 23.9173C166.905 28.7982 170.595 32.8335 175.721 32.9488C179.099 33.0256 181.118 31.719 182.866 29.9127L180.536 27.5299C179.293 28.7597 177.895 29.6052 176.031 29.5668C173.002 29.5284 170.905 27.0303 170.983 23.9558C171.022 20.9197 173.158 18.5369 176.031 18.5754C178.012 18.6138 179.293 19.5361 180.458 20.8044L182.944 18.2295C181.39 16.4616 179.371 15.2318 176.109 15.1549C170.944 15.0396 167.061 19.0365 166.983 23.9173Z" fill="#002E73"></path>
  </symbol>
  <symbol  id="bitcoin" fill="none" xmlns="http://www.w3.org/2000/svg" viewBox="0 0 213 45">
    <path d="M43.9626 27.5492C40.9998 39.4329 28.9637 46.6651 17.0786 43.7016C5.19837 40.7389 -2.03388 28.702 0.930283 16.819C3.89167 4.93397 15.9279 -2.29896 27.8095 0.663813C39.6938 3.62658 46.9254 15.6648 43.9626 27.5492Z" fill="#F7931A"></path>
    <path d="M32.2231 19.0227C32.6647 16.0711 30.4173 14.4843 27.3443 13.4258L28.3412 9.42735L25.9073 8.82079L24.9368 12.7138C24.297 12.5544 23.6398 12.404 22.9868 12.2549L23.9642 8.33624L21.5318 7.72968L20.5342 11.7267C20.0046 11.6061 19.4847 11.4869 18.9801 11.3614L18.9828 11.3489L15.6263 10.5108L14.9789 13.1104C14.9789 13.1104 16.7847 13.5242 16.7465 13.5499C17.7323 13.7959 17.9104 14.4483 17.8806 14.9654L16.7452 19.5205C16.8131 19.5378 16.9011 19.5627 16.9982 19.6016C16.9171 19.5815 16.8304 19.5593 16.741 19.5378L15.1494 25.9188C15.0288 26.2182 14.7231 26.6674 14.034 26.4969C14.0583 26.5323 12.2649 26.0553 12.2649 26.0553L11.0567 28.8413L14.224 29.6309C14.8132 29.7785 15.3906 29.9331 15.9591 30.0787L14.9518 34.1229L17.3829 34.7294L18.3804 30.7282C19.0445 30.9085 19.6892 31.0749 20.32 31.2315L19.326 35.214L21.7598 35.8205L22.7671 31.784C26.9173 32.5694 30.0381 32.2526 31.3518 28.4989C32.4103 25.4765 31.2991 23.7331 29.1155 22.5962C30.7057 22.2295 31.9036 21.1835 32.2231 19.0227ZM26.6622 26.8206C25.9101 29.843 20.8212 28.2091 19.1714 27.7994L20.5079 22.4416C22.1577 22.8534 27.4483 23.6686 26.6622 26.8206ZM27.415 18.9791C26.7287 21.7283 22.4932 20.3315 21.1193 19.9891L22.331 15.1297C23.705 15.4721 28.1297 16.1113 27.415 18.9791Z" fill="white"></path>
    <path d="M65.2691 13.4244C67.068 13.4244 68.6221 13.7467 69.9281 14.3796C71.2404 15.0188 72.3232 15.8797 73.1918 16.9625C74.0486 18.0509 74.6863 19.3229 75.0981 20.7807C75.5071 22.2427 75.7123 23.8142 75.7123 25.4966C75.7123 28.0809 75.2388 30.5224 74.2829 32.8238C73.327 35.1287 72.03 37.1279 70.3801 38.8332C68.7317 40.5364 66.7851 41.8792 64.5405 42.8712C62.2994 43.8638 59.8627 44.3602 57.2466 44.3602C56.9083 44.3602 56.3135 44.3505 55.4734 44.3331C54.6332 44.3158 53.6675 44.2292 52.5861 44.0829C51.4978 43.9311 50.3471 43.7065 49.1319 43.4056C47.9174 43.1103 46.7639 42.6965 45.6776 42.171L55.3909 1.35771L64.0906 0.00942463L60.6128 14.4926C61.3573 14.1571 62.1074 13.8972 62.856 13.7079C63.6054 13.5214 64.4095 13.4244 65.2691 13.4244ZM57.9717 37.4586C59.2818 37.4586 60.5164 37.1363 61.6762 36.5034C62.8394 35.8698 63.8432 35.0144 64.684 33.9489C65.5249 32.8786 66.1904 31.6731 66.6756 30.3262C67.1608 28.9793 67.4062 27.5741 67.4062 26.1122C67.4062 24.3161 67.1061 22.9151 66.5079 21.9023C65.9096 20.8937 64.8025 20.3863 63.195 20.3863C62.6682 20.3863 61.9895 20.4868 61.1479 20.6663C60.3036 20.857 59.548 21.2528 58.8708 21.8482L55.1676 37.2292C55.3909 37.2687 55.5884 37.3061 55.7569 37.3414C55.9219 37.3796 56.1042 37.4066 56.2858 37.4253C56.4778 37.4468 56.6976 37.4579 56.9631 37.4579C57.2286 37.4579 57.5606 37.4586 57.9717 37.4586Z" fill="#4D4D4D"></path>
    <path d="M84.7365 43.5755H76.427L83.4443 14.0469H91.8106L84.7365 43.5755ZM88.78 10.4491C87.6202 10.4491 86.5686 10.1039 85.6356 9.4121C84.6949 8.72444 84.229 7.66591 84.229 6.23928C84.229 5.45457 84.3885 4.71838 84.7046 4.02379C85.0255 3.33058 85.4449 2.73373 85.9704 2.2263C86.4951 1.72303 87.1031 1.32097 87.7935 1.01804C88.4881 0.719961 89.2271 0.570921 90.0146 0.570921C91.1736 0.570921 92.2197 0.916141 93.1562 1.60796C94.0892 2.30325 94.5585 3.36178 94.5585 4.78078C94.5585 5.56826 94.3998 6.30722 94.0809 7.00043C93.7641 7.69363 93.3447 8.29049 92.8193 8.79791C92.2987 9.30188 91.6852 9.70255 90.9961 10.0027C90.3008 10.3056 89.5647 10.4491 88.78 10.4491Z" fill="#4D4D4D"></path>
    <path d="M99.0915 6.69126L107.795 5.34297L105.658 14.0469H114.978L113.295 20.8944H104.031L101.563 31.2232C101.335 32.0842 101.206 32.8883 101.17 33.6356C101.129 34.3863 101.224 35.031 101.449 35.5738C101.672 36.1179 102.074 36.5373 102.656 36.834C103.235 37.1356 104.065 37.2874 105.154 37.2874C106.05 37.2874 106.923 37.2021 107.768 37.033C108.607 36.8666 109.458 36.6351 110.319 36.3321L110.938 42.7346C109.815 43.1464 108.6 43.5006 107.289 43.7987C105.977 44.1009 104.424 44.2465 102.628 44.2465C100.047 44.2465 98.0454 43.8632 96.6195 43.0999C95.1956 42.3312 94.1891 41.2809 93.5867 39.9514C92.9926 38.6267 92.7271 37.0995 92.8013 35.379C92.8782 33.6543 93.1382 31.8415 93.5867 29.9324L99.0915 6.69126Z" fill="#4D4D4D"></path>
    <path d="M114.612 31.7875C114.612 29.2441 115.023 26.8456 115.846 24.6003C116.668 22.3529 117.851 20.3877 119.386 18.7011C120.916 17.0228 122.78 15.6933 124.974 14.7172C127.158 13.7467 129.603 13.2573 132.298 13.2573C133.984 13.2573 135.49 13.4168 136.816 13.7363C138.147 14.0587 139.351 14.4753 140.44 14.998L137.574 21.5141C136.826 21.2105 136.048 20.9429 135.245 20.7003C134.441 20.4528 133.459 20.3336 132.298 20.3336C129.525 20.3336 127.332 21.2895 125.7 23.1952C124.075 25.1022 123.256 27.6691 123.256 30.8891C123.256 32.7975 123.668 34.3405 124.494 35.5211C125.316 36.7016 126.835 37.2888 129.04 37.2888C130.128 37.2888 131.179 37.1751 132.185 36.9533C133.198 36.7286 134.093 36.4458 134.881 36.1117L135.502 42.7914C134.451 43.1991 133.292 43.5671 132.02 43.8895C130.746 44.2007 129.229 44.3623 127.471 44.3623C125.149 44.3623 123.184 44.0226 121.576 43.3536C119.968 42.6743 118.639 41.7724 117.592 40.63C116.54 39.4848 115.785 38.1476 115.317 36.6129C114.85 35.0795 114.612 33.4685 114.612 31.7875Z" fill="#4D4D4D"></path>
    <path d="M151.524 44.3609C149.54 44.3609 147.818 44.0586 146.357 43.4604C144.899 42.8622 143.693 42.0227 142.738 40.9343C141.782 39.8516 141.067 38.5684 140.577 37.0898C140.086 35.6119 139.851 33.9752 139.851 32.1819C139.851 29.9324 140.212 27.6837 140.942 25.4411C141.668 23.1938 142.746 21.1745 144.173 19.3797C145.588 17.5822 147.335 16.1126 149.391 14.9668C151.445 13.8285 153.807 13.2559 156.461 13.2559C158.408 13.2559 160.122 13.5589 161.603 14.1571C163.077 14.754 164.292 15.6004 165.252 16.6832C166.202 17.7715 166.923 19.0491 167.409 20.5298C167.897 22.0049 168.139 23.6457 168.139 25.4405C168.139 27.683 167.782 29.9317 167.075 32.1812C166.367 34.4196 165.317 36.4437 163.931 38.2426C162.547 40.0373 160.817 41.5062 158.739 42.6473C156.663 43.7883 154.256 44.3609 151.524 44.3609ZM155.677 20.3329C154.445 20.3329 153.356 20.6906 152.423 21.397C151.488 22.1117 150.702 23.0101 150.068 24.0935C149.427 25.1819 148.953 26.3687 148.632 27.6587C148.313 28.9516 148.157 30.1737 148.157 31.3348C148.157 33.2085 148.46 34.6677 149.054 35.718C149.656 36.7626 150.738 37.2881 152.311 37.2881C153.547 37.2881 154.631 36.9332 155.569 36.2191C156.499 35.51 157.286 34.6109 157.924 33.5253C158.56 32.4426 159.039 31.2523 159.36 29.9602C159.674 28.6715 159.835 27.4424 159.835 26.2834C159.835 24.4145 159.534 22.9518 158.934 21.903C158.335 20.8583 157.248 20.3329 155.677 20.3329Z" fill="#4D4D4D"></path>
    <path d="M177.196 43.5755H168.88L175.897 14.0469H184.267L177.196 43.5755ZM181.233 10.4491C180.074 10.4491 179.023 10.1039 178.092 9.4121C177.156 8.72444 176.686 7.66591 176.686 6.23928C176.686 5.45457 176.847 4.71838 177.164 4.02379C177.481 3.33058 177.903 2.73373 178.429 2.2263C178.951 1.72303 179.564 1.32097 180.253 1.01804C180.943 0.719961 181.682 0.570921 182.467 0.570921C183.629 0.570921 184.678 0.916141 185.613 1.60796C186.548 2.30325 187.02 3.36178 187.02 4.78078C187.02 5.56826 186.852 6.30722 186.538 7.00043C186.224 7.69363 185.802 8.29049 185.279 8.79791C184.752 9.30188 184.146 9.70255 183.456 10.0027C182.76 10.3056 182.022 10.4491 181.233 10.4491Z" fill="#4D4D4D"></path>
    <path d="M190.253 15.3924C190.883 15.208 191.588 14.9862 192.354 14.7449C193.122 14.5037 193.981 14.2791 194.941 14.0767C195.89 13.868 196.961 13.6989 198.139 13.5679C199.316 13.4341 200.658 13.3689 202.149 13.3689C206.532 13.3689 209.553 14.6451 211.221 17.1899C212.887 19.7347 213.176 23.2173 212.094 27.6317L208.272 43.5755H199.908L203.612 27.9672C203.838 26.9925 204.016 26.0505 204.147 25.1299C204.279 24.2176 204.271 23.4135 204.117 22.7175C203.969 22.0299 203.621 21.467 203.081 21.031C202.533 20.6019 201.704 20.3863 200.581 20.3863C199.497 20.3863 198.395 20.5027 197.27 20.7273L191.823 43.5748H183.456L190.253 15.3924Z" fill="#4D4D4D"></path>
  </symbol>
</svg>