<svg width="0" height="0" class="hidden">
  <symbol id="dinners-club" fill="none" xmlns="http://www.w3.org/2000/svg" viewBox="0 0 229 61" >
    <path d="M1.2663 31.0157C1.2663 15.0189 14.2336 2.05213 30.2308 2.05213C46.2276 2.05213 59.1949 15.0189 59.1949 31.0157C59.1949 47.0128 46.2276 59.9796 30.2308 59.9796C14.2336 59.9796 1.2663 47.0128 1.2663 31.0157Z" fill="white"></path>
    <path d="M47.7481 30.445C47.7347 23.027 43.0994 16.7029 36.5657 14.1973V46.6932C43.0994 44.1838 47.7347 37.8654 47.7481 30.445ZM24.1028 46.6856V14.1992C17.5767 16.7143 12.9466 23.0308 12.9299 30.445C12.9466 37.8578 17.5767 44.1762 24.1028 46.6856ZM30.3378 2.9793C15.1693 2.98502 2.87917 15.2765 2.87726 30.445C2.87917 45.6121 15.1693 57.9017 30.3378 57.9036C45.5068 57.9017 57.8003 45.6121 57.8041 30.445C57.8003 15.2765 45.5068 2.98502 30.3378 2.9793ZM30.2702 60.4977C13.6715 60.5749 0.00976562 47.1289 0.00976562 30.7584C0.00976562 12.8691 13.6715 0.494714 30.2702 0.498048H38.0507C54.4517 0.494714 69.4222 12.8615 69.4222 30.7584C69.4222 47.1213 54.4517 60.4977 38.0507 60.4977H30.2702Z" fill="#006699"></path>
    <path d="M189.251 30.5366H189.85C190.732 30.5366 191.361 30.5366 191.361 29.4955V12.0001C191.361 10.0222 190.92 9.89632 189.812 9.57965L189.694 9.54597V9.0421C190.95 8.633 192.271 8.07151 192.932 7.68908C193.017 7.64262 193.097 7.59785 193.17 7.55678L193.171 7.55597C193.392 7.43164 193.553 7.34142 193.622 7.34142C193.813 7.34142 193.873 7.53144 193.873 7.78481V29.4955C193.873 30.5366 194.567 30.5366 195.446 30.5366H195.98V31.3562C195.457 31.3562 194.924 31.3411 194.383 31.3258C193.824 31.31 193.255 31.2938 192.678 31.2938C191.657 31.2938 190.632 31.3204 189.58 31.3477L189.251 31.3562V30.5366Z" fill="#231F20"></path>
    <path d="M187.334 15.1055H188.12L187.806 10.6106C185.386 9.76339 182.938 8.94567 180.391 8.94567C174.23 8.94567 168.481 13.5667 168.481 20.0099C168.481 27.0807 173.129 31.8251 180.482 31.8251C182.556 31.8251 186.111 30.9798 187.432 30.1606L188.152 25.5701L187.432 25.3839C186.803 28.6857 184.224 30.8217 181.113 30.8217C176.278 30.8217 171.744 26.2635 171.744 19.9103C171.744 12.3713 176.994 9.95342 180.613 9.95342C184.129 9.95342 186.738 11.4303 187.334 15.1055Z" fill="#231F20"></path>
    <path d="M106.315 12.1536C105.494 12.1536 104.772 11.3978 104.772 10.5825C104.772 9.79524 105.526 9.06991 106.315 9.06991C107.129 9.06991 107.856 9.73143 107.856 10.5825C107.856 11.4302 107.163 12.1536 106.315 12.1536Z" fill="#231F20"></path>
    <path d="M102.95 30.5363H103.547C104.426 30.5363 105.054 30.5363 105.054 29.4953V20.9833C105.054 19.6577 104.624 19.4285 103.561 18.862L103.419 18.7863V18.2829C104.898 17.8396 106.657 17.2476 106.785 17.148C107.005 17.0256 107.191 16.9937 107.351 16.9937C107.506 16.9937 107.568 17.1799 107.568 17.4319V29.4953C107.568 30.5363 108.264 30.5363 109.139 30.5363H109.675V31.3555C109.148 31.3555 108.613 31.3404 108.072 31.3252L108.07 31.3252H108.069C107.513 31.3095 106.948 31.2936 106.375 31.2936C105.333 31.2936 104.291 31.3206 103.224 31.3484L102.95 31.3555V30.5363Z" fill="#231F20"></path>
    <path fill-rule="evenodd" clip-rule="evenodd" d="M83.0242 12.9044C83.0242 10.2688 81.7381 10.2531 80.4201 10.2371C80.3248 10.2359 80.2294 10.2348 80.1343 10.2326V9.42063C81.3574 9.47731 82.6147 9.47731 83.8415 9.47731C84.4081 9.47731 85.0621 9.46685 85.8083 9.45492C86.7992 9.43908 87.9526 9.42063 89.2798 9.42063C97.416 9.42063 101.848 14.8532 101.848 20.4191C101.848 23.5304 100.028 31.3552 88.9021 31.3552C88.0863 31.3552 87.3009 31.3395 86.5313 31.324H86.5303C85.7916 31.3092 85.0676 31.2947 84.3453 31.2947C83.1106 31.2947 81.8988 31.3194 80.6724 31.3443L80.1343 31.3552V30.5356L80.2091 30.5281C82.0393 30.3459 82.9317 30.2571 83.0242 28.1496V12.9044ZM86.1022 27.6457C86.1022 30.0679 87.8329 30.3479 89.3717 30.3479C96.1625 30.3479 98.3895 25.2273 98.3895 20.5429C98.3895 14.6689 94.62 10.426 88.5544 10.426C87.606 10.426 87.0339 10.4747 86.5711 10.5141C86.4048 10.5283 86.2527 10.5412 86.1022 10.5503V27.6457Z" fill="#231F20"></path>
    <path d="M110.84 19.1012C112.315 19.6951 112.661 20.0108 112.661 21.17V29.4963C112.661 30.5373 112.033 30.5373 111.156 30.5373H110.586V31.3546L110.948 31.3455C111.959 31.3201 112.971 31.2946 113.978 31.2946C114.549 31.2946 115.112 31.3098 115.671 31.3249C116.221 31.3398 116.769 31.3546 117.315 31.3546V30.5373H116.749C115.87 30.5373 115.173 30.5373 115.173 29.4963V20.1985C116.214 19.5055 117.815 18.6897 118.821 18.6897C120.615 18.6897 121.711 19.5674 121.711 21.3619V29.4963C121.711 30.5373 121.087 30.5373 120.205 30.5373H119.64V31.3546L120.002 31.3455C121.012 31.32 122.023 31.2946 123.035 31.2946C123.601 31.2946 124.161 31.3097 124.717 31.3248H124.718C125.268 31.3397 125.816 31.3546 126.365 31.3546V30.5373H125.799C124.922 30.5373 124.228 30.5373 124.228 29.4963V21.3919C124.228 18.9397 123.285 16.9928 120.615 16.9928C118.509 16.9928 116.968 18.0606 115.173 19.3512V17.3029C115.173 17.0552 115.081 16.9928 114.987 16.9928C113.538 17.6217 112.295 18.0264 111.006 18.4462L110.84 18.5002V19.1012Z" fill="#231F20"></path>
    <path fill-rule="evenodd" clip-rule="evenodd" d="M128.756 22.6831C128.69 22.965 128.69 23.4351 128.756 24.5038C128.94 27.4918 130.86 29.9421 133.373 29.9421C135.101 29.9421 136.458 28.9967 137.617 27.8356L138.057 28.2752C136.611 30.1921 134.822 31.8247 132.245 31.8247C127.245 31.8247 126.242 26.9865 126.242 24.9758C126.242 18.816 130.389 16.9934 132.585 16.9934C135.133 16.9934 137.871 18.5945 137.899 21.924C137.899 22.1178 137.899 22.3035 137.871 22.4935L137.584 22.6831H128.756ZM134.32 21.6739C135.101 21.6739 135.193 21.2667 135.193 20.8905C135.193 19.2841 134.22 17.9968 132.461 17.9968C130.546 17.9968 129.226 19.4098 128.848 21.6739H134.32Z" fill="#231F20"></path>
    <path d="M139.473 30.5365H138.622V31.3561C139.755 31.3261 141.073 31.2937 142.365 31.2937C143.4 31.2937 144.415 31.3128 145.611 31.3351C145.976 31.342 146.357 31.3491 146.761 31.3561V30.5365H145.001C144.121 30.5365 143.494 30.5365 143.494 29.4954V22.1183C143.494 20.2281 145.254 19.5066 145.788 19.5066C146.353 19.5066 146.627 19.707 146.893 19.9017C147.144 20.0853 147.388 20.2638 147.863 20.2638C148.746 20.2638 149.338 19.5066 149.338 18.6574C149.338 17.5244 148.334 16.9944 147.549 16.9944C145.632 16.9944 144.311 19.0046 143.529 20.2281H143.462V17.4021C143.462 17.0844 143.368 16.9944 143.182 16.9944C143.051 16.9944 142.711 17.1685 142.157 17.4521C141.513 17.7824 140.578 18.2613 139.345 18.787V19.2528C139.445 19.3066 139.576 19.3575 139.72 19.4136C140.256 19.6223 140.976 19.9025 140.976 20.6677V29.4954C140.976 30.5365 140.352 30.5365 139.473 30.5365Z" fill="#231F20"></path>
    <path d="M150.72 26.987C151.131 29.0596 152.389 30.8217 154.683 30.8217C156.535 30.8217 157.224 29.6892 157.224 28.5896C157.224 26.8796 155.767 26.2114 154.198 25.4914C152.365 24.6506 150.378 23.7393 150.378 21.0153C150.378 19.2527 151.793 16.9939 155.25 16.9939C156.254 16.9939 157.605 17.2758 158.83 17.9035L159.052 21.1091H158.33C158.016 19.1308 156.913 17.9954 154.903 17.9954C153.644 17.9954 152.452 18.7207 152.452 20.0719C152.452 21.7769 154.018 22.4484 155.697 23.1692C157.643 24.0038 159.741 24.9044 159.741 27.5523C159.741 29.6249 158.076 31.8252 154.339 31.8252C153.076 31.8252 151.601 31.3875 150.502 30.7603L150.156 27.1446L150.72 26.987Z" fill="#231F20"></path>
    <path d="M210.313 30.2221C209.775 30.2221 209.434 30.194 209.434 29.6244V18.0325C209.434 17.6849 209.434 17.4668 209.181 17.4668C209.071 17.4668 208.778 17.4977 208.32 17.5462C207.486 17.6344 206.104 17.7804 204.279 17.903V18.4688C204.391 18.5004 204.508 18.5322 204.626 18.5645C205.694 18.8572 206.916 19.1921 206.916 19.7556V28.2171C205.596 29.3087 204.181 30.1278 203.116 30.1278C200.384 30.1278 200.384 27.4242 200.384 26.4826V18.3764C200.384 17.6849 200.384 17.4668 200.034 17.4668C199.847 17.4668 199.223 17.5051 198.492 17.5501C197.621 17.6036 196.599 17.6665 195.983 17.6849V18.2826C197.738 18.4364 197.866 19.2236 197.866 20.0433V28.0914C197.866 30.7293 199.623 31.8266 201.318 31.8266C203.552 31.8266 205.003 30.7293 206.885 29.1906V31.7328L207.039 31.8266C207.641 31.639 210.215 30.9794 211.572 30.8551V30.194C211.363 30.194 211.136 30.2014 210.915 30.2085C210.703 30.2154 210.496 30.2221 210.313 30.2221Z" fill="#231F20"></path>
    <path fill-rule="evenodd" clip-rule="evenodd" d="M215.685 19.2532C216.941 18.1878 218.643 16.9948 220.369 16.9948C224.015 16.9948 226.215 20.1704 226.215 23.5923C226.215 27.707 223.199 31.8261 218.701 31.8261C216.725 31.8261 215.546 31.2827 214.734 30.9082C214.59 30.8418 214.457 30.7807 214.333 30.7288L213.392 31.4485L212.734 31.1046C213.01 29.252 213.17 27.4256 213.17 25.5106V11.9999C213.17 10.0202 212.73 9.89455 211.619 9.57698L211.506 9.54436V9.04097C212.767 8.63283 214.082 8.07133 214.743 7.68795C214.831 7.64024 214.913 7.59428 214.988 7.55231C215.206 7.43048 215.364 7.34219 215.436 7.34219C215.625 7.34219 215.685 7.53174 215.685 7.78558V19.2532ZM215.685 27.8033C215.685 28.9982 216.816 31.0089 218.924 31.0089C222.29 31.0089 223.703 27.7071 223.703 24.9091C223.703 21.5177 221.125 18.6898 218.674 18.6898C217.505 18.6898 216.534 19.4451 215.685 20.1704V27.8033Z" fill="#231F20"></path>
    <path d="M85.3133 50.2161C84.9039 50.2161 84.4449 50.1994 83.9826 50.1826C83.5139 50.1656 83.0408 50.1485 82.6135 50.1485C82.1713 50.1485 81.6826 50.1673 81.221 50.1851L81.2199 50.1851L81.2179 50.1851C80.8056 50.201 80.4151 50.2161 80.0989 50.2161H80.0241V49.5565H80.3375C80.958 49.5412 81.5233 49.4908 81.5271 48.6526V39.6948C81.5233 38.859 80.958 38.8023 80.3375 38.7914H80.0241V38.1337H80.0989C80.4157 38.1337 80.8112 38.1483 81.2287 38.1638C81.6953 38.1811 82.1898 38.1994 82.632 38.1994C83.0631 38.1994 83.5382 38.1825 84.0071 38.1659C84.4638 38.1497 84.9147 38.1337 85.3133 38.1337H85.3886V38.7914H85.0766C84.4546 38.8023 83.8855 38.859 83.8836 39.6948V48.6526C83.8855 49.4908 84.4546 49.5412 85.0766 49.5565H85.3886V50.2161H85.3133Z" fill="#231F20"></path>
    <path d="M98.0519 50.4741L97.3475 50.4475L88.6679 40.7763V47.6271C88.6903 49.1173 88.916 49.5383 90.2014 49.5569H90.5695V50.2146H90.4924C90.1224 50.2146 89.7528 50.1981 89.384 50.1816C89.0171 50.1652 88.651 50.1489 88.2864 50.1489C87.9074 50.1489 87.5229 50.1651 87.1365 50.1815H87.1355L87.1341 50.1815H87.1329L87.1319 50.1815C86.742 50.198 86.3502 50.2146 85.9604 50.2146H85.8851V49.5569H86.2028C87.3339 49.5478 87.6554 48.8225 87.6701 47.4581V40.2577C87.6663 39.348 86.9186 38.7937 86.1857 38.7918H85.8851V38.1326H85.9604C86.2894 38.1326 86.6214 38.1497 86.952 38.1666C87.28 38.1835 87.6067 38.2003 87.9278 38.2003C88.1354 38.2003 88.3412 38.1889 88.5514 38.1773C88.8545 38.1606 89.1676 38.1434 89.508 38.1588L97.0222 46.6165V40.3272C97.0132 38.9665 96.1074 38.8032 95.6054 38.7918H95.1544V38.1326H95.2315C95.6354 38.1326 96.035 38.1496 96.4338 38.1665C96.8313 38.1834 97.228 38.2003 97.6276 38.2003C97.9728 38.2003 98.3204 38.1835 98.6693 38.1666C99.0212 38.1497 99.3744 38.1326 99.7283 38.1326H99.805V38.7918H99.4744C98.7663 38.8127 98.0447 38.8765 98.0238 40.8892V48.6739C98.0238 49.2678 98.0409 49.865 98.1233 50.3875L98.1386 50.4741H98.0519Z" fill="#231F20"></path>
    <path d="M107.844 50.1853C107.313 50.1672 106.737 50.1476 106.243 50.1476C105.678 50.1476 105.061 50.1682 104.508 50.1866L104.507 50.1866C104.059 50.2016 103.653 50.2152 103.351 50.2152H103.279V49.5556H103.678C104.621 49.5332 105.001 49.5218 105.019 48.195V39.1324H102.289C101.097 39.1572 101.055 39.3462 100.817 40.4319C100.803 40.4961 100.788 40.5634 100.772 40.634L100.763 40.6921H100.102L100.113 40.604C100.137 40.4292 100.165 40.2541 100.192 40.0779C100.24 39.7733 100.288 39.4647 100.321 39.1496C100.389 38.6762 100.423 38.2004 100.423 37.7099V37.6351H100.966L100.977 37.6894C101.095 38.1173 101.403 38.1236 101.832 38.1325L101.845 38.1328H110.756C111.229 38.1237 111.579 38.1161 111.607 37.6684L111.613 37.5899L111.69 37.6051L112.171 37.6799L112.163 37.7532C112.096 38.2137 112.028 38.6762 111.979 39.1324C111.944 39.591 111.944 40.0535 111.944 40.5135V40.5659L111.895 40.5869L111.288 40.8088L111.286 40.705L111.286 40.7033C111.239 40.0628 111.17 39.1324 110.091 39.1324H107.361V48.1578C107.378 49.4484 107.89 49.5389 108.706 49.5556H109.103V50.2152H109.033C108.722 50.2152 108.301 50.2008 107.848 50.1854L107.845 50.1853L107.844 50.1853Z" fill="#231F20"></path>
    <path d="M121.785 50.215C121.282 50.215 120.598 50.2005 119.856 50.1847C118.977 50.1659 118.018 50.1455 117.185 50.1455C116.327 50.1455 115.318 50.1671 114.423 50.1862C113.711 50.2014 113.071 50.215 112.637 50.215H112.562V49.5574H112.876C113.494 49.5459 114.06 49.4897 114.066 48.6534V39.6938C114.06 38.8618 113.494 38.8051 112.876 38.7903H112.562V38.1326H112.637C113.117 38.1326 113.753 38.1469 114.44 38.1624C115.245 38.1805 116.121 38.2003 116.894 38.2003C117.649 38.2003 118.499 38.1815 119.304 38.1638C120.028 38.1478 120.717 38.1326 121.268 38.1326H121.345V38.2079C121.33 38.4651 121.324 38.7679 121.324 39.0947C121.324 39.6828 121.345 40.3291 121.377 40.8158V40.8777L121.322 40.8949L120.721 41.0525L120.719 40.9625C120.618 39.8557 120.471 39.0475 118.707 39.0327H116.403V43.3618H118.363C119.351 43.3542 119.525 42.8489 119.641 41.9264L119.648 41.8607H120.306V41.9355C120.27 42.6027 120.25 43.268 120.25 43.9352C120.25 44.5815 120.27 45.2316 120.306 45.8836V45.9422L120.244 45.9569L119.648 46.0736L119.641 45.9945L119.625 45.8497C119.521 44.8988 119.465 44.3799 118.382 44.3672L116.403 44.3634V48.2777C116.405 49.3067 117.282 49.3111 118.383 49.3167L118.415 49.3169C120.477 49.3054 121.3 49.204 121.815 47.2833L121.832 47.2137L121.905 47.229L122.452 47.3699L122.437 47.4414C122.215 48.3434 122.012 49.2511 121.858 50.1527L121.847 50.215H121.785Z" fill="#231F20"></path>
    <path fill-rule="evenodd" clip-rule="evenodd" d="M134.831 50.2142C134.543 50.2142 134.263 50.1976 133.984 50.1811C133.708 50.1648 133.432 50.1485 133.151 50.1485C132.939 50.1485 132.723 50.1594 132.5 50.1707C132.177 50.1871 131.84 50.2041 131.486 50.1894C130.179 48.4664 129.055 46.6304 127.948 44.6745H126.939V48.2597C126.956 49.5226 127.453 49.5355 128.219 49.5553L128.264 49.5565H128.647V50.2142H128.57C128.079 50.2142 127.585 50.1977 127.091 50.1812C126.6 50.1648 126.111 50.1485 125.627 50.1485C125.224 50.1485 124.825 50.1645 124.42 50.1807C124.005 50.1973 123.584 50.2142 123.149 50.2142H123.079V49.5565H123.461C124.077 49.5508 124.592 49.2822 124.598 48.705V40.0182C124.587 38.8261 124.01 38.8083 123.487 38.7922L123.461 38.7914H123.079V38.1337H123.149C123.385 38.1337 123.709 38.1454 124.083 38.1589C124.595 38.1775 125.202 38.1994 125.804 38.1994C126.327 38.1994 126.799 38.182 127.257 38.1652C127.692 38.1492 128.115 38.1337 128.559 38.1337C130.71 38.1337 132.697 38.7328 132.702 41.2131C132.702 42.758 131.68 43.722 130.362 44.2592L133.234 48.5606C133.711 49.2707 134.008 49.4493 134.841 49.5565L134.903 49.5622V50.2142H134.831ZM127.7 43.9115C129.391 43.8948 130.246 43.3086 130.261 41.3202C130.254 39.8286 129.324 38.9019 127.836 38.8928C127.462 38.8928 127.25 38.9198 127.067 38.943L127 38.9513L126.97 38.9549L126.939 38.9585V43.9115H127.7Z" fill="#231F20"></path>
    <path d="M147.431 50.4741L146.728 50.4475L138.051 40.7763V47.6271C138.071 49.1192 138.297 49.5383 139.586 49.5569H139.948V50.2146H139.875C139.504 50.2146 139.134 50.1971 138.765 50.1796C138.399 50.1623 138.033 50.145 137.669 50.145C137.287 50.145 136.898 50.1624 136.508 50.1798C136.119 50.1972 135.728 50.2146 135.345 50.2146H135.264V49.5569H135.578C136.707 49.5516 137.034 48.8225 137.045 47.4561V40.2577C137.041 39.3442 136.299 38.7937 135.565 38.7918H135.264V38.1326H135.345C135.671 38.1326 136.002 38.1496 136.332 38.1666C136.661 38.1834 136.989 38.2003 137.31 38.2003C137.524 38.2003 137.735 38.1881 137.952 38.1757C138.247 38.1588 138.551 38.1413 138.881 38.1531L146.399 46.6165V40.3272C146.397 38.9665 145.484 38.7994 144.988 38.7918H144.535V38.1326H144.61C145.016 38.1326 145.417 38.1497 145.816 38.1666H145.817C146.213 38.1835 146.608 38.2003 147.006 38.2003C147.353 38.2003 147.701 38.1835 148.05 38.1666C148.402 38.1497 148.755 38.1326 149.109 38.1326H149.182V38.7918H148.855C148.15 38.8089 147.423 38.8765 147.405 40.8892V48.6739C147.405 49.2678 147.419 49.8598 147.506 50.3875L147.514 50.4741H147.431Z" fill="#231F20"></path>
    <path fill-rule="evenodd" clip-rule="evenodd" d="M160.968 50.2152L160.689 50.2034C160.016 50.1747 159.335 50.1457 158.616 50.1457C157.906 50.1457 157.186 50.1727 156.449 50.2005L156.053 50.2152L155.976 50.2209V49.5499H156.241C156.633 49.5499 157.22 49.4637 157.22 49.1346C157.224 48.9393 157.075 48.4697 156.885 47.9268L156.235 45.9928H152.462L151.928 47.7182C151.869 47.9157 151.807 48.0978 151.751 48.2631C151.641 48.5882 151.552 48.8481 151.552 49.0312C151.558 49.4484 152.199 49.5499 152.766 49.5499H153.027V50.2209L152.95 50.2152L152.708 50.2037C152.101 50.1749 151.485 50.1457 150.885 50.1457C150.35 50.1457 149.813 50.1743 149.278 50.2027L149.042 50.2152L148.967 50.2209V49.5499H149.14C149.777 49.5499 150.307 49.1855 150.553 48.4921L153.293 40.645L153.32 40.5682C153.542 39.9427 153.83 39.1316 153.973 38.4785C154.508 38.2928 155.194 37.9485 155.526 37.7422C155.536 37.7388 155.546 37.735 155.556 37.7312C155.595 37.7162 155.635 37.7008 155.69 37.7008C155.732 37.6989 155.825 37.7118 155.876 37.8041C155.905 37.8813 155.934 37.9624 155.963 38.0428L156.002 38.1517C156.012 38.1791 156.022 38.2062 156.032 38.2328L159.183 47.1786L159.25 47.3776C159.43 47.914 159.614 48.4631 159.811 48.9112C160.008 49.3698 160.324 49.5499 160.873 49.5499H161.049V50.2209L160.968 50.2152ZM152.832 44.8883H155.825L154.337 40.303L152.832 44.8883Z" fill="#231F20"></path>
    <path d="M167.284 50.1854C166.752 50.1673 166.174 50.1476 165.677 50.1476C165.113 50.1476 164.497 50.1681 163.944 50.1866C163.494 50.2016 163.087 50.2152 162.783 50.2152H162.712V49.5556H163.11C164.054 49.5332 164.429 49.5218 164.454 48.195V39.1324H161.727C160.529 39.154 160.488 39.3454 160.254 40.4284L160.253 40.4318C160.239 40.496 160.224 40.5634 160.209 40.634L160.196 40.6921H159.534L159.545 40.604C159.567 40.4589 159.589 40.3136 159.612 40.1678L159.612 40.1659C159.665 39.8328 159.717 39.497 159.752 39.1553C159.822 38.6762 159.854 38.2004 159.854 37.7099V37.6351H160.395L160.41 37.6894C160.529 38.1172 160.839 38.1236 161.266 38.1325L161.28 38.1328H170.19C170.664 38.1237 171.012 38.1161 171.04 37.6684L171.042 37.5899L171.124 37.6051L171.611 37.6799L171.596 37.7532C171.523 38.2137 171.461 38.6762 171.41 39.1324C171.378 39.5909 171.378 40.0533 171.378 40.5132V40.5659L171.326 40.5869L170.719 40.8088V40.705C170.675 40.0644 170.605 39.1324 169.523 39.1324H166.793V48.1578C166.81 49.4484 167.323 49.5389 168.137 49.5556H168.537V50.2152H168.461C168.155 50.2152 167.736 50.2009 167.284 50.1854Z" fill="#231F20"></path>
    <path d="M177.372 50.215C176.962 50.215 176.503 50.1979 176.041 50.1807C175.571 50.1632 175.098 50.1455 174.668 50.1455C174.227 50.1455 173.736 50.1649 173.274 50.1832C172.86 50.1996 172.469 50.215 172.154 50.215H172.083V49.5574H172.392C173.013 49.5459 173.579 49.4897 173.58 48.6534V39.6938C173.579 38.8618 173.013 38.8032 172.392 38.7903H172.083V38.1326H172.154C172.469 38.1326 172.864 38.1477 173.282 38.1636C173.748 38.1814 174.243 38.2003 174.683 38.2003C175.117 38.2003 175.593 38.1829 176.063 38.1658C176.521 38.1491 176.973 38.1326 177.372 38.1326H177.442V38.7903H177.134C176.508 38.8032 175.944 38.8618 175.939 39.6938V48.6534C175.944 49.4897 176.508 49.5459 177.134 49.5574H177.442V50.215H177.372Z" fill="#231F20"></path>
    <path fill-rule="evenodd" clip-rule="evenodd" d="M177.807 44.2589C177.816 40.6628 180.599 37.8796 184.192 37.872C187.864 37.8796 190.808 40.1608 190.814 43.8475C190.812 47.8218 187.958 50.4659 184.278 50.473C180.622 50.4659 177.816 47.9742 177.807 44.2589ZM184.448 49.5734C187.704 49.571 188.266 46.7207 188.273 44.2289C188.273 41.7486 186.937 38.7797 184.158 38.7759C181.225 38.7797 180.357 41.3824 180.351 43.6579C180.355 46.7073 181.743 49.5653 184.448 49.5734Z" fill="#231F20"></path>
    <path d="M203.258 50.4741L202.55 50.4475L193.873 40.7763V47.6271C193.893 49.1192 194.12 49.5364 195.404 49.5516H195.776V50.2146H195.701C195.33 50.2146 194.96 50.198 194.591 50.1816C194.224 50.1652 193.859 50.1489 193.495 50.1489C193.113 50.1489 192.727 50.1652 192.339 50.1815C191.948 50.198 191.555 50.2146 191.165 50.2146H191.095V49.5516H191.407C192.535 49.5478 192.86 48.8225 192.869 47.4581V40.2577C192.869 39.3442 192.125 38.7937 191.386 38.7918H191.095V38.1326H191.165C191.494 38.1326 191.826 38.1497 192.157 38.1666C192.485 38.1835 192.812 38.2003 193.134 38.2003C193.341 38.2003 193.546 38.1889 193.755 38.1774C194.058 38.1606 194.37 38.1433 194.714 38.1588L202.225 46.6165V40.3272C202.221 38.9665 201.314 38.8032 200.808 38.7918H200.363V38.1326H200.438C200.841 38.1326 201.242 38.1497 201.641 38.1666C202.038 38.1835 202.432 38.2003 202.826 38.2003C203.178 38.2003 203.527 38.1834 203.876 38.1665C204.227 38.1496 204.578 38.1326 204.934 38.1326H205.008V38.7918H204.679C203.976 38.8127 203.247 38.8765 203.232 40.8892V48.6739C203.232 49.2678 203.247 49.865 203.326 50.3875L203.341 50.4741H203.258Z" fill="#231F20"></path>
    <path fill-rule="evenodd" clip-rule="evenodd" d="M216.424 50.2C215.776 50.1738 215.123 50.1473 214.443 50.1473C213.758 50.1473 213.059 50.1725 212.35 50.1982L212.347 50.1983L212.345 50.1984C212.19 50.204 212.034 50.2096 211.878 50.2149L211.802 50.2207V49.5572H212.06C212.458 49.5572 213.049 49.4634 213.052 49.1343C213.054 48.9391 212.902 48.4714 212.707 47.9266L212.058 45.9925H208.283L207.757 47.718C207.697 47.9247 207.632 48.1142 207.574 48.2851C207.467 48.6 207.381 48.8512 207.385 49.0291C207.385 49.4482 208.026 49.5572 208.589 49.5572H208.852V50.2207L208.775 50.2149L208.457 50.2006C207.876 50.1742 207.286 50.1473 206.712 50.1473C206.201 50.1473 205.693 50.1731 205.184 50.1991C205.078 50.2044 204.973 50.2098 204.867 50.2149L204.792 50.2207V49.5572H204.963C205.6 49.5496 206.135 49.1834 206.383 48.4919L209.121 40.6447L209.184 40.4626L209.214 40.3746C209.42 39.7814 209.667 39.0657 209.795 38.4783C210.335 38.2925 211.023 37.9482 211.352 37.742L211.355 37.7408C211.399 37.7239 211.451 37.7044 211.517 37.7044C211.56 37.6987 211.65 37.7115 211.705 37.8058C211.714 37.8307 211.723 37.8562 211.732 37.8821L211.757 37.9526C211.789 38.0463 211.823 38.143 211.858 38.2325L215.006 47.1784L215.076 47.3826C215.256 47.9175 215.441 48.4646 215.639 48.9148C215.841 49.3696 216.147 49.5496 216.698 49.5572H216.872V50.2207L216.797 50.2149C216.673 50.2101 216.548 50.2051 216.424 50.2ZM208.661 44.8838H211.654L210.162 40.3066L208.661 44.8838Z" fill="#231F20"></path>
    <path d="M224.164 50.1812C223.414 50.1643 222.664 50.1474 221.915 50.1474C221.162 50.1474 220.408 50.1643 219.655 50.1812C218.901 50.1981 218.147 50.215 217.394 50.215H217.325V49.5574H217.633C218.253 49.5421 218.843 49.4969 218.848 48.4806V39.6919C218.843 38.8618 218.259 38.8032 217.633 38.7903H217.325V38.1326H217.394C217.851 38.1326 218.302 38.1496 218.752 38.1666C219.2 38.1834 219.647 38.2003 220.098 38.2003C220.532 38.2003 220.962 38.1834 221.394 38.1666C221.827 38.1496 222.261 38.1326 222.701 38.1326H222.768V38.7903H222.271L222.183 38.7926C221.571 38.808 221.193 38.8175 221.178 39.6452V48.4672C221.186 49.1044 221.601 49.2735 222.14 49.3526C222.437 49.373 222.759 49.3845 223.086 49.3845C223.503 49.3845 223.937 49.364 224.384 49.3169C225.079 49.234 225.677 48.8339 225.974 48.4258C226.237 48.0576 226.387 47.59 226.487 47.2161L226.505 47.1575H227.15L227.133 47.2518C227.02 47.827 226.892 48.3959 226.764 48.9663C226.674 49.3627 226.585 49.7598 226.5 50.1603L226.482 50.215H226.425C225.67 50.215 224.916 50.1981 224.164 50.1812Z" fill="#231F20"></path>
    <path fill-rule="evenodd" clip-rule="evenodd" d="M225.957 40.3862V40.4762H226.824V40.3862C226.801 40.383 226.779 40.3802 226.76 40.3776C226.598 40.3567 226.565 40.3525 226.565 40.2433V39.6475H226.762C226.868 39.7976 226.955 39.9362 227.03 40.0553C227.191 40.3103 227.295 40.4762 227.409 40.4762H227.76V40.4181C227.657 40.3562 227.501 40.1776 227.36 39.9952L227.067 39.5799C227.317 39.5013 227.491 39.3075 227.491 39.037C227.491 38.7117 227.198 38.5579 226.886 38.5579H225.962V38.6517C226.197 38.6403 226.217 38.7041 226.217 38.8941V40.2243C226.217 40.352 226.182 40.3566 226.015 40.3784C225.997 40.3808 225.978 40.3833 225.957 40.3862ZM226.776 39.5256H226.565V38.6798H226.762C226.945 38.6798 227.116 38.7793 227.116 39.067C227.116 39.3508 227.009 39.5256 226.776 39.5256Z" fill="#231F20"></path>
    <path fill-rule="evenodd" clip-rule="evenodd" d="M228.651 39.5256C228.651 38.5146 227.881 37.7216 226.851 37.7216C225.823 37.7216 225.049 38.5146 225.049 39.5256C225.049 40.5362 225.823 41.3197 226.851 41.3197C227.881 41.3197 228.651 40.5362 228.651 39.5256ZM228.275 39.5256C228.275 40.3014 227.657 40.9853 226.851 40.9853C226.039 40.9853 225.423 40.3014 225.423 39.5256C225.423 38.7493 226.039 38.0559 226.851 38.0559C227.668 38.0559 228.275 38.7493 228.275 39.5256Z" fill="#231F20"></path>
  </symbol>
  <symbol id="elo" fill="none" xmlns="http://www.w3.org/2000/svg" viewBox="0 0 158 60">
    <path d="M25.3351 13.2335C27.0915 12.647 28.9692 12.3315 30.9243 12.3315C39.4483 12.3315 46.5638 18.3854 48.1957 26.4344L60.2789 23.9688C57.504 10.2933 45.4186 0.000244141 30.9243 0.000244141C27.6025 0.000244141 24.4124 0.541368 21.4272 1.53867L25.3351 13.2335Z" fill="#FFCB03"></path>
    <path d="M11.076 52.3944L19.2467 43.1562C15.6 39.9243 13.2984 35.2088 13.2984 29.9544C13.2984 24.7045 15.5969 19.9903 19.2413 16.7629L11.0688 7.52381C4.87507 13.011 0.966309 21.0281 0.966309 29.9544C0.966309 38.887 4.87686 46.9058 11.076 52.3944Z" fill="#00A4E0"></path>
    <path d="M48.1917 33.4892C46.5535 41.5328 39.4434 47.576 30.9234 47.576C28.9679 47.576 27.0847 47.2609 25.3301 46.6708L21.416 58.3692C24.4011 59.3665 27.5984 59.9059 30.9234 59.9059C45.4038 59.9059 57.4887 49.6299 60.273 35.967L48.1917 33.4892Z" fill="#EF4023"></path>
    <path d="M94.9881 39.901C94.9846 39.9037 94.981 39.9068 94.9787 39.9109L94.6353 39.6789C93.6461 41.2843 92.101 42.5855 90.1531 43.4304C86.4452 45.0425 83.0097 44.6277 80.5419 42.4641L80.3158 42.8093C80.3131 42.8052 80.3122 42.8025 80.3086 42.8025L76.1014 49.0965C77.145 49.8223 78.2677 50.4371 79.4448 50.9288C84.0929 52.8592 88.8497 52.7706 93.5338 50.7324C96.9221 49.265 99.5818 47.025 101.399 44.1868L94.9881 39.901ZM81.8533 24.3702C77.9383 26.0529 75.9194 29.7248 76.3347 34.0318L92.9198 26.8942C90.0681 23.5428 86.3567 22.4313 81.8533 24.3702ZM70.8421 43.545C70.4466 42.9037 69.9073 41.8785 69.5846 41.1234C67.6709 36.6816 67.5787 32.0839 69.1945 27.6709C70.9711 22.8313 74.3657 19.1261 78.7504 17.2389C84.2632 14.8668 90.3612 15.3347 95.6448 18.4695C99.0025 20.3949 101.381 23.3684 103.188 27.5724C103.419 28.1113 103.621 28.6857 103.819 29.1742L70.8421 43.545Z" fill="#231F20"></path>
    <path d="M115.346 7.96685V42.9628L120.789 45.1686L117.697 52.3826L111.692 49.881C110.344 49.2972 109.426 48.4046 108.731 47.3961C108.066 46.3682 107.57 44.9574 107.57 43.059V7.96685H115.346Z" fill="#231F20"></path>
    <path d="M129.441 34.0496C129.443 31.0694 130.759 28.3984 132.842 26.5808L127.26 20.3575C123.475 23.7031 121.09 28.5934 121.086 34.0402C121.079 39.491 123.461 44.3867 127.243 47.7408L132.818 41.5116C130.746 39.6869 129.44 37.0222 129.441 34.0496Z" fill="#231F20"></path>
    <path d="M139.359 43.9801C138.26 43.9774 137.202 43.7954 136.214 43.4664L133.549 51.3932C135.37 52.0048 137.322 52.3379 139.35 52.341C148.189 52.3496 155.569 46.0781 157.279 37.7415L149.086 36.0682C148.153 40.5882 144.152 43.9837 139.359 43.9801Z" fill="#231F20"></path>
    <path d="M139.383 15.7735C137.357 15.7712 135.406 16.1011 133.588 16.707L136.229 24.64C137.219 24.3123 138.278 24.1321 139.375 24.1321C144.179 24.1366 148.184 27.5532 149.093 32.0845L157.289 30.422C155.602 22.0741 148.228 15.7789 139.383 15.7735Z" fill="#231F20"></path>
  </symbol>
  <symbol id="discover" fill="none" xmlns="http://www.w3.org/2000/svg" viewBox="0 0 225 38">
    <path d="M68.4978 18.5335C68.4978 28.9418 76.6746 37.0126 87.1916 37.0126C90.167 37.0126 92.7104 36.429 95.8518 34.9527V26.8189C93.091 29.5826 90.6448 30.6956 87.512 30.6956C80.5541 30.6956 75.616 25.6516 75.616 18.4791C75.616 11.6814 80.7143 6.31707 87.1916 6.31707C90.4874 6.31707 92.9822 7.49293 95.8518 10.3024V2.17435C92.822 0.635135 90.3272 0 87.3547 0C76.8891 0 68.4978 8.23393 68.4978 18.5335Z" fill="#251F1F"></path>
    <path d="M50.7682 9.93044C50.7682 11.8444 51.987 12.8544 56.1326 14.3879C63.9917 17.2632 66.3206 19.8094 66.3206 25.4399C66.3206 32.2948 61.2824 37.0669 54.1041 37.0669C48.8485 37.0669 45.0262 34.9956 41.8419 30.3236L46.305 26.0292C47.8958 29.1048 50.5508 30.7499 53.8438 30.7499C56.9279 30.7499 59.2081 28.6242 59.2081 25.7546C59.2081 24.2669 58.5158 22.9909 57.1368 22.0897C56.4416 21.6634 55.0654 21.0282 52.3618 20.0726C45.873 17.7381 43.6472 15.2404 43.6472 10.3624C43.6472 4.56607 48.4279 0.211646 54.6935 0.211646C58.5759 0.211646 62.1292 1.54201 65.1018 4.13979L61.4855 8.87473C59.6859 6.85487 57.9865 6.00516 55.9151 6.00516C52.9368 6.00516 50.7682 7.69887 50.7682 9.93044Z" fill="#251F1F"></path>
    <path fill-rule="evenodd" clip-rule="evenodd" d="M10.1422 0.79798H0V36.2142H10.0879C15.4494 36.2142 19.326 34.9525 22.7249 32.1258C26.7646 28.7813 29.1536 23.7431 29.1536 18.5333C29.1536 8.07921 21.343 0.79798 10.1422 0.79798ZM18.2102 27.4052C16.0387 29.365 13.2207 30.2204 8.75751 30.2204H6.90358V6.80034H8.75751C13.2207 6.80034 15.9272 7.59569 18.2102 9.66419C20.602 11.7899 22.0354 15.0886 22.0354 18.4789C22.0354 21.8806 20.602 25.2795 18.2102 27.4052Z" fill="#251F1F"></path>
    <path d="M39.2412 0.79798H32.3319V36.2142H39.2412V0.79798Z" fill="#251F1F"></path>
    <path d="M141.182 0.79798L150.629 24.5871L160.196 0.79798H167.683L152.382 37.1268H148.666L133.637 0.79798H141.182Z" fill="#251F1F"></path>
    <path d="M170.807 36.2142H190.399V30.2204H177.711V20.659H189.93V14.6595H177.711V6.80034H190.399V0.79798H170.807V36.2142Z" fill="#251F1F"></path>
    <path fill-rule="evenodd" clip-rule="evenodd" d="M205.216 0.79798C213.184 0.79798 217.756 4.62312 217.756 11.2549C217.756 16.6793 214.886 20.2384 209.682 21.2941L220.832 36.2142H212.337L202.776 21.9893H201.872V36.2142H194.974V0.79798H205.216ZM201.872 17.1028H203.895C208.306 17.1028 210.644 15.1888 210.644 11.6268C210.644 8.17933 208.306 6.37691 204 6.37691H201.872V17.1028Z" fill="#251F1F"></path>
    <path fill-rule="evenodd" clip-rule="evenodd" d="M223.261 2.6549C223.261 2.03406 222.829 1.69361 222.076 1.69361H221.075V4.81495H221.819V3.60475L222.691 4.81495H223.604L222.577 3.5275C223.015 3.4102 223.261 3.08977 223.261 2.6549ZM221.945 3.08119H221.819V2.26581H221.953C222.322 2.26581 222.514 2.39741 222.514 2.66635C222.514 2.94386 222.319 3.08119 221.945 3.08119Z" fill="#251F1F"></path>
    <path fill-rule="evenodd" clip-rule="evenodd" d="M219.505 3.24705C219.505 1.73644 220.712 0.526243 222.225 0.526243C223.702 0.526243 224.915 1.75647 224.915 3.24705C224.915 4.7462 223.702 5.97071 222.225 5.97071C220.723 5.97071 219.505 4.76051 219.505 3.24705ZM220.045 3.25276C220.045 4.49157 221.021 5.48434 222.214 5.48434C223.404 5.48434 224.371 4.48013 224.371 3.25276C224.371 2.03112 223.404 1.01548 222.214 1.01548C221.012 1.01548 220.045 2.00823 220.045 3.25276Z" fill="#251F1F"></path>
    <g filter="url(#filter0_i_1217_4389)">
      <path d="M116.797 37.9998C106.446 37.9998 98.0513 29.6055 98.0513 19.2542V19.2288C98.0513 14.0785 100.137 9.39243 103.51 6.01935C103.51 5.99326 103.536 5.99326 103.536 5.96785C103.561 5.96785 103.561 5.94175 103.587 5.94175C106.961 2.56867 111.647 0.483154 116.797 0.483154H116.823C127.174 0.483154 135.569 8.8774 135.569 19.2288V19.2542C135.569 24.4044 133.483 29.0651 130.109 32.4643C130.109 32.4897 130.084 32.4897 130.084 32.5158C130.058 32.5158 130.058 32.5412 130.033 32.5412C126.633 35.9143 121.973 37.9998 116.823 37.9998H116.797Z" fill="url(#paint0_linear_1217_4389)"></path>
    </g>
    <defs>
      <filter id="filter0_i_1217_4389" x="98.0513" y="0.483154" width="38.8909" height="39.5766" filterUnits="userSpaceOnUse" color-interpolation-filters="sRGB">
        <feFlood flood-opacity="0" result="BackgroundImageFix"></feFlood>
        <feBlend mode="normal" in="SourceGraphic" in2="BackgroundImageFix" result="shape"></feBlend>
        <feColorMatrix in="SourceAlpha" type="matrix" values="0 0 0 0 0 0 0 0 0 0 0 0 0 0 0 0 0 0 127 0" result="hardAlpha"></feColorMatrix>
        <feOffset dx="1.37331" dy="2.05997"></feOffset>
        <feGaussianBlur stdDeviation="1.37331"></feGaussianBlur>
        <feComposite in2="hardAlpha" operator="arithmetic" k2="-1" k3="1"></feComposite>
        <feColorMatrix type="matrix" values="0 0 0 0 0 0 0 0 0 0 0 0 0 0 0 0 0 0 0.35 0"></feColorMatrix>
        <feBlend mode="normal" in2="shape" result="effect1_innerShadow_1217_4389"></feBlend>
      </filter>
      <linearGradient id="paint0_linear_1217_4389" x1="106.978" y1="0.483154" x2="137.805" y2="26.5687" gradientUnits="userSpaceOnUse">
        <stop stop-color="#EF3823"></stop>
        <stop offset="0.489583" stop-color="#F04D22"></stop>
        <stop offset="1" stop-color="#F7911D"></stop>
      </linearGradient>
    </defs>
  </symbol>
  <symbol id="amex" fill="none" xmlns="http://www.w3.org/2000/svg" viewBox="0 0 267 17" >
    <path d="M261.433 6.56836H257.343C256.434 6.56836 255.866 6.00028 255.866 5.20496C255.866 4.40964 256.547 3.95517 257.343 3.95517H264.728L266.432 0.205811H257.343C253.593 0.205811 251.434 2.47815 251.434 5.43219C251.434 8.61347 253.48 10.4313 256.774 10.4313H260.865C261.774 10.4313 262.342 10.9994 262.342 11.7947C262.342 12.5901 261.774 13.1582 260.865 13.1582H252.003V16.9075H260.865C264.614 16.9075 266.773 14.7488 266.773 11.5675C266.773 8.38624 264.841 6.56836 261.433 6.56836ZM245.186 6.56836H241.095C240.186 6.56836 239.618 6.00028 239.618 5.20496C239.618 4.40964 240.3 3.95517 241.095 3.95517H248.48L250.185 0.205811H241.095C237.346 0.205811 235.187 2.47815 235.187 5.43219C235.187 8.61347 237.232 10.4313 240.527 10.4313H244.617C245.526 10.4313 246.094 10.9994 246.094 11.7947C246.094 12.5901 245.526 13.1582 244.617 13.1582H235.755V16.9075H244.617C248.367 16.9075 250.526 14.7488 250.526 11.5675C250.526 8.38624 248.594 6.56836 245.186 6.56836ZM219.281 16.7939H233.256V13.0445H223.712V10.3177H233.029V6.56836H223.712V3.95517H233.256V0.205811H219.281V16.7939ZM210.532 7.25007H205.874V3.95517H210.532C211.896 3.95517 212.577 4.75049 212.577 5.65943C212.464 6.56836 211.782 7.25007 210.532 7.25007ZM217.008 5.54581C217.008 2.36453 214.736 0.205811 211.1 0.205811H201.557V16.7939H205.988V10.9994H207.578L212.577 16.7939H218.031L212.577 10.7722C215.304 10.2041 217.008 8.159 217.008 5.54581ZM193.149 7.59092H188.377V3.95517H193.149C194.512 3.95517 195.194 4.75049 195.194 5.77305C195.08 6.7956 194.399 7.59092 193.149 7.59092ZM193.603 0.205811H183.946V16.7939H188.377V11.3403H193.49C197.239 11.3403 199.511 8.95432 199.511 5.77305C199.511 2.47815 197.239 0.205811 193.603 0.205811ZM183.151 0.205811H177.47L173.152 5.20496L168.835 0.205811H163.04L170.312 8.38624L162.927 16.7939H168.608L173.039 11.5675L177.583 16.7939H183.378L175.879 8.27262L183.151 0.205811ZM148.27 16.7939H162.245V13.0445H152.701V10.3177H162.018V6.56836H152.701V3.95517H162.245V0.205811H148.27V16.7939ZM132.705 10.3177L125.888 0.205811H120.32V16.7939H124.751V6.22751L131.682 16.7939H137.022V0.205811H132.705V10.3177ZM106.914 9.74964L109.186 4.18241L111.458 9.74964H106.914ZM106.459 0.205811L99.1877 16.7939H104.073L105.437 13.3854H113.163L114.64 16.7939H119.639L112.14 0.205811H106.459ZM91.9162 8.61347V8.27262C91.9162 5.77305 93.2796 4.06879 96.12 4.06879H101.119V0.205811H95.7791C90.3255 0.205811 87.4851 3.72794 87.4851 8.27262V8.61347C87.4851 13.7262 90.6664 16.6803 95.5519 16.6803H97.0289L98.8468 12.9309H96.2336C93.6204 13.0445 91.9162 11.5675 91.9162 8.61347ZM80.7817 0.205811V16.7939H85.2128V0.205811H80.7817ZM71.9196 7.25007H67.2613V3.95517H71.9196C73.283 3.95517 73.9647 4.75049 73.9647 5.65943C73.9647 6.56836 73.283 7.25007 71.9196 7.25007ZM78.3957 5.54581C78.3957 2.36453 76.1234 0.205811 72.4877 0.205811H62.9438V16.7939H67.3749V10.9994H68.9655L73.9647 16.7939H79.5319L74.0783 10.7722C76.8051 10.2041 78.3957 8.159 78.3957 5.54581ZM46.0149 16.7939H59.9898V13.0445H50.446V10.3177H59.7625V6.56836H50.446V3.95517H59.9898V0.205811H46.0149V16.7939ZM31.9264 10.6586L28.177 0.205811H21.2464V16.7939H25.5638V4.86411L29.8813 16.7939H33.8579L38.2889 4.86411V16.7939H42.6064V0.205811H35.6757L31.9264 10.6586ZM7.83957 9.74964L10.1119 4.18241L12.3843 9.74964H7.83957ZM7.27149 0.205811L0 16.7939H4.88553L6.24894 13.3854H13.9749L15.4519 16.7939H20.4511L13.066 0.205811H7.27149Z" fill="#006FCF"></path>
  </symbol>
  <symbol id="mastercard" fill="none" xmlns="http://www.w3.org/2000/svg" viewBox="0 0 269 48">
    <path d="M118.945 32.2395V22.2315C118.945 18.3986 116.603 15.8966 112.611 15.8966C110.588 15.8966 108.458 16.5886 106.915 18.718C105.743 16.9081 104.093 15.8966 101.591 15.8966C99.9408 15.8966 98.2374 16.3757 96.9065 18.2389V16.216H93.4463V32.2395H96.9597V23.4026C96.9597 20.5812 98.4503 19.2504 100.793 19.2504C103.135 19.2504 104.306 20.7409 104.306 23.4026V32.2395H107.819V23.4026C107.819 20.5812 109.47 19.2504 111.652 19.2504C113.995 19.2504 115.166 20.7409 115.166 23.4026V32.2395H118.945ZM170.849 16.216H165.153V11.3717H161.639V16.216H158.445V19.41H161.639V26.7564C161.639 30.4295 163.13 32.6121 167.122 32.6121C168.613 32.6121 170.316 32.133 171.434 31.441L170.423 28.4598C169.411 29.1519 168.24 29.3116 167.442 29.3116C165.791 29.3116 165.099 28.3001 165.099 26.6499V19.4633H170.795V16.216H170.849ZM200.5 15.8966C198.477 15.8966 197.146 16.9081 196.348 18.2389V16.216H192.834V32.2395H196.348V23.2429C196.348 20.5812 197.519 19.0906 199.702 19.0906C200.394 19.0906 201.192 19.2503 201.884 19.41L202.896 16.0563C202.204 15.8966 201.192 15.8966 200.5 15.8966ZM155.624 17.5469C153.973 16.3757 151.631 15.8966 149.129 15.8966C145.137 15.8966 142.475 17.9195 142.475 21.0603C142.475 23.722 144.498 25.2126 147.958 25.7449L149.608 25.9046C151.418 26.224 152.43 26.7564 152.43 27.5549C152.43 28.726 151.099 29.5778 148.757 29.5778C146.414 29.5778 144.604 28.726 143.433 27.9275L141.783 30.5892C143.593 31.9201 146.095 32.6121 148.597 32.6121C153.281 32.6121 155.943 30.4295 155.943 27.4484C155.943 24.627 153.761 23.1364 150.46 22.6041L148.81 22.4444C147.319 22.2847 146.148 21.9653 146.148 20.9538C146.148 19.7827 147.319 19.1439 149.129 19.1439C151.152 19.1439 153.122 19.9956 154.133 20.4747L155.624 17.5469ZM248.73 15.8966C246.707 15.8966 245.376 16.9081 244.578 18.2389V16.216H241.064V32.2395H244.578V23.2429C244.578 20.5812 245.749 19.0906 247.932 19.0906C248.624 19.0906 249.422 19.2503 250.114 19.41L251.126 16.0563C250.38 15.8966 249.369 15.8966 248.73 15.8966ZM204.014 24.2011C204.014 29.0454 207.367 32.5589 212.531 32.5589C214.873 32.5589 216.524 32.0798 218.227 30.7489L216.577 27.9275C215.246 28.939 213.915 29.4181 212.424 29.4181C209.603 29.4181 207.58 27.3952 207.58 24.2544C207.58 21.2732 209.603 19.2503 212.424 19.0906C213.915 19.0906 215.246 19.5698 216.577 20.5812L218.227 17.7598C216.577 16.4289 214.873 15.9498 212.531 15.9498C207.367 15.8966 204.014 19.41 204.014 24.2011ZM236.38 16.216H232.866V18.2389C231.695 16.7484 230.045 15.8966 227.862 15.8966C223.337 15.8966 219.877 19.41 219.877 24.2544C219.877 29.0987 223.391 32.6121 227.862 32.6121C230.205 32.6121 231.855 31.7604 232.866 30.2698V32.2927H236.38V16.216ZM223.55 24.2011C223.55 21.3797 225.36 19.0374 228.395 19.0374C231.216 19.0374 233.239 21.22 233.239 24.2011C233.239 27.0225 231.216 29.3648 228.395 29.3648C225.36 29.2051 223.55 27.0758 223.55 24.2011ZM181.655 15.8966C176.971 15.8966 173.67 19.2503 173.67 24.2544C173.67 29.2584 177.024 32.6121 181.868 32.6121C184.21 32.6121 186.553 31.9201 188.363 30.4295L186.712 27.9275C185.382 28.939 183.731 29.5778 182.028 29.5778C179.845 29.5778 177.716 28.5663 177.184 25.7449H189.001V24.4141C189.161 19.1971 186.18 15.8966 181.655 15.8966ZM181.655 18.8777C183.838 18.8777 185.328 20.2086 185.648 22.7106H177.29C177.663 20.5812 179.153 18.8777 181.655 18.8777ZM268.586 9.88114H265.073V18.2389C263.902 16.7484 262.252 15.8966 260.069 15.8966C255.544 15.8966 252.084 19.41 252.084 24.2544C252.084 29.0987 255.597 32.6121 260.069 32.6121C262.411 32.6121 264.062 31.7604 265.073 30.2698V32.2927H268.586V9.88114ZM255.704 24.2011C255.704 21.3797 257.514 19.0374 260.548 19.0374C263.37 19.0374 265.392 21.22 265.392 24.2011C265.392 27.0225 263.37 29.3648 260.548 29.3648C257.567 29.2051 255.704 27.0758 255.704 24.2011ZM138.642 16.216H135.129V18.2389C133.957 16.7484 132.307 15.8966 130.125 15.8966C125.6 15.8966 122.139 19.41 122.139 24.2544C122.139 29.0987 125.653 32.6121 130.125 32.6121C132.467 32.6121 134.117 31.7604 135.129 30.2698V32.2927H138.642V16.216ZM125.653 24.2011C125.653 21.3797 127.463 19.0374 130.497 19.0374C133.319 19.0374 135.342 21.22 135.342 24.2011C135.342 27.0225 133.319 29.3648 130.497 29.3648C127.463 29.2051 125.653 27.0758 125.653 24.2011Z" fill="#000008"></path>
    <path d="M49.3616 5.12768H28.3616V42.8511H49.3616V5.12768Z" fill="#FF5F00"></path>
    <path d="M29.6808 24C29.6808 16.3404 33.2766 9.53191 38.8085 5.12766C34.7447 1.93617 29.617 0 24 0C10.7447 0 0 10.7234 0 24C0 37.2553 10.7234 48 24 48C29.5957 48 34.7234 46.0638 38.8085 42.8723C33.2766 38.5319 29.6808 31.6596 29.6808 24Z" fill="#EB001B"></path>
    <path d="M77.6808 24C77.6808 37.2553 66.9574 48 53.6808 48C48.085 48 42.9574 46.0638 38.8723 42.8723C44.468 38.4681 47.9999 31.6809 47.9999 24C47.9999 16.3404 44.4042 9.53192 38.8723 5.12767C42.9361 1.93618 48.0638 8.80315e-06 53.6808 8.80315e-06C66.9574 8.80315e-06 77.6808 10.7872 77.6808 24Z" fill="#F79E1B"></path>
  </symbol>
  <symbol id="visa" fill="none" xmlns="http://www.w3.org/2000/svg" viewBox="0 0 147 48" >
    <path d="M72.7284 1.47102L63.0265 46.8223H51.2951L60.9983 1.47102H72.7284ZM122.087 30.7545L128.264 13.7235L131.818 30.7545H122.087ZM135.177 46.8223H146.028L136.559 1.47102H126.543C124.292 1.47102 122.393 2.7801 121.548 4.79826L103.947 46.8223H116.267L118.713 40.0501H133.764L135.177 46.8223ZM104.558 32.0148C104.608 20.045 88.0052 19.3862 88.1201 14.0393C88.1545 12.4102 89.7062 10.6819 93.0952 10.2384C94.7789 10.0188 99.408 9.85085 104.664 12.2695L106.723 2.65235C103.899 1.62748 100.266 0.641357 95.7478 0.641357C84.1526 0.641357 75.991 6.80638 75.9221 15.6341C75.8489 22.1622 81.7484 25.8053 86.1938 27.9756C90.7641 30.199 92.2999 31.6229 92.2798 33.6109C92.2497 36.6554 88.6339 37.9961 85.2608 38.0492C79.3613 38.1425 75.9379 36.4573 73.2092 35.1856L71.0834 45.1228C73.8236 46.3816 78.8833 47.4754 84.1326 47.5314C96.4554 47.5314 104.518 41.4425 104.558 32.0148ZM55.9644 1.47102L36.9569 46.8223H24.5537L15.2007 10.6288C14.6323 8.39967 14.1385 7.58436 12.4117 6.64418C9.59403 5.11548 4.93618 3.67865 0.838135 2.78871L1.11804 1.47102H21.08C23.6236 1.47102 25.913 3.16478 26.49 6.09442L31.4307 32.3392L43.6387 1.47102H55.9644Z" fill="#1434CB"></path>
  </symbol>
  <symbol id="cirrus" fill="none" xmlns="http://www.w3.org/2000/svg" viewBox="0 0 197 53">
    <path d="M173.055 27.9181C173.086 29.1328 172.852 30.3397 172.369 31.4546C171.954 32.3843 171.338 33.21 170.565 33.8721C169.813 34.5009 168.942 34.9703 168.003 35.252C166.075 35.842 164.014 35.842 162.085 35.252C161.144 34.9692 160.27 34.4999 159.514 33.8721C158.738 33.2133 158.121 32.3867 157.71 31.4546C157.233 30.338 157.002 29.1318 157.034 27.9181V17.9582H160.822V27.5756C160.805 28.2959 160.915 29.0135 161.147 29.6956C161.332 30.2297 161.638 30.7142 162.04 31.1114C162.421 31.4736 162.882 31.7422 163.384 31.8958C164.467 32.2211 165.621 32.2211 166.704 31.8958C167.207 31.7423 167.667 31.4737 168.048 31.1114C168.451 30.7143 168.756 30.2298 168.941 29.6956C169.174 29.0137 169.284 28.2959 169.266 27.5756V17.9582H173.055V27.9181ZM138.125 17.5253C137.208 17.4982 136.301 17.719 135.5 18.1644C134.698 18.6097 134.032 19.2631 133.57 20.0557V17.9591H129.847V35.2374H133.606V25.5498C133.606 22.6944 134.835 21.1038 137.293 21.1038C138.098 21.0927 138.896 21.2402 139.643 21.5377L140.8 17.9954C139.941 17.688 139.037 17.529 138.125 17.5253ZM151.512 17.5253C150.596 17.4982 149.689 17.719 148.887 18.1644C148.086 18.6097 147.419 19.2631 146.958 20.0557V17.9591H143.235V35.2374H146.994V25.5498C146.994 22.6944 148.223 21.1038 150.681 21.1038C151.485 21.0927 152.283 21.2402 153.031 21.5377L154.187 17.9954C153.329 17.6879 152.424 17.529 151.512 17.5253ZM101.652 26.5982C101.652 31.8397 105.303 35.6713 110.87 35.6713C113.127 35.7846 115.344 35.0495 117.087 33.6106L115.28 30.5743C113.98 31.5651 112.395 32.1102 110.761 32.1286C107.761 32.0927 105.556 29.9237 105.556 26.5982C105.556 23.2728 107.761 21.1038 110.761 21.0679C112.395 21.0864 113.98 21.6315 115.28 22.6222L117.087 19.5859C115.344 18.147 113.127 17.4119 110.87 17.5253C105.303 17.5253 101.652 21.3568 101.652 26.5982ZM191.101 19.3327C188.973 18.0674 186.526 17.4401 184.052 17.5253C179.678 17.5253 176.859 19.6218 176.859 23.0557C176.859 25.8753 178.955 27.6105 182.823 28.1526L184.594 28.4056C186.655 28.6947 187.631 29.2369 187.631 30.2129C187.631 31.5503 186.257 32.3095 183.691 32.3095C181.626 32.3688 179.602 31.7322 177.943 30.5022L176.172 33.4298C178.362 34.9593 180.985 35.745 183.655 35.6713C188.643 35.6713 191.534 33.3214 191.534 30.0321C191.534 26.9958 189.257 25.4052 185.498 24.863L183.727 24.61C182.1 24.3932 180.799 24.0682 180.799 22.9115C180.799 21.6462 182.028 20.8871 184.088 20.8871C185.98 20.9156 187.834 21.4256 189.474 22.3692L191.101 19.3327ZM125.42 11.9887C125.423 12.3385 125.356 12.6853 125.222 13.0086C125.089 13.3319 124.892 13.6251 124.643 13.8708C124.394 14.1164 124.098 14.3095 123.773 14.4386C123.448 14.5678 123.1 14.6302 122.75 14.6224C122.403 14.6295 122.057 14.5663 121.734 14.4365C121.411 14.3067 121.118 14.1129 120.872 13.8669C120.626 13.6209 120.433 13.3277 120.303 13.005C120.173 12.6822 120.11 12.3365 120.117 11.9887C120.109 11.6391 120.172 11.2914 120.301 10.9663C120.43 10.6413 120.623 10.3455 120.868 10.0965C121.114 9.84749 121.407 9.6504 121.731 9.51689C122.054 9.38339 122.401 9.31621 122.75 9.31932C123.102 9.31548 123.451 9.3819 123.776 9.51469C124.102 9.64748 124.398 9.84395 124.647 10.0926C124.895 10.3412 125.092 10.637 125.225 10.9626C125.357 11.2882 125.424 11.6371 125.42 11.9887ZM124.662 35.239H120.875V17.9585H124.662V35.239ZM195.211 33.6328C195.36 33.6318 195.508 33.661 195.645 33.7188C195.778 33.774 195.898 33.8539 196 33.9541C196.102 34.0542 196.183 34.173 196.24 34.3039C196.297 34.4383 196.327 34.5831 196.327 34.7295C196.327 34.8758 196.297 35.0206 196.24 35.1551C196.183 35.2854 196.102 35.4036 196 35.5033C195.898 35.6036 195.777 35.6839 195.645 35.7399C195.508 35.7987 195.36 35.8285 195.211 35.8275C194.991 35.8297 194.775 35.7671 194.591 35.6475C194.407 35.528 194.262 35.3567 194.174 35.1551C194.116 35.0206 194.087 34.8758 194.087 34.7295C194.087 34.5832 194.116 34.4384 194.174 34.3039C194.288 34.0383 194.501 33.8281 194.768 33.7188C194.909 33.6609 195.059 33.6316 195.211 33.6328ZM195.211 35.5854C195.325 35.5862 195.437 35.5634 195.542 35.5182C195.642 35.4746 195.733 35.4125 195.811 35.3352C195.97 35.1741 196.059 34.9566 196.059 34.73C196.059 34.5033 195.97 34.2859 195.811 34.1247C195.733 34.0477 195.642 33.9861 195.542 33.9434C195.437 33.8989 195.325 33.8765 195.211 33.8775C195.095 33.8766 194.98 33.899 194.873 33.9434C194.745 33.9982 194.631 34.0837 194.543 34.1924C194.455 34.3011 194.395 34.4297 194.368 34.567C194.341 34.7043 194.348 34.8461 194.389 34.98C194.429 35.1139 194.502 35.2359 194.6 35.3352C194.681 35.4151 194.776 35.4783 194.881 35.5213C194.985 35.5642 195.098 35.586 195.211 35.5854ZM195.275 34.2163C195.383 34.2093 195.491 34.2403 195.578 34.3039C195.613 34.3326 195.641 34.369 195.659 34.4103C195.678 34.4516 195.686 34.4966 195.684 34.5418C195.686 34.5805 195.679 34.619 195.664 34.6549C195.649 34.6908 195.628 34.7232 195.6 34.7501C195.533 34.8094 195.448 34.8449 195.359 34.851L195.692 35.2356H195.431L195.122 34.8536H195.023V35.2356H194.805V34.2163H195.275ZM195.023 34.4074V34.679H195.273C195.321 34.6814 195.369 34.6697 195.41 34.6453C195.427 34.634 195.44 34.6185 195.449 34.6004C195.458 34.5822 195.462 34.562 195.461 34.5418C195.462 34.522 195.458 34.5022 195.449 34.4845C195.44 34.4668 195.427 34.4517 195.41 34.4409C195.368 34.4166 195.321 34.405 195.273 34.4074H195.023Z" fill="#000008"></path>
    <path d="M53.7952 6.03906H31.0452V46.9214H53.7952V6.03906Z" fill="#007AD0"></path>
    <path d="M32.4896 26.4802C32.486 22.543 33.3782 18.6565 35.0987 15.115C36.8192 11.5735 39.3228 8.46989 42.4201 6.03904C38.5846 3.02422 33.9782 1.14935 29.1275 0.628718C24.2768 0.108087 19.3774 0.962685 14.9895 3.09487C10.6015 5.22705 6.90194 8.55079 4.31366 12.6862C1.72537 16.8215 0.352783 21.6017 0.352783 26.4802C0.352783 31.3588 1.72537 36.1389 4.31366 40.2743C6.90194 44.4097 10.6015 47.7334 14.9895 49.8656C19.3774 51.9978 24.2768 52.8524 29.1275 52.3317C33.9782 51.8111 38.5846 49.9362 42.4201 46.9214C39.3228 44.4906 36.8192 41.3869 35.0987 37.8454C33.3783 34.304 32.486 30.4175 32.4896 26.4802Z" fill="#0066BA"></path>
    <path d="M82.0057 42.5914V41.7545H82.3432V41.5839H81.4837V41.7545H81.8213V42.5914H82.0057ZM83.6744 42.5914V41.5823H83.4109L83.1079 42.2764L82.8048 41.5823H82.5412V42.5914H82.7272V41.8302L83.0114 42.4865H83.2043L83.4885 41.8286V42.5914H83.6744Z" fill="#00A2E5"></path>
    <path d="M84.4863 26.4803C84.4864 31.3587 83.114 36.1389 80.5259 40.2742C77.9377 44.4096 74.2383 47.7333 69.8504 49.8655C65.4625 51.9977 60.5633 52.8524 55.7126 52.3318C50.862 51.8111 46.2555 49.9362 42.4201 46.9214C45.5146 44.4881 48.0165 41.384 49.7367 37.8431C51.4569 34.3022 52.3507 30.4169 52.3507 26.4803C52.3507 22.5436 51.4569 18.6583 49.7367 15.1174C48.0165 11.5765 45.5146 8.47234 42.4201 6.03904C46.2555 3.02421 50.862 1.14937 55.7126 0.628742C60.5633 0.108119 65.4625 0.962754 69.8504 3.09496C74.2383 5.22717 77.9377 8.5509 80.5259 12.6863C83.114 16.8216 84.4864 21.6018 84.4863 26.4803Z" fill="#00A2E5"></path>
  </symbol>
  <symbol id="maestro" fill="none" xmlns="http://www.w3.org/2000/svg" viewBox="0 0 244 53">
    <path d="M242.889 33.647C243.038 33.6464 243.185 33.6759 243.322 33.7336C243.454 33.79 243.575 33.8708 243.676 33.9719C243.777 34.0711 243.858 34.1888 243.915 34.3185C243.973 34.4531 244.003 34.598 244.003 34.7445C244.003 34.8911 243.973 35.036 243.915 35.1706C243.858 35.3002 243.777 35.4179 243.676 35.5172C243.574 35.6179 243.454 35.6987 243.322 35.7554C243.186 35.8138 243.038 35.8433 242.889 35.8421C242.669 35.8448 242.453 35.7826 242.268 35.6632C242.083 35.5437 241.938 35.3724 241.849 35.1706C241.792 35.0359 241.762 34.891 241.762 34.7445C241.762 34.5981 241.792 34.4532 241.849 34.3185C241.962 34.0534 242.175 33.8433 242.442 33.7336C242.583 33.6747 242.736 33.6453 242.889 33.647ZM242.889 35.5966C243.003 35.5984 243.116 35.5762 243.221 35.5316C243.321 35.4885 243.411 35.4273 243.489 35.3511C243.649 35.19 243.739 34.9719 243.739 34.7445C243.739 34.5172 243.649 34.2991 243.489 34.138C243.412 34.0614 243.321 34.0001 243.221 33.9575C243.116 33.9132 243.003 33.8911 242.889 33.8925C242.773 33.891 242.657 33.9131 242.55 33.9575C242.421 34.0125 242.308 34.0981 242.22 34.2069C242.131 34.3157 242.071 34.4444 242.044 34.5817C242.017 34.7191 242.024 34.861 242.064 34.9951C242.105 35.1292 242.177 35.2514 242.275 35.3511C242.354 35.4283 242.448 35.4896 242.55 35.5316C242.657 35.5762 242.773 35.5983 242.889 35.5966ZM242.954 34.2246C243.062 34.2171 243.17 34.2477 243.257 34.3113C243.293 34.3397 243.321 34.376 243.34 34.4175C243.359 34.4589 243.368 34.5041 243.366 34.5496C243.367 34.5886 243.36 34.6275 243.345 34.6636C243.33 34.6998 243.308 34.7323 243.279 34.759C243.213 34.8179 243.129 34.8534 243.041 34.8601L243.373 35.2428H243.113L242.803 34.8601H242.702V35.2428H242.485V34.2246H242.954ZM242.702 34.4124V34.6868H242.954C242.999 34.6998 243.047 34.6998 243.091 34.6868C243.108 34.6757 243.121 34.6605 243.13 34.6428C243.139 34.6251 243.143 34.6054 243.142 34.5857C243.143 34.5659 243.139 34.5462 243.13 34.5285C243.121 34.5108 243.108 34.4957 243.091 34.4846C243.047 34.4715 242.999 34.4715 242.954 34.4846L242.702 34.4124ZM128.945 35.2355V24.4044C128.945 20.3174 126.338 17.5663 122.143 17.5302C120.948 17.4529 119.755 17.6975 118.687 18.2386C117.618 18.7796 116.715 19.5972 116.07 20.6062C115.483 19.6272 114.642 18.8247 113.637 18.2833C112.632 17.742 111.499 17.4818 110.359 17.5302C109.365 17.4822 108.377 17.6941 107.49 18.1449C106.604 18.5957 105.85 19.2698 105.304 20.1008V17.9345H101.542V35.2211H105.34V25.6608C105.34 22.6569 107.001 21.0683 109.572 21.0683C112.142 21.0683 113.334 22.693 113.334 25.6247V35.2428H117.139V25.6608C117.139 22.6569 118.872 21.0683 121.37 21.0683C123.869 21.0683 125.169 22.693 125.169 25.6247V35.2428L128.945 35.2355ZM150.138 17.9056H146.376V20.0069C145.735 19.1792 144.904 18.5172 143.955 18.0763C143.005 17.6353 141.963 17.4282 140.917 17.4724C136.072 17.4724 132.252 21.2705 132.252 26.5489C132.252 31.8273 136.05 35.6255 140.917 35.6255C141.963 35.6696 143.005 35.4626 143.955 35.0216C144.904 34.5807 145.735 33.9186 146.376 33.091V35.185H150.138V17.9056ZM136.144 26.5706C136.144 23.5306 138.13 21.0395 141.386 21.0395C144.499 21.0395 146.593 23.4295 146.593 26.5706C146.593 29.7116 144.499 32.1017 141.386 32.1017C138.13 32.1306 136.137 29.6394 136.137 26.5995L136.144 26.5706ZM230.621 17.4724C231.894 17.4683 233.154 17.7137 234.333 18.1945C235.433 18.6329 236.436 19.283 237.286 20.108C238.123 20.9305 238.786 21.9127 239.236 22.9963C240.175 25.3116 240.175 27.9018 239.236 30.2171C238.786 31.3008 238.123 32.2831 237.286 33.1054C236.436 33.9304 235.433 34.5805 234.333 35.0189C231.945 35.9467 229.297 35.9467 226.91 35.0189C225.811 34.5821 224.809 33.9317 223.964 33.1054C223.131 32.2809 222.471 31.2991 222.021 30.2171C221.083 27.9017 221.083 25.3117 222.021 22.9963C222.471 21.9144 223.131 20.9326 223.964 20.108C224.809 19.2817 225.811 18.6313 226.91 18.1945C228.09 17.7235 229.351 17.4881 230.621 17.5013V17.4724ZM230.621 21.0323C229.879 21.0227 229.143 21.1601 228.455 21.4366C227.813 21.6935 227.23 22.0793 226.744 22.5703C226.25 23.0735 225.863 23.67 225.603 24.3249C225.048 25.7732 225.048 27.3752 225.603 28.8235C225.863 29.4758 226.251 30.0698 226.744 30.5709C227.232 31.0653 227.817 31.4537 228.462 31.7118C229.843 32.2532 231.378 32.2532 232.758 31.7118C233.405 31.4513 233.991 31.0633 234.484 30.5709C234.98 30.0714 235.371 29.4771 235.632 28.8235C236.187 27.3752 236.187 25.7732 235.632 24.3249C235.372 23.6688 234.981 23.072 234.484 22.5703C233.991 22.0805 233.404 21.695 232.758 21.4366C232.077 21.1737 231.351 21.0462 230.621 21.0611V21.0323ZM170.573 26.5995C170.573 21.2128 167.208 17.5229 162.363 17.5229C157.308 17.5229 153.756 21.2128 153.756 26.5995C153.756 32.0945 157.446 35.676 162.616 35.676C165.197 35.7665 167.721 34.9027 169.706 33.2498L167.865 30.4626C166.429 31.6117 164.65 32.2471 162.811 32.2678C160.384 32.2678 158.182 31.1486 157.641 28.0364H170.479C170.573 27.5743 170.573 27.1049 170.573 26.5995ZM157.698 25.0831C158.095 22.5847 159.612 20.8878 162.291 20.8878C164.717 20.8878 166.269 22.4042 166.667 25.0831H157.698ZM188.026 19.3065C185.896 18.041 183.447 17.4144 180.971 17.5013C176.595 17.5013 173.75 19.5953 173.75 23.0324C173.75 25.8557 175.844 27.5887 179.714 28.1303L181.484 28.383C183.541 28.6719 184.524 29.2134 184.524 30.1882C184.524 31.5241 183.152 32.2822 180.581 32.2822C178.507 32.3481 176.472 31.7121 174.804 30.477L173.035 33.4087C175.226 34.9405 177.851 35.7277 180.523 35.6544C185.513 35.6544 188.408 33.3004 188.408 30.0149C188.408 26.975 186.127 25.3864 182.372 24.8448L180.603 24.5921C178.978 24.3755 177.671 24.0505 177.671 22.8952C177.671 21.6316 178.899 20.8662 180.964 20.8662C182.895 20.8822 184.788 21.3997 186.459 22.3681L188.026 19.3065ZM204.475 17.9345H198.33V12.6922H194.532V17.9345H191.022V21.3716H194.532V29.2567C194.532 33.2715 196.084 35.6616 200.532 35.6616C202.193 35.6669 203.823 35.204 205.233 34.3257L204.15 31.1053C203.14 31.7064 201.995 32.0418 200.821 32.0801C198.943 32.0801 198.322 30.9247 198.322 29.1917V21.3933H204.511L204.475 17.9345ZM217.472 17.5013C216.555 17.4745 215.647 17.6959 214.845 18.142C214.043 18.5881 213.377 19.2423 212.916 20.0358V17.9345H209.19V35.2211H212.952V25.5525C212.952 22.6641 214.179 21.1044 216.642 21.1044C217.447 21.0926 218.247 21.2398 218.996 21.5377L220.151 17.9923C219.291 17.6848 218.385 17.5261 217.472 17.5229V17.5013Z" fill="#000008"></path>
    <path d="M53.5457 6.04923H30.8002V46.9262H53.5457V6.04923Z" fill="#7673C0"></path>
    <path d="M32.2516 26.4845C32.2485 22.5484 33.1408 18.6632 34.8609 15.1228C36.5811 11.5825 39.084 8.47985 42.1802 6.04964C38.3454 3.03583 33.74 1.16172 28.8903 0.64151C24.0407 0.121295 19.1426 0.97595 14.7557 3.10782C10.3689 5.23968 6.67032 8.56274 4.08273 12.6972C1.49513 16.8316 0.122925 21.6107 0.122925 26.4881C0.122925 31.3655 1.49513 36.1446 4.08273 40.279C6.67032 44.4135 10.3689 47.7365 14.7557 49.8684C19.1426 52.0002 24.0407 52.8549 28.8903 52.3347C33.74 51.8145 38.3454 49.9404 42.1802 46.9266C39.083 44.4956 36.5795 41.3918 34.8594 37.8501C33.1392 34.3084 32.2475 30.4218 32.2516 26.4845Z" fill="#EB001B"></path>
    <path d="M81.7577 42.5936V41.756H82.0971V41.5827H81.2378V41.756H81.5772V42.5936H81.7577ZM83.4257 42.5936V41.5827H83.1658L82.8625 42.3048L82.5592 41.5827H82.292V42.5936H82.4798V41.8355L82.7614 42.4926H82.9564L83.238 41.8355V42.6009L83.4257 42.5936Z" fill="#00A1DF"></path>
    <path d="M84.2345 26.4842C84.2344 31.362 82.8619 36.1413 80.2738 40.2759C77.6858 44.4105 73.9866 47.7335 69.5992 49.865C65.2118 51.9966 60.3132 52.8507 55.4633 52.3298C50.6134 51.8088 46.0079 49.9338 42.1733 46.919C45.2684 44.4867 47.7706 41.3831 49.4912 37.8426C51.2117 34.3021 52.1058 30.417 52.1058 26.4806C52.1058 22.5441 51.2117 18.659 49.4912 15.1185C47.7706 11.578 45.2684 8.47447 42.1733 6.0421C46.0084 3.02697 50.6146 1.15186 55.4651 0.631171C60.3156 0.11048 65.2148 0.965236 69.6025 3.09767C73.9901 5.23011 77.6891 8.55418 80.2767 12.6898C82.8642 16.8255 84.2357 21.6058 84.2345 26.4842Z" fill="#00A1DF"></path>
  </symbol>
  <symbol id="union-pay" fill="none" xmlns="http://www.w3.org/2000/svg" viewBox="0 0 229 50">
    <path d="M15.6236 0H35.5627C38.3405 0 40.0909 2.2831 39.406 5.06088L30.1213 44.9391C29.4745 47.7169 26.6967 50 23.8809 50H3.97979C1.20201 50 -0.510315 47.7169 0.136565 44.9391L9.42119 5.06088C10.0681 2.2831 12.8458 0 15.6236 0Z" fill="#ED171F"></path>
    <path d="M33.9265 1.74187e-05H56.8717C59.6495 1.74187e-05 58.3938 2.28312 57.7469 5.0609L48.4623 44.9391C47.8154 47.7169 48.0057 50 45.2279 50H22.2827C19.5049 50 17.7545 47.7169 18.4014 44.9391L27.686 5.0609C28.3329 2.28312 31.1107 1.74187e-05 33.9265 1.74187e-05Z" fill="#082F67"></path>
    <path d="M55.9585 1.74187e-05H75.8976C78.6754 1.74187e-05 80.4258 2.28312 79.7789 5.0609L70.4562 44.9391C69.8093 47.7169 67.0316 50 64.2157 50H44.2766C41.4988 50 39.7485 47.7169 40.3953 44.9391L49.68 5.0609C50.3649 2.28312 53.1427 1.74187e-05 55.9585 1.74187e-05Z" fill="#006A65"></path>
    <path fill-rule="evenodd" clip-rule="evenodd" d="M54.0559 12.7094H54.8931L55.0522 12.7129C56.6947 12.7485 58.0739 12.7783 58.7744 13.7368C59.0407 14.1174 59.1549 14.612 59.1549 15.1067C59.1549 15.5253 59.0788 15.9058 59.0027 16.2102C58.6983 17.504 58.0514 18.6075 57.062 19.3304C55.6161 20.3959 53.7515 20.3959 52.1153 20.3959H51.9631C51.8489 20.472 51.7348 20.6242 51.7348 20.6242C51.7348 20.7003 51.3543 22.2604 51.3543 22.2604C51.3543 22.2604 50.8977 24.4294 50.8215 24.7719C50.5171 24.7338 49.7181 24.7338 47.8535 24.7719C47.9296 24.3913 49.7942 16.7429 49.7942 16.7429L50.5552 13.128L50.6693 12.6714C51.0118 12.7094 51.887 12.7475 54.0559 12.7094ZM54.6267 18.265C55.3117 17.9606 55.8063 17.2757 55.9966 16.4766C56.1868 15.6014 55.9205 14.9164 55.2736 14.6501C55.2356 14.6501 53.5232 14.4979 53.5232 14.4979L53.1808 14.4598V14.612L53.1427 14.8023L52.3056 18.3792L52.2675 18.5694H52.7241C53.4091 18.5694 54.094 18.5314 54.6267 18.265Z" fill="white"></path>
    <path d="M17.9829 12.7473C17.9068 13.0898 16.5369 19.4825 16.5369 19.4825C16.2325 20.7762 16.0042 21.6895 15.2812 22.2983C14.8627 22.6408 14.368 22.793 13.7972 22.793C12.884 22.793 12.3512 22.3364 12.2751 21.4992L12.2371 21.1948L12.5034 19.4444C12.5034 19.4444 13.9494 13.6225 14.2158 12.8615C14.2158 12.8234 14.2538 12.7854 14.2538 12.7854C11.438 12.8234 10.9053 12.7854 10.9053 12.7473C10.9053 12.8234 10.8292 13.1659 10.8292 13.1659L9.34515 19.7108L9.231 20.2816L9.00269 22.108C9.00269 22.6408 9.11684 23.0974 9.3071 23.4779C9.99203 24.6575 11.8946 24.8478 12.9981 24.8478C14.406 24.8478 15.6998 24.5434 16.613 24.0106C18.1092 23.1348 18.5205 21.7691 18.8873 20.5511L18.9342 20.3957L19.0864 19.7488C19.0864 19.7488 20.5704 13.6986 20.8368 12.8995V12.8234C20.3653 12.8147 19.97 12.808 19.6383 12.8023C18.5246 12.7834 18.1295 12.7766 17.9829 12.7473Z" fill="white"></path>
    <path fill-rule="evenodd" clip-rule="evenodd" d="M59.231 29.4521L56.7957 37.4811H57.4426L57.2015 38.2973L57.2523 38.1278H57.9372C58.1275 38.1278 58.2797 38.0517 58.4319 37.9756C58.546 37.9376 58.6602 37.8615 58.8124 37.6712L60.6008 35.1598H58.2036L58.6221 33.7899H61.3619L61.7424 32.5342H59.0407L59.4973 30.9741H67.0316L66.575 32.5342H64.0635L63.645 33.7899H66.1944L65.7759 35.1598H63.0361L62.5415 35.7306H63.645L63.9113 37.481C63.924 37.5444 63.9325 37.5951 63.9395 37.6374C63.9536 37.722 63.9621 37.7727 63.9874 37.8234C64.0255 37.8995 64.368 37.9376 64.5582 37.9376H64.9007L64.406 39.6119H62.96C62.7875 39.5872 62.6629 39.5147 62.5448 39.446C62.4806 39.4086 62.4182 39.3723 62.3512 39.3455C62.199 39.2694 61.9707 39.0791 61.8946 38.7367L61.6282 36.9863L60.3725 38.6986C59.992 39.2313 59.4593 39.6499 58.546 39.6499H56.7957L56.944 39.1553H56.301L56.1488 39.6881H53.8277L53.9799 39.1553H49.2615L49.7561 37.6333H50.2128L53.1808 27.8159H55.54L55.2737 28.653C55.2737 28.653 55.9205 28.1964 56.4913 28.0442C56.9966 27.9179 59.4419 27.844 60.2586 27.8225L60.2583 27.8159H62.7697L62.8078 28.7672C62.8078 28.9194 62.9219 28.9955 63.2263 28.9955H63.7591L63.3024 30.5556H61.9326C60.753 30.6317 60.2964 30.1371 60.3344 29.5663L60.2918 28.5865L60.0301 29.4521H59.231ZM52.61 37.5191H54.4746L55.0453 35.7307H53.1427L52.61 37.5191ZM54.1321 32.4963L53.4852 34.6272C53.4852 34.6272 54.2082 34.2467 54.5887 34.1325C54.9692 34.0564 55.5781 33.9803 55.5781 33.9803L56.0347 32.4963H54.1321ZM55.0453 29.4521L54.4365 31.5069C54.4365 31.5069 55.1214 31.2025 55.502 31.0884C55.8825 30.9742 56.4533 30.9362 56.4533 30.9362L56.9099 29.4521H55.0453Z" fill="white"></path>
    <path d="M34.3072 31.3928H40.6618L40.2052 32.9149H37.6557L37.2752 34.2086H39.8627L39.4061 35.7688H36.8186L36.1717 37.8616C36.0956 38.0899 36.7805 38.128 37.0469 38.128L38.3406 37.9377L37.8079 39.6881H34.8779C34.6973 39.6881 34.5404 39.6643 34.3508 39.6355C34.3008 39.6279 34.2486 39.6199 34.193 39.612C33.9647 39.574 33.8505 39.4218 33.7364 39.2696C33.7173 39.2378 33.6972 39.2081 33.6774 39.179C33.5788 39.0337 33.4891 38.9015 33.5842 38.5846L34.4213 35.8068H32.9753L33.432 34.2086H34.8779L35.2584 32.9149H33.8125L34.3072 31.3928Z" fill="white"></path>
    <path d="M41.1564 28.653H38.5689L38.9494 27.8159H36.3619L35.715 28.9955C35.5628 29.2619 35.4486 29.4141 35.3345 29.4902C35.2584 29.5282 35.0681 29.5663 34.7637 29.5663H34.4212L33.9646 31.0884H35.1062C35.6769 31.0884 36.0955 30.8981 36.2858 30.784C36.3581 30.7598 36.4151 30.7472 36.4642 30.7363C36.5699 30.7129 36.6384 30.6977 36.7424 30.5937L37.1229 30.2512H40.6998L41.1564 28.653Z" fill="white"></path>
    <path fill-rule="evenodd" clip-rule="evenodd" d="M42.298 27.8159H44.505L44.2006 28.9194C44.2006 28.9194 44.8855 28.3486 45.3802 28.1584C45.8749 27.9681 46.9784 27.8159 46.9784 27.8159H50.5552L49.3376 31.8874C49.1093 32.5724 48.881 33.029 48.7288 33.2573C48.5766 33.4856 48.4244 33.6378 48.1199 33.8281C47.8155 33.9803 47.5492 34.0945 47.2828 34.0945C47.0545 34.1325 46.6742 34.1325 46.1797 34.1325H42.7166L41.7272 37.3669C41.7095 37.4379 41.6917 37.5007 41.6759 37.5566C41.6239 37.7402 41.5928 37.8502 41.6511 37.9377C41.6892 38.0138 41.8033 38.0899 41.9936 38.0899L43.5157 37.9377L42.9829 39.7261H41.2706C40.7379 39.7261 40.3193 39.7261 40.053 39.6881C39.9782 39.6774 39.9034 39.6727 39.8304 39.6681C39.6431 39.6564 39.4668 39.6453 39.33 39.5359C39.3089 39.5148 39.2864 39.493 39.2633 39.4706C39.119 39.3311 38.9495 39.167 38.9495 39.0031C38.9495 38.8243 39.0167 38.5782 39.1196 38.2017L39.1397 38.1279L42.298 27.8159ZM43.5918 31.2786C43.5918 31.2786 44.3148 30.6317 45.5324 30.4034C45.7988 30.3654 47.5492 30.3654 47.5492 30.3654L47.8155 29.4902H44.1245L43.5918 31.2786ZM47.0164 31.9255H43.3635L43.1352 32.6485H46.2934C46.5979 32.618 46.7075 32.6363 46.7586 32.6448C46.7714 32.647 46.7805 32.6485 46.7881 32.6485L47.0164 31.9255Z" fill="white"></path>
    <path d="M48.5763 35.388L48.7666 34.3987H47.0923L46.864 35.0836C46.826 35.1978 46.7879 35.2739 46.7118 35.3119C46.6357 35.35 46.4835 35.388 46.3313 35.388H45.7986L45.8366 34.5128H43.6677L43.5916 38.8127C43.5916 39.1171 43.6296 39.3074 43.8579 39.4596C44.0862 39.6498 44.7712 39.6879 45.7225 39.6879H47.0923L47.587 38.0517L46.4074 38.1277L46.0269 38.1658C46.0111 38.15 45.9953 38.1408 45.9769 38.13C45.9508 38.1147 45.9192 38.0962 45.8747 38.0517C45.8645 38.0314 45.8517 38.0192 45.8384 38.0066C45.8015 37.9716 45.7605 37.9326 45.7605 37.7092V36.6057L46.9782 36.5296C47.625 36.5296 47.9295 36.3013 48.1578 36.111C48.4241 35.9207 48.5002 35.6924 48.5763 35.388Z" fill="white"></path>
    <path d="M23.7287 24.7718C24.9083 24.7338 25.2889 24.7338 26.2782 24.7338L26.3923 24.6196C26.5132 23.8038 26.5861 23.4438 26.7634 22.5681C26.8094 22.341 26.8624 22.0792 26.9251 21.7657L27.0773 21.0808L27.0877 21.0325C27.3851 19.6572 27.5313 18.9814 27.3056 18.4172C27.0392 17.7703 26.4304 17.6181 25.8977 17.6181C25.5172 17.6181 24.8703 17.6942 24.2615 17.9986C24.1663 18.0557 24.0617 18.1128 23.957 18.1698C23.8524 18.2269 23.7478 18.284 23.6526 18.3411L23.8429 17.6561L23.7287 17.542C22.5043 17.8017 22.1843 17.8444 21.1107 17.9875L21.0271 17.9986L20.951 18.0747L20.9478 18.0972C20.7972 19.1897 20.6812 20.0304 20.1899 22.2224C20.0948 22.6219 19.9997 23.0309 19.9045 23.44C19.8094 23.8489 19.7142 24.2583 19.6191 24.6577L19.6572 24.7718C20.8368 24.7338 21.2173 24.7338 22.2447 24.7338L22.3208 24.6577C22.3839 24.374 22.4208 24.1817 22.4641 23.9564C22.5252 23.6378 22.5991 23.253 22.7774 22.4507C22.8261 22.2316 22.8865 21.9387 22.951 21.6253C23.0883 20.9586 23.2447 20.1996 23.3482 19.8631C23.6146 19.749 23.8809 19.6348 24.1092 19.6348C24.68 19.6348 24.642 20.1676 24.6039 20.3578C24.5659 20.7003 24.3756 21.8038 24.1473 22.7551L23.9951 23.3639C23.9318 23.7437 23.8422 24.0972 23.7481 24.4681C23.7291 24.5431 23.7099 24.6189 23.6907 24.6957L23.7287 24.7718Z" fill="white"></path>
    <path d="M30.3496 24.7337H28.9797C28.8054 24.7337 28.6312 24.7417 28.4423 24.7504C28.2187 24.7606 27.9747 24.7718 27.686 24.7718L27.6099 24.6957C27.7621 24.1249 27.8382 23.8966 27.9143 23.7063C27.9904 23.5161 28.0665 23.2877 28.1806 22.717C28.3709 21.9559 28.4851 21.4232 28.5612 20.9285C28.5992 20.7002 28.6277 20.4909 28.6563 20.2817C28.6848 20.0724 28.7134 19.8631 28.7514 19.6348L28.8275 19.5587C29.1182 19.5223 29.3568 19.486 29.5682 19.4538C29.7997 19.4186 29.9985 19.3883 30.1974 19.3684C30.5779 19.3304 30.9965 19.2543 31.6053 19.1021L31.6433 19.1401V19.1782C31.5863 19.4255 31.5292 19.6634 31.4721 19.9012C31.415 20.139 31.358 20.3768 31.3009 20.6241C31.2438 20.8715 31.1867 21.1093 31.1296 21.3472C31.0726 21.585 31.0155 21.8228 30.9584 22.0701C30.7301 23.0975 30.654 23.44 30.5779 23.7444C30.5601 23.8691 30.5423 23.9688 30.5205 24.0904C30.4959 24.2284 30.4662 24.3946 30.4257 24.6576L30.3496 24.7337Z" fill="white"></path>
    <path fill-rule="evenodd" clip-rule="evenodd" d="M39.1017 18.5693C39.4441 19.0259 39.7105 19.7489 39.368 21.271C39.2539 21.7276 38.9495 22.8691 38.3026 23.5921C37.4274 24.5434 36.2478 24.8478 35.1062 24.8478C34.6496 24.8478 33.9647 24.7717 33.47 24.5815C31.9099 23.9346 32.1382 22.2603 32.3665 21.309C32.5568 20.3958 32.9373 19.4445 33.6983 18.7215C34.7638 17.7321 36.1336 17.6941 36.7044 17.6941C37.6557 17.6941 38.569 17.8843 39.1017 18.5693ZM36.6947 21.3795C36.7139 21.3027 36.7298 21.2392 36.7425 21.1948C37.0088 20.0152 36.9708 19.2542 36.3239 19.3303C35.5248 19.3303 35.2204 20.2816 34.954 21.4612C34.9429 21.5222 34.9319 21.5816 34.921 21.6397C34.8574 21.9803 34.8018 22.2778 34.8018 22.6028C34.8018 23.3257 35.2965 23.3257 35.3726 23.3257C35.677 23.3257 35.9053 23.1355 36.1336 22.8311C36.419 22.4823 36.5987 21.7635 36.6947 21.3795Z" fill="white"></path>
    <path fill-rule="evenodd" clip-rule="evenodd" d="M63.8732 24.8479C62.6556 24.8479 62.3131 24.8479 61.1716 24.8859L61.0955 24.8098L61.2169 24.3542C60.8028 24.7006 60.3565 24.9387 59.878 24.962C59.4594 24.962 59.0028 24.8859 58.5081 24.6957C56.948 24.0868 57.1763 22.3745 57.4046 21.4613C57.5949 20.548 57.9754 19.5967 58.7364 18.8738C59.8399 17.9225 61.0956 17.6561 61.6283 17.8464C62.0232 17.9999 62.2884 18.242 62.4741 18.5279L62.5034 18.303L62.5795 18.2269C62.8298 18.1878 63.0415 18.1551 63.2308 18.1259C63.9623 18.013 64.3598 17.9516 65.3573 17.7703L65.3953 17.8844L64.7104 20.7383C64.3536 22.2842 64.1827 23.2495 64.0342 24.0877L64.0338 24.0903C63.9924 24.324 63.9528 24.5479 63.9113 24.7718L63.8732 24.8479ZM62.1654 20.4374C62.1558 19.7836 61.8672 19.4065 61.4 19.4065C60.6009 19.4065 60.2965 20.3958 60.0302 21.5374L60.0093 21.6516C59.9408 22.0254 59.878 22.3679 59.878 22.6789C59.878 23.4019 60.3726 23.4019 60.4487 23.4019C60.7532 23.4019 61.2478 23.2497 61.4381 22.9453C61.5532 22.7869 61.6575 22.5469 61.7468 22.2973C61.8237 21.9829 61.8986 21.6664 61.9706 21.3471C62.048 21.0035 62.1117 20.7045 62.1654 20.4374Z" fill="white"></path>
    <path d="M46.2172 24.7338C45.1898 24.7338 44.8474 24.7338 43.7058 24.7718L43.6678 24.6957C43.687 24.6189 43.7062 24.5432 43.7252 24.4682C43.8192 24.0972 43.9089 23.7437 43.9722 23.3639L44.1244 22.7551C44.3527 21.8038 44.543 20.7003 44.581 20.3578C44.6191 20.1676 44.6571 19.6348 44.0863 19.6348C43.858 19.6348 43.5917 19.749 43.3253 19.8631C43.2218 20.1996 43.0654 20.9586 42.9281 21.6252C42.8636 21.9386 42.8032 22.2316 42.7545 22.4507C42.5146 23.5301 42.4638 23.8535 42.3972 24.2772C42.3792 24.3912 42.3602 24.5125 42.336 24.6577L42.2598 24.7338C41.2324 24.7338 40.8519 24.7338 39.6723 24.7718L39.6343 24.6577C39.7294 24.2581 39.8245 23.8491 39.9197 23.44C40.0148 23.0309 40.1099 22.6219 40.2051 22.2224C40.6964 20.0304 40.8123 19.1897 40.963 18.0973L40.9661 18.0747L41.0422 17.9986L41.1259 17.9874C42.1995 17.8444 42.5194 17.8017 43.7439 17.542L43.858 17.6561L43.6678 18.3411C43.7629 18.284 43.8675 18.2269 43.9722 18.1698C44.0768 18.1128 44.1815 18.0557 44.2766 17.9986C44.8854 17.6942 45.5323 17.6181 45.8748 17.6181C46.4075 17.6181 47.0163 17.7703 47.2827 18.4172C47.5084 18.9814 47.3622 19.6571 47.0648 21.0325L47.0544 21.0808L46.9022 21.7657C46.6291 22.9793 46.5496 23.4188 46.4321 24.0678C46.4023 24.2328 46.3699 24.4114 46.3314 24.6196L46.2172 24.7338Z" fill="white"></path>
    <path d="M73.8047 17.7702L73.6905 17.656C72.4348 17.9224 72.2446 17.9604 71.103 18.1126L71.0269 18.1887V18.2268C70.5798 19.2634 70.3714 19.6269 70.17 19.9783C69.9944 20.2848 69.8239 20.5822 69.5049 21.309V21.1187L69.3526 17.7702L69.2385 17.656C68.9378 17.7179 68.705 17.7675 68.5098 17.809C67.8655 17.9462 67.6325 17.9958 66.7271 18.1126L66.651 18.1887C66.651 18.2268 66.651 18.2648 66.6129 18.3029C66.7273 18.8747 66.7342 18.9309 66.7952 19.424C66.8154 19.5871 66.8414 19.798 66.8793 20.0913C66.9173 20.3957 66.9554 20.6906 66.9934 20.9855C67.0315 21.2804 67.0695 21.5753 67.1076 21.8798C67.1479 22.2288 67.1834 22.5115 67.2192 22.7965C67.2849 23.3192 67.3515 23.8493 67.4501 24.8097C67.1458 25.3168 66.9298 25.7081 66.7349 26.0612C66.4178 26.6355 66.1564 27.1089 65.6616 27.8158L65.6997 27.93C66.8793 27.8919 67.1456 27.8919 68.0208 27.8919L68.2111 27.6636C68.8199 26.3318 73.8047 17.7702 73.8047 17.7702Z" fill="white"></path>
    <path d="M31.6435 17.1613C32.2143 17.4657 32.1382 18.1126 31.4533 18.5692C30.7683 19.0258 29.779 19.14 29.2082 18.8356C28.6374 18.4931 28.7135 17.8462 29.3985 17.3896C30.0834 16.933 31.0727 16.8188 31.6435 17.1613Z" fill="white"></path>
    <path d="M68.059 27.8159L67.0697 29.4902C66.7652 30.0609 66.1945 30.4795 65.2812 30.4795H63.7211L64.1777 28.9574H64.4821C64.6343 28.9574 64.7485 28.9574 64.8627 28.9194C64.9388 28.8813 65.0149 28.8433 65.0529 28.7291L65.6237 27.8159H68.059Z" fill="white"></path>
    <path d="M138.569 9.36079C138.455 11.3775 136.78 12.9757 134.726 12.9757C134.003 12.9757 133.318 12.7474 132.861 12.2527C132.442 11.7961 132.214 11.1492 132.252 10.4642C132.366 8.40949 134.041 6.84933 136.057 6.84933C136.818 6.84933 137.503 7.07768 137.96 7.57228C138.379 8.02897 138.607 8.67584 138.569 9.36079Z" fill="#4C4948"></path>
    <path d="M94.7332 41.0197C95.7226 39.8402 96.7499 39.3455 98.1959 39.3455C99.9463 39.3455 100.974 40.2587 100.898 41.933C100.898 42.275 100.822 42.6549 100.746 43.0348L100.745 43.0365L99.1091 49.5053H96.027L96.4075 48.1355L97.6251 43.4931C97.7393 43.1507 97.8154 42.8843 97.8154 42.5799C97.8535 41.8189 97.473 41.4764 96.7499 41.4764C95.2279 41.4764 94.6191 42.9604 94.3907 43.8736L92.9829 49.4673H90.0148L91.9174 41.8189C92.055 41.2962 92.1328 40.7735 92.2085 40.2652C92.2375 40.0704 92.2662 39.8777 92.2979 39.6879V39.5358H94.5049L94.7332 41.0197Z" fill="#4C4948"></path>
    <path d="M136.742 39.3455C135.296 39.3455 134.269 39.8402 133.28 41.0197L133.051 39.5358H130.844V39.6879C130.81 39.8953 130.775 40.1062 130.74 40.3194L130.722 40.4249L130.706 40.5194C130.684 40.6475 130.662 40.7763 130.639 40.9057C130.586 41.2082 130.528 41.5136 130.464 41.8189L128.561 49.4673H131.567L132.975 43.8736C133.204 42.9604 133.812 41.4764 135.334 41.4764C136.095 41.4764 136.438 41.8189 136.4 42.5799C136.4 42.7865 136.347 42.9756 136.29 43.1827L136.289 43.1863C136.276 43.2317 136.263 43.2779 136.251 43.3254C136.236 43.3795 136.222 43.4352 136.21 43.4931L134.992 48.1355L134.611 49.5053H137.656L139.292 43.0365C139.368 42.656 139.444 42.2755 139.444 41.933C139.52 40.2587 138.493 39.3455 136.742 39.3455Z" fill="#4C4948"></path>
    <path d="M181.263 40.9437C182.252 39.7641 183.28 39.2694 184.726 39.2694C186.438 39.2694 187.465 40.2207 187.427 41.8569C187.427 42.1994 187.351 42.5799 187.275 42.9604L185.639 49.4292H182.557L182.937 48.0594L184.155 43.4171C184.269 43.0746 184.345 42.8082 184.345 42.5038C184.383 41.7428 184.041 41.4003 183.28 41.4003C181.796 41.4003 181.187 42.9224 180.959 43.7976L179.551 49.3912H176.545L178.447 41.7428C178.578 41.1229 178.68 40.5028 178.779 39.9069L178.828 39.6119V39.4597H181.035L181.263 40.9437Z" fill="#4C4948"></path>
    <path fill-rule="evenodd" clip-rule="evenodd" d="M147.549 39.0791C144.2 39.0791 140.433 41.8189 140.281 46.2329C140.205 48.2116 141.232 49.4673 142.983 49.4673C144.277 49.4673 145.38 48.8204 146.217 47.4886C146.179 48.3637 146.407 48.9726 146.94 49.2389H148.614L148.653 49.0868C148.691 48.0974 148.881 46.9558 149.185 45.7002L150.631 39.5738L150.517 39.5358C149.908 39.2694 148.576 39.0791 147.549 39.0791ZM147.016 43.3029C146.446 45.624 145.228 47.3364 144.124 47.3364C143.439 47.3364 143.097 46.8798 143.135 45.9285C143.211 43.4551 145.076 41.172 147.016 41.172C147.169 41.172 147.359 41.172 147.549 41.2481L147.016 43.3029Z" fill="#4C4948"></path>
    <path fill-rule="evenodd" clip-rule="evenodd" d="M188.417 46.1949C188.569 41.7809 192.336 39.0412 195.684 39.0412C196.75 39.0412 198.044 39.2314 198.614 39.4978L198.729 39.5358L197.283 45.6621C196.978 46.9178 196.826 48.0594 196.75 49.0488V49.201H195.076C194.543 48.8965 194.315 48.3257 194.353 47.4506C193.516 48.7824 192.412 49.4293 191.118 49.4293C189.368 49.4293 188.34 48.1736 188.417 46.1949ZM192.26 47.3365C193.363 47.3365 194.581 45.6241 195.152 43.3029L195.684 41.2482L195.671 41.2428L195.656 41.2372C195.642 41.2324 195.629 41.2279 195.616 41.2238L195.598 41.2186L195.576 41.2123C195.514 41.1961 195.453 41.1864 195.394 41.1806C195.307 41.1721 195.225 41.1721 195.152 41.1721C193.211 41.1721 191.347 43.4171 191.271 45.9286C191.232 46.8798 191.537 47.3365 192.26 47.3365Z" fill="#4C4948"></path>
    <path d="M106.872 41.3623H109.459L109.878 39.6499H107.29L108.127 35.6545H106.415L104.398 39.6499H102.838L102.42 41.3623H103.98L102.686 46.7276C102.153 48.9345 103.599 49.5815 105.426 49.5434C106.72 49.5434 107.405 49.4292 108.013 49.3151L108.242 47.7931C108.172 47.7931 108.096 47.7944 108.013 47.7957H108.01C107.638 47.8019 107.141 47.8101 106.643 47.7169C105.806 47.5266 105.464 47.1461 105.73 46.0807L106.872 41.3623Z" fill="#4C4948"></path>
    <path fill-rule="evenodd" clip-rule="evenodd" d="M109.878 44.5587C110.639 41.4003 113.379 39.4217 116.004 39.4217C118.44 39.3836 120.266 41.0198 119.315 44.9011L112.77 44.9392C112.427 46.4993 113.036 47.6789 115.167 47.6789C116.501 47.6789 117.294 47.3901 117.721 47.2345L117.755 47.2223L117.945 48.8204C117.866 48.8495 117.785 48.8814 117.7 48.9149L117.676 48.9247L117.669 48.9272C116.981 49.2005 116.021 49.5815 113.683 49.5815C110.715 49.5815 109.155 47.6789 109.878 44.5587ZM113.226 43.2648H116.689C116.803 42.0092 116.499 41.3243 115.395 41.3243C114.33 41.3243 113.645 42.1995 113.226 43.2648Z" fill="#4C4948"></path>
    <path d="M127.991 39.3836C126.735 39.3836 125.403 40.6393 124.984 41.0578L125.251 39.6119H122.549L120.228 49.3151H123.082L124.68 42.618C124.712 42.5968 124.746 42.5737 124.783 42.549L124.79 42.544C125.278 42.2152 126.147 41.6286 126.887 41.6286C127.458 41.6286 127.876 41.7809 128.067 41.895L129.589 39.8402C129.36 39.688 128.866 39.3836 127.991 39.3836Z" fill="#4C4948"></path>
    <path d="M155.73 35.5403H157.442L156.605 39.5358H159.193L158.774 41.2481H156.187L155.045 46.0045C154.779 47.07 155.121 47.4505 155.958 47.6408C156.567 47.7169 157.176 47.7169 157.557 47.7169L157.328 49.2389C156.72 49.3531 156.035 49.4673 154.741 49.4673C152.952 49.5053 151.468 48.8584 152.039 46.6514L153.333 41.2481H151.773L152.153 39.5358H153.713L155.73 35.5403Z" fill="#4C4948"></path>
    <path fill-rule="evenodd" clip-rule="evenodd" d="M171.826 39.2694C168.896 39.2694 165.852 41.2481 165.129 44.3683C164.406 47.4886 166.499 49.4292 169.391 49.4292C172.321 49.4292 175.365 47.4505 176.088 44.3303C176.849 41.21 174.756 39.2313 171.826 39.2694ZM173.044 44.3303C172.663 46.0045 171.293 47.4885 169.885 47.4885C168.173 47.4885 167.793 46.0045 168.173 44.3303C168.592 42.656 169.657 41.172 171.37 41.172C172.815 41.172 173.462 42.656 173.044 44.3303Z" fill="#4C4948"></path>
    <path d="M117.26 21.9179L115.053 31.4308H109.954L112.922 18.4551C113.2 17.3451 113.35 16.2033 113.491 15.1455V15.1444L113.531 14.8402L113.569 14.6119H117.26L117.717 17.1233C119.353 15.1065 121.065 14.2694 123.5 14.2694C126.468 14.2694 128.181 15.8676 128.143 18.5312C128.143 19.1401 128.067 19.7869 127.914 20.4338L125.403 31.3927H120.228L120.837 29.0715L122.701 21.1948C122.728 21.0692 122.757 20.9458 122.786 20.824C122.822 20.6693 122.858 20.5172 122.888 20.3666C122.908 20.2663 122.926 20.1666 122.939 20.0673C122.944 20.0285 122.949 19.9897 122.953 19.9511C122.962 19.8582 122.968 19.7655 122.968 19.6728C123.006 18.4551 122.397 17.8463 121.141 17.8463C118.592 17.8463 117.602 20.3958 117.26 21.9179Z" fill="#4C4948"></path>
    <path d="M161.666 21.9179C162.009 20.3958 162.998 17.8463 165.548 17.8463C166.803 17.8463 167.412 18.4551 167.374 19.6728C167.374 20.1674 167.26 20.6621 167.108 21.1949L165.243 29.1096L164.71 31.4308H169.809L172.321 20.4719C172.473 19.825 172.549 19.1782 172.549 18.5693C172.587 15.9057 170.875 14.3075 167.945 14.3075C165.51 14.3075 163.797 15.1446 162.161 17.1614L161.704 14.6499H158.013L157.975 14.8783L157.935 15.1805C157.795 16.2394 157.644 17.3821 157.366 18.4932L154.398 31.4689H159.459L161.666 21.9179Z" fill="#4C4948"></path>
    <path fill-rule="evenodd" clip-rule="evenodd" d="M136.514 25.6089C136.666 18.9498 141.156 14.3075 147.511 14.3075C151.088 14.3075 154.627 16.2101 154.513 20.4339C154.398 26.9788 149.756 31.7732 143.554 31.7732C140.015 31.7732 136.438 29.8706 136.514 25.6089ZM141.803 25.1142C141.727 27.207 142.564 28.2345 144.315 28.2345C147.473 28.2345 149.299 23.4399 149.376 20.9666C149.414 19.5206 148.957 17.8463 146.712 17.8463C143.516 17.8463 141.841 22.4886 141.803 25.1142Z" fill="#4C4948"></path>
    <path fill-rule="evenodd" clip-rule="evenodd" d="M195.723 31.8113C198.12 31.8113 200.099 30.7079 201.659 28.4627C201.582 29.9087 202.077 30.9361 203.067 31.4308L203.105 31.4689H206.149V31.2025C206.225 29.4901 206.529 27.5875 207.024 25.4947L209.497 15.1446L209.269 15.0685C208.127 14.6499 205.692 14.3075 203.751 14.3075C197.511 14.3075 190.7 18.9118 190.547 26.3699C190.586 29.7185 192.526 31.8113 195.723 31.8113ZM202.914 17.8083C203.181 17.8083 203.561 17.8083 203.904 17.9224L203.028 21.4613C202.039 25.3806 199.832 28.2725 197.815 28.2725C196.522 28.2725 195.875 27.4735 195.913 25.8752C195.989 21.6515 199.337 17.8083 202.914 17.8083Z" fill="#4C4948"></path>
    <path fill-rule="evenodd" clip-rule="evenodd" d="M183.28 23.2877H179.36L177.534 31.3927H172.207L172.701 29.0715L177.61 8.18114H186.742C190.319 8.18114 193.059 10.6926 192.983 13.927C192.869 19.863 187.96 23.2877 183.28 23.2877ZM184.345 11.9102H182.024L180.197 19.5586H181.491C185.487 19.5586 187.618 17.3517 187.656 14.3836C187.694 12.7854 185.981 11.9102 184.345 11.9102Z" fill="#4C4948"></path>
    <path d="M98.5764 31.7351C104.627 31.7351 108.242 28.8813 109.611 23.0213L113.036 8.06697H107.671L107.328 9.7413C107.29 9.96956 104.284 22.8691 104.246 23.0213C103.523 26.1796 101.849 27.7778 99.2994 27.7778C96.9783 27.7778 95.5323 26.6742 95.5704 24.9239C95.5704 24.3911 95.6465 23.8584 95.8367 23.1355L99.2994 8.10506H93.9721L93.6678 9.66512L90.5095 23.1735C90.3572 23.9726 90.2431 24.7337 90.2431 25.5328C90.167 30.099 94.5049 31.7351 98.5764 31.7351Z" fill="#4C4948"></path>
    <path d="M136.59 14.6119L132.709 31.4688H127.534L128.105 29.1476L131.529 14.6119H136.59Z" fill="#4C4948"></path>
    <path d="M159.231 49.201H162.085L164.406 39.4978H161.552L159.231 49.201Z" fill="#4C4948"></path>
    <path d="M161.78 37.1005C161.818 35.9589 162.77 35.0457 163.949 35.0457C164.406 35.0457 164.786 35.1979 165.053 35.4643C165.281 35.7307 165.433 36.1112 165.395 36.4917C165.319 37.6333 164.368 38.5465 163.188 38.5465C162.77 38.5465 162.389 38.3943 162.123 38.1279C161.895 37.8615 161.742 37.481 161.78 37.1005Z" fill="#4C4948"></path>
    <path d="M87.884 34.7032L84.1549 49.3912H87.4274L90.9281 34.7032H87.884Z" fill="#4C4948"></path>
    <path d="M216.955 26.5982L222.891 14.688H228.257L217.45 33.7139C215.7 36.7961 213.683 39.6119 208.432 39.6119H204.703C204.436 39.6119 204.208 39.8022 204.132 40.0305L202.001 49.0868H199.147L201.621 38.6987L202.229 36.0731C202.42 35.6546 202.8 35.5404 203.028 35.5404H206.643C206.812 35.5404 206.99 35.5435 207.174 35.5466C209.151 35.5805 211.9 35.6276 212.77 32.0777L211.21 14.688H216.499L216.955 26.5982Z" fill="#4C4948"></path>
  </symbol>
</svg>