<svg width="0" height="0" class="hidden">
  <symbol id="applepay" fill="none" xmlns="http://www.w3.org/2000/svg" viewBox="0 0 133 85">
    <path d="M120.883 0.000244141H11.8904C11.4365 0.000244141 10.9817 0.000244141 10.5286 0.00289124C10.1456 0.00561855 9.76344 0.00986995 9.38129 0.0202979C8.54786 0.0428383 7.70728 0.0920102 6.88428 0.239927C6.04812 0.39041 5.27003 0.635868 4.51095 1.02234C3.76471 1.40184 3.08152 1.89821 2.48946 2.49052C1.89715 3.08283 1.40078 3.7649 1.02136 4.51194C0.634803 5.27102 0.389184 6.04934 0.239744 6.88615C0.0910329 7.70939 0.0415322 8.54981 0.0190719 9.38236C0.00880441 9.76451 0.0044006 10.1467 0.00190591 10.5287C-0.000741187 10.9828 0.000141179 11.4366 0.000141179 11.8915V73.1099C0.000141179 73.5648 -0.000741187 74.0178 0.00190591 74.4727C0.0044006 74.8548 0.00880441 75.237 0.0190719 75.6191C0.0415322 76.4509 0.0910329 77.2913 0.239744 78.1143C0.389184 78.9515 0.634803 79.7295 1.02136 80.4886C1.40078 81.2357 1.89715 81.9186 2.48946 82.51C3.08152 83.1033 3.76471 83.5996 4.51095 83.9781C5.27003 84.3657 6.04812 84.6112 6.88428 84.7616C7.70728 84.9086 8.54786 84.9586 9.38129 84.9811C9.76344 84.9898 10.1456 84.9949 10.5286 84.9967C10.9817 85.0002 11.4365 85.0002 11.8904 85.0002H120.883C121.336 85.0002 121.79 85.0002 122.243 84.9967C122.626 84.9949 123.008 84.9898 123.392 84.9811C124.223 84.9586 125.064 84.9086 125.889 84.7616C126.724 84.6112 127.502 84.3657 128.261 83.9781C129.008 83.5996 129.689 83.1033 130.283 82.51C130.874 81.9186 131.37 81.2357 131.751 80.4886C132.138 79.7295 132.384 78.9515 132.532 78.1143C132.681 77.2913 132.729 76.4509 132.752 75.6191C132.762 75.237 132.768 74.8548 132.769 74.4727C132.773 74.0178 132.773 73.5648 132.773 73.1099V11.8915C132.773 11.4366 132.773 10.9828 132.769 10.5287C132.768 10.1467 132.762 9.76451 132.752 9.38236C132.729 8.54981 132.681 7.70939 132.532 6.88615C132.384 6.04934 132.138 5.27102 131.751 4.51194C131.37 3.7649 130.874 3.08283 130.283 2.49052C129.689 1.89821 129.008 1.40184 128.261 1.02234C127.502 0.635868 126.724 0.39041 125.889 0.239927C125.064 0.0920102 124.223 0.0428383 123.392 0.0202979C123.008 0.00986995 122.626 0.00561855 122.243 0.00289124C121.79 0.000244141 121.336 0.000244141 120.883 0.000244141Z" fill="#000008"></path>
    <path d="M120.883 2.83344L122.223 2.836C122.587 2.83857 122.95 2.8425 123.315 2.85245C123.95 2.86961 124.694 2.90402 125.386 3.0282C125.988 3.13665 126.493 3.30157 126.978 3.54831C127.457 3.79144 127.895 4.11006 128.278 4.49228C128.662 4.87708 128.981 5.31617 129.227 5.79995C129.473 6.28084 129.637 6.78347 129.744 7.39005C129.868 8.07525 129.903 8.82045 129.92 9.45968C129.93 9.82049 129.935 10.1813 129.936 10.5507C129.94 10.9974 129.94 11.4439 129.94 11.8915V73.1099C129.94 73.5575 129.94 74.0032 129.936 74.4594C129.935 74.8201 129.93 75.1809 129.92 75.5424C129.903 76.1807 129.868 76.9255 129.743 77.6188C129.637 78.217 129.473 78.7197 129.226 79.203C128.98 79.6856 128.662 80.1242 128.279 80.5066C127.894 80.8916 127.457 81.2093 126.973 81.4546C126.492 81.7002 125.988 81.865 125.392 81.9723C124.685 82.0982 123.911 82.1329 123.328 82.1487C122.961 82.1569 122.596 82.1619 122.222 82.1637C121.776 82.1671 121.328 82.167 120.883 82.167H11.8904C11.8845 82.167 11.8787 82.167 11.8727 82.167C11.432 82.167 10.9904 82.167 10.5417 82.1636C10.1758 82.1619 9.81078 82.157 9.45784 82.149C8.86136 82.1329 8.08656 82.0983 7.38556 81.9731C6.7842 81.8649 6.28004 81.7002 5.79265 81.4514C5.31305 81.2082 4.87643 80.8909 4.49132 80.5051C4.10918 80.1236 3.7916 79.6864 3.54607 79.2031C3.30029 78.7203 3.13585 78.216 3.02772 77.6107C2.90274 76.9187 2.86841 76.1769 2.85125 75.543C2.84146 75.18 2.83737 74.8171 2.83504 74.4563L2.83328 73.3911V11.6102L2.83496 10.5473C2.83737 10.1843 2.84146 9.82145 2.85125 9.4588C2.86841 8.82422 2.90274 8.08207 3.02876 7.38436C3.13593 6.78443 3.30029 6.2802 3.54735 5.79498C3.79096 5.31537 4.1091 4.87756 4.49325 4.49349C4.87588 4.1107 5.31393 3.79249 5.79658 3.54703C6.27875 3.30149 6.78387 3.13665 7.38524 3.02844C8.07814 2.90394 8.82181 2.86961 9.45872 2.85237C9.82177 2.8425 10.1848 2.83857 10.5452 2.83608L11.8904 2.83344H120.883Z" fill="white"></path>
    <path d="M36.246 28.5893C37.3829 27.1673 38.1543 25.2581 37.9508 23.3071C36.2867 23.3898 34.2559 24.405 33.0801 25.828C32.0244 27.0467 31.0901 29.0359 31.3337 30.9051C33.2018 31.0671 35.0682 29.9713 36.246 28.5893Z" fill="#000008"></path>
    <path d="M37.9296 31.2701C35.2167 31.1085 32.91 32.8098 31.6144 32.8098C30.3181 32.8098 28.3342 31.3515 26.1884 31.3908C23.3955 31.4318 20.804 33.011 19.3867 35.5225C16.4716 40.5469 18.6174 47.9997 21.4522 52.0918C22.8288 54.1163 24.4879 56.3454 26.674 56.2653C28.7395 56.1842 29.5491 54.9278 32.0597 54.9278C34.5686 54.9278 35.2979 56.2653 37.4843 56.2248C39.7517 56.1842 41.1692 54.1993 42.5459 52.1729C44.1251 49.8651 44.7716 47.6367 44.8123 47.5144C44.7716 47.4739 40.4401 45.8122 40.3999 40.8296C40.359 36.6576 43.8006 34.6732 43.9626 34.5501C42.0191 31.6756 38.9824 31.3515 37.9296 31.2701Z" fill="#000008"></path>
    <path d="M61.5519 25.6239C67.4485 25.6239 71.5545 29.6885 71.5545 35.6062C71.5545 41.545 67.364 45.6307 61.4041 45.6307H54.8754V56.0131H50.1585V25.6239L61.5519 25.6239ZM54.8754 41.6714H60.2878C64.3946 41.6714 66.7319 39.4603 66.7319 35.6273C66.7319 31.7947 64.3946 29.6044 60.3089 29.6044H54.8754V41.6714Z" fill="#000008"></path>
    <path d="M72.787 49.7164C72.787 45.8411 75.7564 43.4616 81.0217 43.1666L87.0865 42.8088V41.1031C87.0865 38.639 85.4226 37.1649 82.6433 37.1649C80.0103 37.1649 78.3675 38.4282 77.9678 40.4081H73.6717C73.9244 36.4064 77.3357 33.4582 82.8115 33.4582C88.1816 33.4582 91.6141 36.3012 91.6141 40.7448V56.0131H87.2546V52.3698H87.1498C85.8654 54.8339 83.0642 56.3921 80.1581 56.3921C75.8198 56.3921 72.787 53.6965 72.787 49.7164ZM87.0865 47.7158V45.9679L81.6319 46.3046C78.9151 46.4943 77.378 47.6947 77.378 49.5901C77.378 51.5273 78.9785 52.791 81.4214 52.791C84.6013 52.791 87.0865 50.6007 87.0865 47.7158Z" fill="#000008"></path>
    <path d="M95.7298 64.1634V60.4779C96.0661 60.562 96.8241 60.562 97.2035 60.562C99.3093 60.562 100.447 59.6776 101.141 57.4032C101.141 57.361 101.542 56.0554 101.542 56.0343L93.5395 33.8584H98.4669L104.069 51.8857H104.153L109.755 33.8584H114.557L106.259 57.1713C104.364 62.5418 102.174 64.2686 97.5829 64.2686C97.2035 64.2686 96.0661 64.2264 95.7298 64.1634Z" fill="#000008"></path>
  </symbol>
  <symbol id="cvc" xmlns="http://www.w3.org/2000/svg" fill="inherit" role="img" viewBox="0 0 24 24">
    <path opacity=".2" fill-rule="evenodd" clip-rule="evenodd" d="M15.337 4A5.493 5.493 0 0013 8.5c0 1.33.472 2.55 1.257 3.5H4a1 1 0 00-1 1v1a1 1 0 001 1h16a1 1 0 001-1v-.6a5.526 5.526 0 002-1.737V18a2 2 0 01-2 2H3a2 2 0 01-2-2V6a2 2 0 012-2h12.337zm6.707.293c.239.202.46.424.662.663a2.01 2.01 0 00-.662-.663z"></path>
    <path opacity=".4" fill-rule="evenodd" clip-rule="evenodd" d="M13.6 6a5.477 5.477 0 00-.578 3H1V6h12.6z"></path>
    <path fill-rule="evenodd" clip-rule="evenodd" d="M18.5 14a5.5 5.5 0 110-11 5.5 5.5 0 010 11zm-2.184-7.779h-.621l-1.516.77v.786l1.202-.628v3.63h.943V6.22h-.008zm1.807.629c.448 0 .762.251.762.613 0 .393-.37.668-.904.668h-.235v.668h.283c.565 0 .95.282.95.691 0 .393-.377.66-.911.66-.393 0-.786-.126-1.194-.37v.786c.44.189.88.291 1.312.291 1.029 0 1.736-.526 1.736-1.288 0-.535-.33-.967-.88-1.14.472-.157.778-.573.778-1.045 0-.738-.652-1.241-1.595-1.241a3.143 3.143 0 00-1.234.267v.77c.378-.212.763-.33 1.132-.33zm3.394 1.713c.574 0 .974.338.974.778 0 .463-.4.785-.974.785-.346 0-.707-.11-1.076-.337v.809c.385.173.778.26 1.163.26.204 0 .392-.032.573-.08a4.313 4.313 0 00.644-2.262l-.015-.33a1.807 1.807 0 00-.967-.252 3 3 0 00-.448.032V6.944h1.132a4.423 4.423 0 00-.362-.723h-1.587v2.475a3.9 3.9 0 01.943-.133z"></path>
  </symbol>
  <symbol id="gpay" fill="none" xmlns="http://www.w3.org/2000/svg" viewBox="0 0 160 85">
    <path d="M117.3 0.000244141H42.5C19.125 0.000244141 0 19.1252 0 42.5002C0 65.8752 19.125 85.0002 42.5 85.0002H117.3C140.675 85.0002 159.8 65.8752 159.8 42.5002C159.8 19.1252 140.675 0.000244141 117.3 0.000244141Z" fill="white"></path>
    <path d="M117.3 3.44274C122.549 3.44274 127.649 4.48399 132.451 6.52399C137.105 8.50024 141.27 11.3265 144.882 14.9177C148.474 18.509 151.3 22.6952 153.276 27.349C155.316 32.1515 156.357 37.2515 156.357 42.5002C156.357 47.749 155.316 52.849 153.276 57.6515C151.3 62.3052 148.474 66.4702 144.882 70.0827C141.291 73.674 137.105 76.5002 132.451 78.4765C127.649 80.5165 122.549 81.5577 117.3 81.5577H42.5C37.2512 81.5577 32.1512 80.5165 27.3487 78.4765C22.695 76.5002 18.53 73.674 14.9175 70.0827C11.3262 66.4915 8.49999 62.3052 6.52374 57.6515C4.48375 52.849 3.4425 47.749 3.4425 42.5002C3.4425 37.2515 4.48375 32.1515 6.52374 27.349C8.49999 22.6952 11.3262 18.5302 14.9175 14.9177C18.5087 11.3265 22.695 8.50024 27.3487 6.52399C32.1512 4.48399 37.2512 3.44274 42.5 3.44274H117.3ZM117.3 0.000244141H42.5C19.125 0.000244141 0 19.1252 0 42.5002C0 65.8752 19.125 85.0002 42.5 85.0002H117.3C140.675 85.0002 159.8 65.8752 159.8 42.5002C159.8 19.1252 140.675 0.000244141 117.3 0.000244141Z" fill="#3C4043"></path>
    <path d="M76.2023 58.3738H72.1223V26.6263H82.9385C85.6798 26.6263 88.0173 27.5401 89.9298 29.3676C91.8848 31.1951 92.8623 33.4263 92.8623 36.0613C92.8623 38.7601 91.8848 40.9913 89.9298 42.7976C88.0385 44.6038 85.701 45.4963 82.9385 45.4963H76.2023V58.3738ZM76.2023 30.5363V41.6076H83.0235C84.6385 41.6076 85.9985 41.0551 87.061 39.9713C88.1448 38.8876 88.6973 37.5701 88.6973 36.0826C88.6973 34.6163 88.1448 33.3201 87.061 32.2363C85.9985 31.1101 84.6598 30.5576 83.0235 30.5576H76.2023V30.5363Z" fill="#3C4043"></path>
    <path d="M103.53 35.9338C106.547 35.9338 108.927 36.7413 110.67 38.3563C112.412 39.9713 113.283 42.1813 113.283 44.9863V58.3738H109.395V55.3563H109.225C107.546 57.8426 105.293 59.0751 102.488 59.0751C100.087 59.0751 98.0897 58.3738 96.4747 56.9501C94.8597 55.5263 94.0522 53.7626 94.0522 51.6376C94.0522 49.3851 94.9022 47.6001 96.6022 46.2826C98.3022 44.9438 100.576 44.2851 103.402 44.2851C105.825 44.2851 107.822 44.7313 109.373 45.6238V44.6888C109.373 43.2651 108.821 42.0751 107.695 41.0763C106.568 40.0776 105.251 39.5888 103.742 39.5888C101.468 39.5888 99.6622 40.5451 98.3447 42.4788L94.7534 40.2263C96.7297 37.3576 99.6622 35.9338 103.53 35.9338ZM98.2597 51.7013C98.2597 52.7638 98.7059 53.6563 99.6197 54.3576C100.512 55.0588 101.575 55.4201 102.786 55.4201C104.507 55.4201 106.037 54.7826 107.376 53.5076C108.715 52.2326 109.395 50.7451 109.395 49.0238C108.12 48.0251 106.356 47.5151 104.082 47.5151C102.425 47.5151 101.043 47.9188 99.9384 48.7051C98.8122 49.5338 98.2597 50.5326 98.2597 51.7013Z" fill="#3C4043"></path>
    <path d="M135.468 36.6353L121.868 67.9153H117.661L122.718 56.9715L113.751 36.6353H118.192L124.652 52.2328H124.737L131.027 36.6353H135.468Z" fill="#3C4043"></path>
    <path d="M59.9736 42.9251C59.9736 41.5948 59.8546 40.322 59.6336 39.098H42.5316V46.1105L52.381 46.1126C51.9815 48.4458 50.6959 50.4348 48.726 51.7608V56.3105H54.5888C58.0122 53.1421 59.9736 48.4586 59.9736 42.9251Z" fill="#4285F4"></path>
    <path d="M48.7283 51.7611C47.0963 52.8618 44.9946 53.5057 42.536 53.5057C37.7866 53.5057 33.7576 50.3054 32.3148 45.9917H26.267V50.6837C29.2633 56.6294 35.4215 60.7094 42.536 60.7094C47.4533 60.7094 51.5843 59.0923 54.5911 56.3086L48.7283 51.7611Z" fill="#34A853"></path>
    <path d="M31.7452 42.5107C31.7452 41.2994 31.9471 40.1286 32.3147 39.0278V34.3358H26.2669C25.0281 36.7944 24.3311 39.5697 24.3311 42.5107C24.3311 45.4517 25.0302 48.2269 26.2669 50.6856L32.3147 45.9936C31.9471 44.8928 31.7452 43.7219 31.7452 42.5107Z" fill="#FABB05"></path>
    <path d="M42.536 31.5138C45.2199 31.5138 47.6233 32.4382 49.5209 34.2445L54.7165 29.0531C51.5609 26.1142 47.4469 24.3101 42.536 24.3101C35.4236 24.3101 29.2632 28.39 26.2669 34.3358L32.3147 39.0278C33.7576 34.7141 37.7866 31.5138 42.536 31.5138Z" fill="#E94235"></path>
  </symbol>
  <symbol id="stax" fill="none" xmlns="http://www.w3.org/2000/svg" viewBox="0 0 155 56">
    <path d="M136.114 6.50217V8.12097L140.647 10.3873L136.114 12.6536V14.2724L143.911 10.3873L136.114 6.50217ZM136.114 15.8912V17.51L145.557 12.8155L155 17.51V15.8912L145.557 11.1967L136.114 15.8912ZM145.557 4.69451L136.114 0V1.6188L145.557 6.31331L155 1.6188V0L145.557 4.69451ZM155 11.0348V9.41601L150.468 7.14969L155 4.88337V3.26457L147.203 7.14969L155 11.0348ZM136.114 4.88337L154.973 14.2724V12.6536L136.114 3.26457V4.88337Z" fill="#B93BE4"></path>
    <path d="M48.9687 36.7465V28.5176H59.9765V17.5098H48.9687V6.50195H37.9608V36.7195C37.9608 46.864 46.2437 55.1468 56.4151 55.1468H60.0035V44.166H56.4151C52.2872 44.166 48.9687 40.8475 48.9687 36.7465ZM13.9487 32.4567L19.5065 42.5742C19.9112 43.3026 19.3986 44.166 18.5622 44.166H0V55.1738H21.6649C29.3542 55.1738 34.2376 46.9449 30.5413 40.2269L24.9835 30.1094C24.5788 29.381 25.0914 28.5176 25.9278 28.5176H35.5596V17.5368H22.852C15.1358 17.5368 10.2524 25.7387 13.9487 32.4567ZM133.497 28.5176H136.141V17.5098H133.794C127.292 17.5098 121.221 20.5046 117.282 25.4689C113.316 20.4776 107.272 17.5098 100.77 17.5098H98.423V28.5176H101.067C105.896 28.5176 109.943 31.8631 111.05 36.3418C109.943 40.8205 105.896 44.166 101.067 44.166H98.423V35.9911C98.423 25.4149 89.8164 16.8083 79.2132 16.8083C68.6371 16.8083 60.0035 25.4149 60.0035 35.9911C60.0035 46.5672 68.6371 55.1738 79.2132 55.1738H85.0139V44.166H79.2132C74.6806 44.166 71.0113 40.4967 71.0113 35.9911C71.0113 31.4854 74.6806 27.8161 79.2132 27.8161C83.7459 27.8161 87.4151 31.4854 87.4151 35.9911V55.1738H100.77C107.272 55.1738 113.343 52.179 117.282 47.2147C121.248 52.206 127.292 55.1738 133.794 55.1738H136.141V44.166H133.497C128.668 44.166 124.621 40.8205 123.514 36.3418C124.594 31.8361 128.641 28.5176 133.497 28.5176Z" fill="#1D1D1B"></path>
  </symbol>
  <symbol id="swift" fill="none" xmlns="http://www.w3.org/2000/svg" viewBox="0 0 145 50">
    <path d="M24.9278 0C20.0002 0 15.2176 1.44928 11.1597 4.2029C7.10169 6.95652 3.91328 10.8696 2.02922 15.3623C0.145167 20 -0.289616 24.9275 0.579949 29.8551C1.44951 34.7826 3.76836 39.1304 7.24662 42.6087C10.7249 46.087 15.2176 48.5507 20.0002 49.4203C24.7828 50.4348 29.8553 49.8551 34.3481 47.971C38.8408 46.087 42.7539 42.8986 45.5075 38.6957C48.2611 34.6377 49.7104 29.7101 49.7104 24.7826C49.7104 18.1159 47.1017 11.7391 42.464 7.10145C37.8263 2.6087 31.4495 0 24.9278 0ZM1.73937 25.942H9.42053C9.42053 29.4203 10.0002 32.8986 11.0147 36.2319H4.63792C2.89879 33.0435 1.8843 29.4203 1.73937 25.942ZM25.7973 12.029V1.88406C30.1452 2.31884 33.9133 6.23188 36.2321 12.029H25.7973ZM36.8118 13.7681C37.8263 17.1014 38.406 20.5797 38.551 24.058H25.7973V13.7681H36.8118ZM23.9133 1.88406V12.029H13.4785C15.7973 6.23188 19.7104 2.31884 23.9133 1.88406ZM23.9133 13.7681V24.058H11.1597C11.1597 20.5797 11.7394 17.1014 12.8988 13.7681H23.9133ZM9.42053 24.058H1.73937C1.8843 20.4348 2.89879 16.9565 4.63792 13.7681H11.0147C10.0002 17.1014 9.56546 20.5797 9.42053 24.058ZM11.1597 25.942H23.9133V36.2319H12.8988C11.8843 32.8986 11.3046 29.4203 11.1597 25.942ZM23.9133 37.971V48.1159C19.5655 47.6812 15.7973 43.7681 13.4785 37.971H23.9133ZM25.7973 48.1159V37.8261H36.2321C33.9133 43.7681 30.1452 47.6812 25.7973 48.1159ZM25.7973 36.087V25.7971H38.551C38.551 29.2754 37.9712 32.7536 36.8118 36.087H25.7973ZM40.2901 25.942H47.9712C47.8263 29.5652 46.8118 33.0435 45.0727 36.2319H38.6959C39.7104 32.7536 40.2901 29.4203 40.2901 25.942ZM40.2901 24.058C40.2901 20.5797 39.7104 17.1014 38.6959 13.7681H45.0727C46.8118 16.9565 47.8263 20.4348 47.9712 24.058H40.2901ZM44.0582 12.029H38.1162C37.5365 10.4348 36.8118 8.98551 35.9423 7.53623C34.9278 5.7971 33.7684 4.34783 32.3191 3.04348C37.1017 4.63768 41.1597 7.82609 44.0582 12.029ZM17.3915 3.04348C16.0872 4.34783 14.7828 5.7971 13.7684 7.53623C12.8988 8.98551 12.1742 10.4348 11.5944 12.029H5.65241C8.55096 7.82609 12.6089 4.63768 17.3915 3.04348ZM5.65241 37.971H11.5944C12.1742 39.5652 12.8988 41.0145 13.7684 42.4638C14.7828 44.058 15.9423 45.6522 17.3915 46.9565C12.6089 45.3623 8.55096 42.1739 5.65241 37.971ZM32.3191 46.9565C33.7684 45.6522 34.9278 44.2029 35.9423 42.4638C36.8118 41.0145 37.5365 39.4203 38.1162 37.971H44.0582C41.1597 42.1739 37.1017 45.3623 32.3191 46.9565ZM118.116 17.8261H114.058V40.1449H118.116V17.8261ZM116.087 14.7826C117.536 14.7826 118.841 13.6232 118.841 12.029C118.841 10.4348 117.681 9.27536 116.087 9.27536C114.638 9.27536 113.334 10.4348 113.334 12.029C113.334 13.6232 114.638 14.7826 116.087 14.7826ZM126.377 23.7681H132.319V20.2899H126.377V17.1014C126.377 14.7826 127.971 13.4783 130.725 13.4783H132.319V9.42029H130.725C125.507 9.42029 122.319 12.3188 122.319 16.9565V40.2899H126.377V23.7681ZM143.334 40.2899H144.928V36.2319H143.334C140.58 36.2319 138.986 34.9275 138.986 32.6087V23.7681H144.928V20.2899H138.986V9.42029H134.928V32.7536C134.928 37.2464 138.116 40.1449 143.334 40.2899ZM92.0292 40.2899L96.0872 23.6232L100.145 40.2899H104.783L111.015 17.971H106.812L102.464 35.0725L98.2611 17.971H93.7683L89.5655 35.0725L85.2176 17.971H81.1597L87.3915 40.2899H92.0292ZM70.0002 36.5217C66.522 36.5217 63.6234 34.3478 62.6089 32.1739L58.8408 34.2029C60.5799 38.1159 64.9278 40.7246 69.8553 40.7246C76.2321 40.7246 80.7249 37.1014 80.7249 31.8841C80.7249 19.8551 63.7684 24.9275 63.7684 17.971C63.7684 14.9275 66.377 13.4783 70.0002 13.4783C72.8988 13.4783 75.5075 15.0725 77.1017 17.1014L80.2901 14.3478C78.1162 11.3043 74.2031 9.56522 70.0002 9.56522C63.4785 9.56522 59.4205 13.6232 59.4205 17.971C59.4205 29.7101 76.522 23.913 76.522 32.029C76.522 34.6377 73.9133 36.5217 70.0002 36.5217Z" fill="#333D3E"></path>
  </symbol>  
  <symbol id="stripe" fill="none" xmlns="http://www.w3.org/2000/svg" viewBox="0 0 152 63" >
    <path d="M82.0435 8.52446L71.4775 10.792V2.2256L82.0435 0V8.52446Z" fill="#635BFF"></path>
    <path d="M39.1056 4.87065L28.8343 7.054L28.7922 40.6861C28.7922 46.9002 33.4648 51.4769 39.695 51.4769C43.1468 51.4769 45.6725 50.847 47.0617 50.0913V41.5678C45.7146 42.1136 39.0635 44.0451 39.0635 37.8309V22.9253H47.0617V13.982H39.0635L39.1056 4.87065Z" fill="#635BFF"></path>
    <path fill-rule="evenodd" clip-rule="evenodd" d="M151.543 32.498C151.543 21.7492 146.323 13.2677 136.346 13.2677C126.328 13.2677 120.266 21.7492 120.266 32.414C120.266 45.0523 127.422 51.4344 137.693 51.4344C142.703 51.4344 146.491 50.3007 149.354 48.7052V40.3077C146.491 41.7353 143.208 42.617 139.04 42.617C134.957 42.617 131.337 41.1894 130.874 36.2349H151.459C151.459 36.0035 151.474 35.4778 151.491 34.8721L151.491 34.8707L151.491 34.8693L151.491 34.8682C151.515 34.046 151.543 33.0776 151.543 32.498ZM130.747 28.5097C130.747 23.7645 133.652 21.7909 136.304 21.7909C138.872 21.7909 141.608 23.7645 141.608 28.5097H130.747Z" fill="#635BFF"></path>
    <path d="M14.2283 22.3797C11.9972 22.3797 10.6501 23.0095 10.6501 24.6471C10.6501 26.435 12.9684 27.2215 15.8446 28.1972C20.5333 29.7878 26.7045 31.8814 26.7306 39.6366C26.7306 47.1524 20.711 51.4771 11.9551 51.4771C8.3349 51.4771 4.37793 50.7634 0.46305 49.0839V39.0908C3.99907 41.0222 8.46118 42.4498 11.9551 42.4498C14.3124 42.4498 15.9963 41.82 15.9963 39.8886C15.9963 37.9081 13.4832 37.0029 10.4492 35.91C5.82866 34.2457 0 32.1462 0 25.1509C0 17.7191 5.68288 13.2684 14.2283 13.2684C17.7222 13.2684 21.174 13.8143 24.6679 15.1998V25.0669C21.4687 23.3454 17.4275 22.3797 14.2283 22.3797Z" fill="#635BFF"></path>
    <path d="M60.1542 17.0888L59.4807 13.9817H50.3881V50.7209H60.9119V25.8222C63.3955 22.5892 67.6051 23.177 68.91 23.6389V13.9817C67.563 13.4779 62.6378 12.5541 60.1542 17.0888Z" fill="#635BFF"></path>
    <path d="M71.4768 13.9823H82.0428V50.7214H71.4768V13.9823Z" fill="#635BFF"></path>
    <path fill-rule="evenodd" clip-rule="evenodd" d="M95.7656 16.5427C97.239 15.1991 99.891 13.2677 104.016 13.2677C111.383 13.2677 118.329 19.9017 118.371 32.0782C118.371 45.3882 111.509 51.4345 103.974 51.4345C100.27 51.4345 98.0388 49.8809 96.5234 48.7892L96.4813 60.6717L85.9574 62.8971V13.9395H95.2184L95.7656 16.5427ZM96.5236 40.2257C97.5339 41.3175 99.0073 42.1993 101.491 42.1993C105.364 42.1993 107.974 38.0001 107.974 32.3731C107.974 26.8721 105.322 22.5889 101.491 22.5889C99.0915 22.5889 97.576 23.4287 96.4816 24.6465L96.5236 40.2257Z" fill="#635BFF"></path>
  </symbol>
  <symbol id="payline" fill="none" xmlns="http://www.w3.org/2000/svg" viewBox="0 0 155 45">
    <path d="M144.249 9.8779C144.432 10.0751 144.57 10.2724 144.753 10.519C144.891 10.7162 145.028 10.8641 145.165 11.0614C145.349 11.2586 145.532 11.5052 145.67 11.7024C145.807 11.8997 145.991 12.0969 146.128 12.2942C146.311 12.5407 146.495 12.7873 146.677 13.0338C146.861 13.2804 146.998 13.4776 147.182 13.7241C147.365 13.9214 147.503 14.1187 147.686 14.3159C147.823 14.5132 147.961 14.6611 148.098 14.8584C148.282 15.1049 148.511 15.3515 148.695 15.598C148.877 15.7953 149.016 16.0418 149.198 16.2391C149.337 16.4364 149.519 16.5843 149.658 16.7815C149.749 16.8802 149.795 16.9787 149.886 17.0773C149.978 17.2252 150.116 17.324 150.207 17.4719C150.298 17.5705 150.39 17.7184 150.482 17.8171C150.574 17.9157 150.711 18.0636 150.758 18.2115C150.895 18.4088 151.078 18.5567 151.216 18.8033C151.307 18.9512 151.444 19.0498 151.537 19.1977C151.72 19.4443 151.949 19.7402 152.132 19.9867C152.223 20.1346 152.361 20.2333 152.453 20.3813C152.59 20.5784 152.728 20.7263 152.865 20.9236C152.957 21.0716 153.095 21.1703 153.186 21.3182C153.323 21.5153 153.462 21.7126 153.599 21.9099C153.737 22.1071 153.92 22.3043 154.102 22.5016C154.241 22.6496 154.332 22.7975 154.423 22.9454C154.562 23.0934 154.516 23.2413 154.378 23.3892C154.195 23.6357 154.011 23.8824 153.783 24.1289C153.644 24.3261 153.462 24.5234 153.323 24.6714C153.141 24.8685 153.002 25.1152 152.82 25.3123C152.681 25.5096 152.499 25.7069 152.361 25.9042C152.178 26.1013 152.041 26.3479 151.902 26.5451C151.765 26.7424 151.581 26.9397 151.444 27.1368C151.353 27.2847 151.216 27.4328 151.123 27.5807C150.986 27.7779 150.849 27.9258 150.711 28.1231C150.574 28.271 150.482 28.419 150.344 28.5669C150.161 28.8134 149.932 29.06 149.749 29.3065C149.611 29.5038 149.428 29.7011 149.29 29.8983C149.107 30.0955 148.923 30.3421 148.786 30.5393C148.695 30.6873 148.556 30.8352 148.465 30.9831C148.328 31.1804 148.144 31.3777 148.007 31.5748C147.87 31.7721 147.686 31.9694 147.549 32.1667C147.319 32.4132 147.135 32.7091 146.907 32.9556C146.677 33.2514 146.449 33.5473 146.219 33.8433C146.035 34.0404 145.853 34.2871 145.715 34.4842C145.577 34.6815 145.44 34.8788 145.256 35.0759C145.119 35.2732 144.936 35.4705 144.798 35.6678C144.661 35.8649 144.477 36.0622 144.34 36.2595C144.34 36.2595 144.294 36.2595 144.249 36.3087C144.249 27.5314 144.249 18.7539 144.249 9.97653C144.203 9.8779 144.249 9.8779 144.249 9.8779Z" fill="#7FA9B3"></path>
    <path fill-rule="evenodd" clip-rule="evenodd" d="M5.15014 10.752H0.5C0.5 21.8529 0.5 32.9995 0.591179 44.146H5.42368V32.4536C5.56186 32.6191 5.7168 32.7511 5.86818 32.8801C5.96651 32.9639 6.06334 33.0464 6.15311 33.136C6.83696 33.773 7.65757 34.2733 8.52376 34.5919C9.7547 35.0468 10.9856 35.0468 12.2621 34.9559C13.0827 34.9103 13.9033 34.7738 14.724 34.5464C15.5902 34.3189 16.3652 33.9549 17.0034 33.3635C18.052 32.408 18.7359 31.2251 19.1918 29.9057C19.602 28.6774 19.8755 27.449 19.9668 26.1296C20.058 25.2197 20.1491 24.3098 20.1491 23.3998C20.1491 22.399 20.1036 21.3526 20.058 20.3516C20.0123 19.7148 19.9212 19.0778 19.83 18.4409C19.6932 17.622 19.5109 16.8029 19.2829 15.984C18.9638 14.8921 18.4623 13.9367 17.7329 13.0723C17.1402 12.3443 16.4563 11.7984 15.6357 11.4344C14.9975 11.116 14.3136 10.934 13.6298 10.752C12.4901 10.479 11.3503 10.388 10.2106 10.5245C9.34438 10.6155 8.47818 10.8885 7.70316 11.2524C6.92814 11.6619 6.1987 12.1624 5.56045 12.7993C5.42368 12.8903 5.2869 13.0268 5.15014 13.1633V10.752ZM14.9063 19.5327C15.1343 20.5337 15.2254 21.6255 15.1343 22.6719C15.1343 22.8297 15.137 22.9904 15.1399 23.1525C15.1485 23.6443 15.1573 24.1491 15.0886 24.6283C14.9518 25.9931 14.7695 27.4034 14.0857 28.6319C13.493 29.7238 12.6268 30.4062 11.3959 30.5883C10.8033 30.6792 10.2106 30.7247 9.61793 30.6792C8.52376 30.5883 7.5664 30.1332 6.88255 29.2233C6.1987 28.3589 5.83398 27.358 5.60604 26.3116C5.51486 25.7202 5.42368 25.0832 5.37809 24.4918C5.36669 24.2643 5.35244 24.0368 5.3382 23.8093C5.29545 23.1269 5.25272 22.4444 5.2869 21.762C5.33249 20.1697 5.56045 18.5773 6.38105 17.1214C7.0649 15.8931 8.06787 15.1196 9.48115 14.8921C10.2106 14.8011 10.94 14.7556 11.6694 15.0286C12.6268 15.347 13.3563 15.984 13.9033 16.8485C14.4049 17.6674 14.724 18.5773 14.9063 19.5327Z" fill="#183B56"></path>
    <path fill-rule="evenodd" clip-rule="evenodd" d="M37.8106 33.4112V35.536C39.4244 35.536 40.9922 35.536 42.6058 35.5832V18.1588C42.6058 17.2615 42.4676 16.3644 42.1448 15.4672C41.5455 13.8144 40.4388 12.5867 38.9173 11.7368C37.9951 11.2173 37.0269 10.934 35.9664 10.7451C34.9059 10.6035 33.8455 10.4618 32.785 10.4618C32.3239 10.4618 31.8629 10.4618 31.4018 10.509C30.9868 10.509 30.618 10.509 30.203 10.6035C29.1886 10.7923 28.1743 11.0284 27.252 11.4534C25.961 12.0201 24.8545 12.7756 24.0245 13.9089C23.9323 14.0506 23.9784 14.0978 24.0707 14.1923C24.2551 14.3339 24.4394 14.5228 24.6239 14.7117C24.9006 14.995 25.1887 15.2665 25.477 15.5381C25.7651 15.8096 26.0532 16.0811 26.3299 16.3644C26.4452 16.4588 26.5489 16.5651 26.6527 16.6713C26.7564 16.7776 26.8602 16.8838 26.9755 16.9783C27.0676 17.0727 27.1598 17.12 27.2982 16.9783C27.4519 16.7893 27.6055 16.6425 27.7593 16.4955C27.8361 16.4221 27.9129 16.3487 27.9898 16.2699C28.5431 15.7506 29.1886 15.3727 29.8802 15.1367C30.8484 14.7588 31.8628 14.6173 32.9232 14.7588C33.7071 14.8533 34.4909 14.9478 35.2287 15.231C36.3353 15.6561 37.1191 16.3644 37.4419 17.5449C37.5739 17.9958 37.6219 18.4896 37.6661 18.9444C37.6681 18.9659 37.6703 18.9873 37.6724 19.0088C37.7028 19.4461 37.693 19.8835 37.6828 20.3345C37.6777 20.5652 37.6724 20.7996 37.6724 21.0393H37.5341C35.2747 21.0393 32.9695 21.0393 30.664 21.0865C30.203 21.0865 29.7419 21.1337 29.2809 21.1809C28.0821 21.3225 26.9755 21.7476 25.961 22.4086C24.7161 23.2114 23.794 24.2975 23.333 25.7614C23.0102 26.753 22.8719 27.7919 23.0102 28.8307C23.0563 29.0905 23.0908 29.362 23.1255 29.6334C23.16 29.9049 23.1945 30.1764 23.2408 30.4363C23.4712 31.475 23.8862 32.4195 24.5778 33.2222C25.2233 34.0251 26.0532 34.5916 26.9755 35.0167C28.0819 35.4889 29.1886 35.7249 30.3413 35.7249C31.1712 35.7249 32.0011 35.6777 32.8311 35.5832C33.4305 35.536 34.0299 35.4417 34.6293 35.3C35.413 35.1112 36.1047 34.6389 36.7963 34.1667C37.1191 33.9307 37.4419 33.6944 37.8106 33.4112ZM37.7184 24.5808V27.0363C37.6724 27.6502 37.6263 28.2641 37.488 28.878C37.3496 29.4919 36.9346 29.9641 36.4736 30.389C35.7819 31.0028 34.9982 31.3334 34.122 31.475C33.5227 31.5695 32.9232 31.6639 32.3239 31.5695C32.0933 31.5459 31.8628 31.534 31.6322 31.5224C31.4018 31.5105 31.1712 31.4987 30.9407 31.475C30.1107 31.3807 29.2807 31.1445 28.6353 30.5306C28.2664 30.1529 27.9897 29.6807 27.8976 29.114C27.7593 28.4058 27.7132 27.6974 27.9437 26.9892C28.2204 26.1863 28.7275 25.6669 29.4192 25.2419C30.203 24.7697 31.079 24.5808 32.0011 24.5808H37.7184Z" fill="#183B56"></path>
    <path fill-rule="evenodd" clip-rule="evenodd" d="M120.617 26.8565C120.43 26.1504 120.336 25.4443 120.243 24.6911C125.626 24.6911 130.915 24.6911 136.345 24.644C136.349 24.6039 136.353 24.5641 136.356 24.5247C136.399 24.053 136.439 23.6153 136.439 23.1377C136.439 22.9665 136.426 22.8081 136.414 22.6558C136.403 22.5148 136.392 22.379 136.392 22.2432C136.392 21.7254 136.345 21.2075 136.299 20.6898C136.205 19.9837 136.111 19.3247 135.971 18.6185C135.643 17.0651 135.081 15.6058 134.145 14.2876C133.584 13.4403 132.881 12.7342 132.086 12.1693C130.494 11.0866 128.715 10.5688 126.796 10.4746C126.164 10.4393 125.532 10.4835 124.9 10.5276C124.69 10.5423 124.479 10.557 124.268 10.5688C123.426 10.6159 122.63 10.8512 121.834 11.1337C120.43 11.6515 119.26 12.4988 118.277 13.6286C117.715 14.2405 117.247 14.9467 116.919 15.6999C116.545 16.5001 116.264 17.3004 116.03 18.1007C115.655 19.2775 115.515 20.4544 115.421 21.6784C115.375 22.3844 115.375 23.0435 115.421 23.7497C115.421 24.2518 115.463 24.7539 115.505 25.256C115.525 25.507 115.546 25.7581 115.562 26.0091C115.609 26.9036 115.843 27.798 116.124 28.6453C116.545 30.1047 117.2 31.3757 118.183 32.5054C119.026 33.494 120.056 34.2472 121.273 34.812C122.583 35.377 123.988 35.6594 125.392 35.7066C126.375 35.7536 127.311 35.7065 128.294 35.6123C128.903 35.5653 129.511 35.4711 130.073 35.3299C131.196 35.0474 132.273 34.6709 133.256 34.0589C134.099 33.541 134.894 32.882 135.55 32.0817C135.643 31.9876 135.643 31.8934 135.55 31.7993C135.316 31.564 135.081 31.3403 134.847 31.1168C134.613 30.8931 134.379 30.6696 134.145 30.4341L132.601 28.8807C132.39 29.0455 132.191 29.2103 131.992 29.3749C131.793 29.5397 131.594 29.7045 131.384 29.8693C130.073 30.9049 128.528 31.4227 126.843 31.4697C126.141 31.5169 125.392 31.3757 124.69 31.2344C123.894 31.0461 123.145 30.7166 122.536 30.1987C121.507 29.3044 120.945 28.1275 120.617 26.8565ZM131.29 20.9722H120.336C120.383 20.5485 120.383 20.1248 120.383 19.7012C120.406 19.6079 120.43 19.5134 120.453 19.4179C120.571 18.9354 120.695 18.4311 120.851 17.9595C121.413 16.4531 122.396 15.3232 123.941 14.8525C125.486 14.3818 127.03 14.4759 128.481 15.2762C129.511 15.8411 130.166 16.7355 130.588 17.7711C130.822 18.3831 131.009 19.0421 131.149 19.7012C131.212 19.9837 131.233 20.2661 131.253 20.5485C131.264 20.6898 131.274 20.831 131.29 20.9722Z" fill="#183B56"></path>
    <path d="M60.9809 10.4618C62.7774 10.4618 64.6212 10.4618 66.4649 10.4618C66.4649 10.5538 66.4649 10.5998 66.4177 10.6917C65.9448 11.9334 65.4721 13.2211 64.9993 14.4628C64.6212 15.3826 64.2903 16.3484 63.912 17.2681C63.3448 18.7857 62.7301 20.3034 62.1628 21.8669C61.7372 22.9707 61.3118 24.0745 60.8864 25.1782C60.319 26.6959 59.7044 28.2595 59.1372 29.7771C58.7116 30.9268 58.2862 32.0766 57.8134 33.2263C57.2934 34.6059 56.7733 35.9855 56.2061 37.3652C55.7333 38.561 55.3077 39.7567 54.7405 40.9064C53.984 42.47 52.6604 43.5277 50.911 43.9417C50.4383 44.0336 49.9655 44.0795 49.4928 44.1256C48.8309 44.1716 48.169 44.1256 47.5072 44.1256C46.7508 44.1256 46.0416 44.1256 45.2379 44.1256C45.2379 42.6999 45.2379 41.2282 45.2379 39.7107C45.4743 39.7107 45.6635 39.7107 45.8998 39.7107C46.7035 39.7107 47.46 39.7107 48.2637 39.7107C49.5401 39.6646 50.6747 38.9749 51.1002 37.7791C51.6202 36.4455 52.093 35.0657 52.5657 33.6861C52.6604 33.4102 52.4712 33.2263 52.4239 32.9964C52.0457 31.9385 51.6675 30.9268 51.2893 29.915C50.7692 28.4894 50.202 27.0638 49.6819 25.6381C49.02 23.9365 48.4055 22.2349 47.7436 20.5334C47.129 18.8778 46.4672 17.2221 45.8526 15.5666C45.2852 14.0029 44.6707 12.4393 44.1033 10.8757C44.0561 10.8297 44.0561 10.7377 44.0088 10.6458C45.7106 10.6458 47.46 10.6458 49.1618 10.6458C49.3037 10.6458 49.351 10.7377 49.351 10.8297C49.6346 11.6575 49.9182 12.4853 50.202 13.3131C50.8165 15.0147 51.3838 16.7163 51.9985 18.4178C52.5657 20.0275 53.1331 21.637 53.7004 23.2927C54.1731 24.6264 54.6459 25.96 55.1186 27.2937C55.1186 27.3397 55.1659 27.3856 55.2132 27.4316C57.1989 21.683 59.0899 16.0724 60.9809 10.4618Z" fill="#183B56"></path>
    <path d="M107.574 34.3215C107.574 34.2315 107.574 34.0965 107.574 34.0066C107.574 29.1479 107.574 24.3342 107.574 19.4756C107.574 18.2609 107.207 17.1362 106.381 16.1465C105.692 15.2917 104.728 14.8418 103.672 14.7519C103.167 14.7069 102.662 14.6619 102.157 14.7069C100.826 14.8418 99.6781 15.3367 98.8977 16.4614C98.3468 17.2262 98.0713 18.0809 97.9335 19.0257C97.8876 19.3406 97.8876 19.6555 97.8876 19.9704C97.8876 24.6491 97.8876 29.2829 97.8876 33.9616C97.8876 34.0516 97.8876 34.1415 97.8876 34.2765C96.2349 34.2765 94.5821 34.2765 92.9294 34.2765C92.9294 26.4037 92.9294 18.5308 92.9294 10.658C94.4904 10.658 96.0512 10.658 97.6581 10.658C97.6581 11.4228 97.6581 12.1876 97.6581 13.0423C97.9794 12.7724 98.2548 12.5025 98.5762 12.2775C99.6781 11.4678 100.872 10.9279 102.249 10.658C103.167 10.478 104.085 10.433 105.004 10.478C106.059 10.523 107.115 10.748 108.079 11.1978C109.044 11.6477 109.87 12.2775 110.604 13.0423C111.339 13.8971 111.89 14.8868 112.165 16.0115C112.395 16.9113 112.487 17.811 112.487 18.7108C112.487 20.2853 112.533 21.8599 112.533 23.4345C112.533 26.3137 112.579 29.1929 112.579 32.0721C112.579 32.7919 112.579 33.5567 112.579 34.3215C110.834 34.3215 109.227 34.3215 107.574 34.3215Z" fill="#183B56"></path>
    <path d="M69.0693 0.637207C70.784 0.637207 72.4523 0.637207 74.1669 0.637207C74.1669 0.728809 74.1669 0.820412 74.1669 0.912014C74.1669 9.84325 74.1669 18.7286 74.1669 27.614C74.1669 28.3469 74.3524 29.0798 74.9085 29.6293C75.2329 29.9499 75.6499 30.1332 76.1134 30.1332C76.8548 30.1332 77.55 30.1789 78.2914 30.1789C78.4769 30.1789 78.7086 30.1789 78.8939 30.1332C78.8939 31.5071 78.8939 32.8812 78.8939 34.3011C78.7549 34.3011 78.7086 34.3011 78.6158 34.3011C77.4109 34.3011 76.2524 34.3469 75.0474 34.3011C73.7036 34.2553 72.4986 33.843 71.4792 33.0187C70.2279 32.0568 69.5327 30.7286 69.2547 29.2171C69.1157 28.4844 69.0693 27.7057 69.0693 26.9728C69.0693 18.2707 69.0693 9.61424 69.0693 0.912014C69.0693 0.866213 69.0693 0.77461 69.0693 0.637207Z" fill="#183B56"></path>
    <path d="M83.1053 10.4618C84.7531 10.4618 86.3091 10.4618 87.911 10.4618C87.911 18.4151 87.911 26.3682 87.911 34.3215C86.3091 34.3215 84.7073 34.3215 83.1053 34.3215C83.1053 26.3682 83.1053 18.4151 83.1053 10.4618Z" fill="#183B56"></path>
    <path d="M87.911 6.25125C86.3091 6.25125 84.7073 6.25125 83.1053 6.25125C83.1053 4.39706 83.1053 2.54288 83.1053 0.637207C84.7073 0.637207 86.3091 0.637207 87.911 0.637207C87.911 2.49138 87.911 4.34556 87.911 6.25125Z" fill="#183B56"></path>
  </symbol>
    <symbol id="payoneer" fill="none" xmlns="http://www.w3.org/2000/svg" viewBox="0 0 157 33" >
    <path d="M4.41746 26.4578V17.9483H8.09093C14.9264 17.9483 19.0183 14.1354 19.0183 8.46243C19.0183 3.11497 14.8799 -0.000488281 8.88142 -0.000488281H0V26.4578H4.41746ZM8.64892 3.95198C12.1364 3.95198 14.5079 5.57945 14.5079 8.97392C14.5079 12.1359 11.8574 13.9959 8.41642 13.9959H4.41746V3.90547H8.64892V3.95198ZM80.1653 17.2044C80.1653 11.7174 76.0268 7.57894 70.5399 7.57894C65.2854 7.57894 60.9609 11.8104 60.9609 17.2508C60.9609 22.7843 64.9599 26.7833 70.5399 26.7833C75.8873 26.8298 80.1653 22.7378 80.1653 17.2044ZM65.1459 17.2044C65.1459 14.0424 67.4709 11.6244 70.5399 11.6244C73.6088 11.6244 75.9803 14.0889 75.9803 17.2044C75.9803 20.3663 73.6088 22.7843 70.5399 22.7843C67.4709 22.8308 65.1459 20.3663 65.1459 17.2044ZM121.643 18.3203C121.782 17.7623 121.782 16.9254 121.782 16.4139C121.782 11.2524 117.83 7.62544 112.854 7.62544C107.554 7.62544 103.322 11.7639 103.322 17.1579C103.322 22.7843 107.042 26.8298 112.715 26.8298C116.528 26.8298 119.736 25.0163 121.085 22.5053L117.83 20.6918C116.946 22.0868 115.133 23.1098 113.04 23.1098C110.111 23.1098 108.065 21.3428 107.647 18.3668H121.643V18.3203ZM107.833 15.1119C108.391 12.6474 110.204 11.1594 112.715 11.1594C115.272 11.1594 117.225 12.7869 117.458 15.1119H107.833ZM56.3575 7.95093L51.2425 21.1568L46.6856 7.95093H41.9426L48.778 26.4578L45.9416 32.9677H50.452L60.8679 7.95093H56.3575ZM156.518 8.04393C156.099 7.90443 155.262 7.81143 154.704 7.81143C152.891 7.81143 150.845 8.83442 149.961 10.6014V7.95093H145.776V26.4578H149.961V16.5533C149.961 13.1124 152.24 11.7174 154.611 11.7174C155.262 11.7174 155.82 11.7639 156.471 11.9034L156.518 8.04393ZM142.754 18.3203C142.893 17.7623 142.893 16.9254 142.893 16.4139C142.893 11.2524 138.941 7.62544 133.965 7.62544C128.664 7.62544 124.433 11.7639 124.433 17.1579C124.433 22.7843 128.153 26.8298 133.826 26.8298C137.639 26.8298 140.847 25.0163 142.196 22.5053L138.941 20.6918C138.057 22.0868 136.244 23.1098 134.151 23.1098C131.222 23.1098 129.176 21.3428 128.757 18.3668H142.754V18.3203ZM128.897 15.1119C129.455 12.6474 131.268 11.1594 133.779 11.1594C136.337 11.1594 138.29 12.7869 138.522 15.1119H128.897ZM35.2932 17.1579C35.2932 20.5523 32.7357 23.0168 29.4342 23.0168C26.2258 23.0168 24.0403 20.5058 24.0403 17.1579C24.0403 13.9959 26.6908 11.3454 29.8062 11.3454C33.1077 11.3454 35.2932 13.8564 35.2932 17.1579ZM100.486 15.9024C100.486 10.7409 97.9746 7.57894 93.2316 7.57894C90.7672 7.57894 88.4887 8.64842 87.1867 10.3224V7.90444H82.9552V26.4113H87.1867V16.4139C87.1867 13.2984 89.4187 11.3454 92.1157 11.3454C94.8126 11.3454 96.2076 13.1589 96.2076 16.2279V26.4578H100.439V15.9024H100.486ZM35.2932 7.95093V10.3689C34.0842 8.74143 32.0847 7.62544 29.1552 7.62544C24.0403 7.62544 19.7623 12.1359 19.7623 17.4833C19.7623 22.8308 23.4358 26.8763 28.3647 26.8763C31.5732 26.8763 33.9447 25.7138 35.2932 23.8538V26.5508H39.4316V8.04393H35.2932V7.95093Z" fill="#000008"></path>
  </symbol>
  <symbol id="paypal" fill="none" xmlns="http://www.w3.org/2000/svg" viewBox="0 0 207 51">
    <path d="M12.7942 49.0362L13.6609 43.5323L11.7305 43.4875H2.51269L8.91864 2.87337C8.9382 2.75075 9.00307 2.63643 9.09751 2.55526C9.19195 2.47408 9.31311 2.42935 9.43903 2.42935H24.9817C30.1418 2.42935 33.7025 3.50298 35.5618 5.62206C36.4332 6.61618 36.9884 7.655 37.257 8.79822C37.5384 9.99781 37.5437 11.431 37.2684 13.1789L37.2484 13.3065V14.4265L38.1203 14.9203C38.8544 15.3096 39.4373 15.7553 39.8847 16.2656C40.6307 17.1156 41.113 18.1958 41.3166 19.4765C41.527 20.7938 41.4574 22.3611 41.113 24.1356C40.7152 26.1768 40.0722 27.9546 39.2041 29.4093C38.4051 30.7497 37.3877 31.8612 36.18 32.723C35.0266 33.5415 33.6562 34.1629 32.1069 34.5607C30.6054 34.9513 28.894 35.1487 27.0165 35.1487H25.8069C24.9421 35.1487 24.1017 35.4602 23.4425 36.0187C22.7813 36.5886 22.3435 37.367 22.2094 38.2188L22.1183 38.7143L20.5872 48.4147L20.5176 48.771C20.4994 48.884 20.468 48.9403 20.4217 48.9785C20.3802 49.0128 20.3206 49.0362 20.2624 49.0362H12.7942Z" fill="#253B80"></path>
    <path d="M38.9426 13.438C38.8964 13.7346 38.8434 14.0378 38.7838 14.3493C36.7337 24.8719 29.7215 28.507 20.7651 28.507H16.2051C15.1099 28.507 14.1869 29.3022 14.0162 30.3825L11.0202 49.3848C10.9091 50.094 11.4562 50.7335 12.1716 50.7335H20.2599C21.2177 50.7335 22.031 50.0377 22.1817 49.0933L22.2614 48.6822L23.7844 39.0195L23.8822 38.4896C24.031 37.5419 24.8462 36.8461 25.804 36.8461H27.0136C34.8496 36.8461 40.9841 33.6649 42.7771 24.4593C43.526 20.6138 43.1382 17.4029 41.1563 15.1446C40.5568 14.4636 39.8127 13.8986 38.9426 13.438Z" fill="#179BD7"></path>
    <path d="M36.7942 12.5805C36.4813 12.4893 36.1579 12.4065 35.8264 12.3319C35.4934 12.2591 35.1519 12.1944 34.8009 12.1381C33.5712 11.9393 32.2242 11.8448 30.7808 11.8448H18.5985C18.2985 11.8448 18.0137 11.9128 17.7585 12.0354C17.1967 12.3054 16.7793 12.8373 16.6782 13.4884L14.0862 29.9011L14.0118 30.3799C14.1826 29.2996 15.1055 28.5043 16.2007 28.5043H20.7607C29.7171 28.5043 36.7298 24.8676 38.7794 14.3467C38.8405 14.0352 38.892 13.732 38.9383 13.4354C38.4198 13.1604 37.8579 12.9251 37.2531 12.7246C37.1042 12.6749 36.9502 12.6269 36.7942 12.5805Z" fill="#222D65"></path>
    <path d="M16.6843 13.4895C16.7854 12.8384 17.2032 12.3065 17.7647 12.0381C18.0217 11.9155 18.3051 11.8476 18.6046 11.8476H30.7874C32.2307 11.8476 33.5778 11.942 34.807 12.1408C35.1585 12.1972 35.5 12.2618 35.833 12.3347C36.1645 12.4093 36.4874 12.4921 36.8008 12.5832C36.9563 12.6296 37.1103 12.6776 37.2611 12.7257C37.8659 12.9262 38.4278 13.1631 38.9463 13.4365C39.5563 9.54788 38.9415 6.90026 36.8389 4.5028C34.5208 1.86348 30.3366 0.733521 24.9829 0.733521H9.43978C8.34605 0.733521 7.41353 1.52876 7.2442 2.6107L0.770518 43.6423C0.642685 44.4541 1.26897 45.1866 2.08748 45.1866H11.6835L16.6843 13.4895Z" fill="#253B80"></path>
    <path fill-rule="evenodd" clip-rule="evenodd" d="M77.482 11.4591H66.1011C65.3223 11.4591 64.6599 12.0251 64.5385 12.7935L59.9355 41.9744C59.844 42.5504 60.29 43.0694 60.8741 43.0694H66.3074C67.0862 43.0694 67.7486 42.5035 67.8701 41.7334L69.1115 33.863C69.2313 33.0922 69.8953 32.527 70.6725 32.527H74.2753C81.7723 32.527 86.0988 28.8994 87.2293 21.7112C87.7383 18.5664 87.2508 16.0954 85.7776 14.3644C84.1604 12.4647 81.291 11.4591 77.482 11.4591ZM78.7951 22.117C78.1728 26.2005 75.0525 26.2005 72.0354 26.2005H70.318L71.5228 18.5741C71.5944 18.1137 71.9938 17.7741 72.4597 17.7741H73.2469C75.3021 17.7741 77.241 17.7741 78.2429 18.9453C78.8397 19.6445 79.023 20.6825 78.7951 22.117ZM111.502 21.9861H106.052C105.588 21.9861 105.187 22.3257 105.115 22.7869L104.874 24.3108L104.493 23.7587C103.313 22.0462 100.682 21.4741 98.0563 21.4741C92.0332 21.4741 86.8897 26.0349 85.8878 32.4331C85.3672 35.624 86.1072 38.6757 87.9178 40.804C89.5789 42.7606 91.9554 43.5761 94.7825 43.5761C99.635 43.5761 102.326 40.4559 102.326 40.4559L102.083 41.9706C101.992 42.5497 102.437 43.0686 103.018 43.0686H107.928C108.708 43.0686 109.367 42.5027 109.49 41.7327L112.436 23.0811C112.529 22.5074 112.085 21.9861 111.502 21.9861ZM103.905 32.5924C103.379 35.7057 100.908 37.7955 97.7567 37.7955C96.1741 37.7955 94.9088 37.2881 94.0971 36.3263C93.2916 35.3715 92.9851 34.0116 93.2415 32.4977C93.7329 29.4107 96.2457 27.2531 99.3493 27.2531C100.896 27.2531 102.155 27.7667 102.983 28.7369C103.814 29.7172 104.143 31.0847 103.905 32.5924ZM135.052 21.9854H140.529C141.296 21.9854 141.743 22.8455 141.307 23.4746L123.092 49.7648C122.797 50.1906 122.311 50.444 121.792 50.444H116.322C115.552 50.444 115.102 49.5769 115.548 48.9463L121.22 40.9411L115.187 23.2397C114.979 22.6245 115.433 21.9854 116.088 21.9854H121.469C122.168 21.9854 122.785 22.4443 122.987 23.1134L126.188 33.8045L133.742 22.6791C134.038 22.2448 134.529 21.9854 135.052 21.9854Z" fill="#253B80"></path>
    <path fill-rule="evenodd" clip-rule="evenodd" d="M194.434 41.9719L199.104 12.2573C199.176 11.7961 199.576 11.4565 200.04 11.455H205.298C205.879 11.455 206.325 11.9755 206.233 12.5515L201.627 41.7308C201.507 42.5009 200.845 43.0668 200.065 43.0668H195.369C194.788 43.0668 194.342 42.5478 194.434 41.9719ZM158.663 11.4565H147.28C146.503 11.4565 145.841 12.0225 145.719 12.791L141.116 41.9719C141.024 42.5478 141.47 43.0668 142.052 43.0668H147.892C148.435 43.0668 148.899 42.671 148.984 42.132L150.29 33.8604C150.41 33.0896 151.074 32.5244 151.851 32.5244H155.452C162.951 32.5244 167.277 28.8968 168.408 21.7086C168.918 18.5638 168.428 16.0928 166.955 14.3618C165.339 12.4622 162.472 11.4565 158.663 11.4565ZM159.976 22.1144C159.355 26.1979 156.235 26.1979 153.216 26.1979H151.5L152.707 18.5715C152.778 18.1111 153.174 17.7715 153.642 17.7715H154.429C156.483 17.7715 158.423 17.7715 159.424 18.9427C160.022 19.6419 160.204 20.6799 159.976 22.1144ZM192.68 21.9835H187.234C186.766 21.9835 186.368 22.3231 186.298 22.7844L186.057 24.3082L185.674 23.7561C184.495 22.0436 181.865 21.4715 179.239 21.4715C173.216 21.4715 168.074 26.0323 167.072 32.4305C166.553 35.6215 167.29 38.6731 169.101 40.8014C170.765 42.758 173.139 43.5735 175.966 43.5735C180.818 43.5735 183.509 40.4534 183.509 40.4534L183.266 41.968C183.175 42.5471 183.621 43.0661 184.205 43.0661H189.112C189.889 43.0661 190.552 42.5001 190.673 41.7301L193.62 23.0785C193.71 22.5048 193.265 21.9835 192.68 21.9835ZM185.084 32.5899C184.561 35.7031 182.086 37.7929 178.934 37.7929C177.355 37.7929 176.087 37.2855 175.275 36.3237C174.469 35.3689 174.167 34.009 174.42 32.4952C174.914 29.4081 177.423 27.2505 180.527 27.2505C182.075 27.2505 183.333 27.7641 184.162 28.7343C184.995 29.7146 185.325 31.0821 185.084 32.5899Z" fill="#179BD7"></path>
  </symbol>
  <symbol id="paysafe" fill="none" xmlns="http://www.w3.org/2000/svg" viewBox="0 0 150 36">
    <path d="M141.406 8.59122H150V17.1495H141.406V8.59122Z" fill="#7887E6"></path>
    <path fill-rule="evenodd" clip-rule="evenodd" d="M150 12.8704C150 15.2337 148.076 17.1495 145.703 17.1495C143.331 17.1495 141.407 15.2337 141.407 12.8704C141.407 10.507 143.331 8.59122 145.703 8.59122C148.076 8.59122 150 10.507 150 12.8704Z" fill="#7887E6"></path>
    <path d="M141.406 21.983H150V30.5413H141.406V21.983Z" fill="#FF5073"></path>
    <path fill-rule="evenodd" clip-rule="evenodd" d="M150 26.2623C150 28.6256 148.076 30.5414 145.703 30.5414C143.331 30.5414 141.407 28.6256 141.407 26.2623C141.407 23.8989 143.331 21.9831 145.703 21.9831C148.076 21.9831 150 23.8989 150 26.2623Z" fill="#FF5073"></path>
    <path fill-rule="evenodd" clip-rule="evenodd" d="M10.1928 14.7553H6.76832V6.6189H10.1928C12.6294 6.6189 13.9902 8.30224 13.9902 10.7289C13.9902 13.3194 12.4629 14.7553 10.1928 14.7553ZM10.9371 1.68543H0V30.0478H6.76832V19.6888H10.9371C16.4251 19.6888 20.5537 16.2782 20.5537 10.4812C20.5537 5.4674 17.4568 1.68543 10.9371 1.68543ZM56.1452 9.08445L51.6044 21.6109L46.3903 9.08445H39.6304L48.5336 29.0613L45.7564 35.9291H52.0403L62.7062 9.08445H56.1452ZM104.923 8.22097V9.08415H101.415V13.5647H104.923V30.0478H111.485V13.5647H116.025V9.08415H111.485V7.97447C111.485 6.12472 112.228 4.80918 114.251 4.80918C114.87 4.80918 115.654 4.93258 116.19 5.09721V0.411123C115.282 0.16433 114.251 0 113.054 0C107.73 0 104.923 3.24745 104.923 8.22097ZM92.9199 25.4442C92.301 25.8963 91.3518 26.2665 90.3198 26.2665C88.6689 26.2665 87.5547 25.3208 87.5547 23.8C87.5547 22.0737 88.9206 20.385 92.9199 21.0459V25.4442ZM91.6404 8.59116C87.5547 8.59116 84.3354 9.86546 82.3542 11.0985L84.1704 14.8393C85.3671 14.3048 87.8847 13.3594 90.0309 13.3594C91.5579 13.3594 92.9199 13.8936 92.9199 15.4969V16.8946C83.8176 16.2492 81.2016 20.2377 81.2016 23.9207C81.2016 27.5199 84.2607 30.5411 88.2879 30.5411C89.877 30.5411 91.6008 29.9433 92.9199 29.1186V30.0478H99.5235V15.4557C99.5235 10.7286 96.5106 8.59116 91.6404 8.59116ZM32.8684 25.4442C32.2495 25.8963 31.3 26.2665 30.2683 26.2665C28.6174 26.2665 27.5029 25.3208 27.5029 23.8C27.5029 22.0737 28.8688 20.385 32.8684 21.0459V25.4442ZM31.3426 8.59116C27.2566 8.59116 24.0373 9.86546 22.0564 11.0985L23.8723 14.8393C25.0693 14.3048 27.5869 13.3594 29.7331 13.3594C31.2601 13.3594 32.6221 13.8936 32.6221 15.4969V16.8946C23.5198 16.2492 20.9035 20.2377 20.9035 23.9207C20.9035 27.5199 23.9626 30.5411 27.9898 30.5411C29.5789 30.5411 31.3027 29.9433 32.6221 29.1186V30.0478H39.2257V15.4557C39.2257 10.7286 36.2128 8.59116 31.3426 8.59116ZM69.5 15.0036C69.5 14.017 70.4906 13.4006 72.1415 13.4006C73.8749 13.4006 75.6908 14.017 77.0114 14.5925L78.869 10.2766C77.1353 9.4134 74.4941 8.59116 71.8112 8.59116C66.8999 8.59116 62.9378 10.8111 62.9378 15.2501C62.9378 22.238 72.8432 20.9637 72.8432 24.0465C72.8432 25.1974 71.6876 25.7729 69.7478 25.7729C67.7666 25.7729 65.8682 25.1153 64.3823 24.3755L62.2775 28.6092C64.7537 29.9244 67.6427 30.5411 70.3256 30.5411C75.113 30.5411 79.2402 28.0747 79.2402 23.5535C79.2402 16.6478 69.5 17.7987 69.5 15.0036ZM126.942 13.1951C128.758 13.1951 130.203 14.6337 130.45 17.4288H123.434C123.681 14.6337 125.126 13.1951 126.942 13.1951ZM137.119 20.8815V19.2439C137.119 13.0968 132.803 8.59116 126.942 8.59116C121.081 8.59116 116.541 13.236 116.541 19.6897C116.541 26.3074 120.834 30.5411 127.685 30.5411C129.594 30.5411 133.373 30.1978 136.286 28.1891L134.445 24.114C132.471 25.2297 130.469 25.7319 128.676 25.7319C126.95 25.7845 125.131 25.0615 124.229 23.5344C123.813 22.8371 123.537 21.9598 123.434 20.8818L137.119 20.8815Z" fill="#2D2341"></path>
  </symbol>
   <symbol id="shop-pay" fill="none" xmlns="http://www.w3.org/2000/svg" viewBox="0 0 216 52">
    <path d="M55.4596 16.3567C53.7236 12.7146 50.4322 10.3619 45.4722 10.3619C43.9498 10.3884 42.4538 10.7643 41.0997 11.4604C39.7455 12.1567 38.5694 13.1546 37.6619 14.3773L37.4809 14.5978V0.323337C37.4809 0.240841 37.4482 0.161728 37.3899 0.103395C37.3315 0.0450612 37.2524 0.0122833 37.1699 0.0122833H30.1571C30.0756 0.0137657 29.9979 0.0471886 29.9408 0.105362C29.8836 0.163536 29.8517 0.241812 29.8517 0.323337V41.2692C29.8517 41.3502 29.8839 41.4278 29.9412 41.4851C29.9984 41.5424 30.0761 41.5746 30.1571 41.5746H37.6676C37.7491 41.5746 37.8274 41.5427 37.8856 41.4855C37.9437 41.4283 37.9771 41.3507 37.9787 41.2692V23.8107C37.9787 20.4174 40.2408 18.0137 43.8604 18.0137C47.8192 18.0137 48.8203 21.2713 48.8203 24.5911V41.2692C48.8203 41.3502 48.8524 41.4278 48.9097 41.4851C48.9669 41.5424 49.0447 41.5746 49.1256 41.5746H56.619C56.7007 41.5746 56.779 41.5427 56.8371 41.4855C56.8953 41.4283 56.9289 41.3507 56.9304 41.2692V23.5958C56.9304 22.9906 56.9304 22.3967 56.8512 21.8199C56.7223 19.9296 56.2509 18.0783 55.4596 16.3567Z" fill="#5A31F4"></path>
    <path d="M17.9576 22.4252C17.9576 22.4252 14.1345 21.526 12.7263 21.164C11.318 20.8021 8.85791 20.0329 8.85791 18.1723C8.85791 16.3116 10.843 15.7177 12.8564 15.7177C14.8697 15.7177 17.1093 16.2041 17.2847 18.4381C17.2917 18.5186 17.3288 18.5934 17.3885 18.648C17.4482 18.7024 17.5261 18.7324 17.607 18.7322L25.01 18.7039C25.0536 18.704 25.0967 18.6951 25.1367 18.6778C25.1767 18.6605 25.2126 18.6351 25.2423 18.6032C25.2721 18.5715 25.2949 18.5338 25.3094 18.4927C25.3239 18.4516 25.3299 18.408 25.3267 18.3645C24.8687 11.216 18.5967 8.65971 12.8111 8.65971C5.95097 8.65971 0.934572 13.1841 0.934572 18.1723C0.934572 21.8144 1.96387 25.2304 10.0569 27.6057C11.4764 28.0185 13.405 28.5558 15.0903 29.0252C17.115 29.5908 18.2065 30.4448 18.2065 31.7907C18.2065 33.3516 15.9443 34.4375 13.7217 34.4375C10.5037 34.4375 8.21886 33.2442 8.03222 31.1007C8.0225 31.0223 7.98434 30.9501 7.92487 30.898C7.86544 30.8458 7.78892 30.8173 7.70985 30.8179L0.323778 30.8519C0.280476 30.8519 0.237618 30.8605 0.197751 30.8775C0.157885 30.8944 0.121832 30.9191 0.0917452 30.9503C0.0616584 30.9814 0.0381495 31.0183 0.0226308 31.0587C0.00711219 31.0992 -0.00010011 31.1423 0.00141927 31.1856C0.340749 37.9326 6.85588 41.569 12.9299 41.569C21.9787 41.569 26.0676 36.4792 26.0676 31.7116C26.079 29.4719 25.5643 24.3707 17.9576 22.4252Z" fill="#5A31F4"></path>
    <path d="M113.196 10.3505C109.436 10.3505 106.285 12.4317 104.255 14.9429V10.6446C104.255 10.5646 104.223 10.4877 104.167 10.4307C104.112 10.3736 104.035 10.3407 103.955 10.3393H96.9312C96.8504 10.3393 96.7722 10.3714 96.7151 10.4287C96.6579 10.486 96.6253 10.5637 96.6253 10.6446V50.7988C96.6273 50.8785 96.6604 50.9552 96.7176 51.0109C96.7747 51.067 96.8515 51.0986 96.9312 51.0986H104.447C104.527 51.0986 104.603 51.067 104.659 51.0109C104.715 50.9547 104.747 50.878 104.747 50.7988V37.5988H104.86C106.053 39.4198 109.316 41.6029 113.581 41.6029C121.6 41.6029 128.285 34.952 128.285 25.9654C128.291 17.3408 121.64 10.3505 113.196 10.3505ZM112.501 33.951C110.918 33.9903 109.358 33.557 108.023 32.7065C106.687 31.8558 105.635 30.6265 105 29.1754C104.367 27.7242 104.179 26.117 104.463 24.5589C104.746 23.0008 105.487 21.5625 106.592 20.4276C107.696 19.2925 109.114 18.5124 110.664 18.1866C112.213 17.8609 113.825 18.0043 115.293 18.5985C116.761 19.1927 118.018 20.2109 118.905 21.5231C119.792 22.8352 120.267 24.3818 120.271 25.9654C120.288 27.0006 120.099 28.0288 119.717 28.9911C119.336 29.9534 118.767 30.8307 118.045 31.5727C117.323 32.3147 116.462 32.9067 115.51 33.3149C114.559 33.7231 113.536 33.9392 112.501 33.951Z" fill="#5A31F4"></path>
    <path d="M74.3835 8.58646C67.3763 8.58646 63.8812 10.9674 61.0756 12.8734L60.9908 12.9299C60.8464 13.0289 60.7446 13.1789 60.706 13.3498C60.6669 13.5207 60.694 13.7 60.7817 13.8517L63.5532 18.6249C63.6049 18.7143 63.6761 18.791 63.7608 18.8497C63.8461 18.9083 63.9429 18.9475 64.0452 18.9643C64.1449 18.9823 64.2472 18.9779 64.345 18.9515C64.4428 18.9251 64.5335 18.8774 64.6108 18.8116L64.8309 18.6306C66.2731 17.4203 68.5862 15.8028 74.1854 15.3617C77.3014 15.1129 79.9936 15.9273 81.9789 17.7823C84.1616 19.7957 85.4684 23.0476 85.4684 26.4805C85.4684 32.7977 81.7467 36.7678 75.7689 36.847C70.8427 36.8187 67.5342 34.2511 67.5342 30.4563C67.5342 28.4429 68.4448 27.1309 70.2209 25.8188C70.3563 25.7218 70.4521 25.579 70.4907 25.4169C70.5293 25.2547 70.5078 25.084 70.4301 24.9365L67.9419 20.2311C67.8957 20.1469 67.8336 20.0726 67.7589 20.0124C67.6841 19.9522 67.5984 19.9074 67.5061 19.8805C67.4118 19.8525 67.3131 19.8445 67.2158 19.8571C67.118 19.8698 67.0242 19.9028 66.9405 19.9541C64.1469 21.6111 60.7196 24.6424 60.9061 30.4676C61.1322 37.882 67.297 43.5431 75.3106 43.775H76.2609C85.7843 43.4639 92.6617 36.3946 92.6617 26.8085C92.6617 18.0085 86.2482 8.58646 74.3835 8.58646Z" fill="#5A31F4"></path>
    <path d="M157.902 13.1108H153.129C153.017 13.1123 152.91 13.1575 152.831 13.2366C152.751 13.3159 152.706 13.4229 152.705 13.535V23.5508C152.706 23.6624 152.751 23.7688 152.831 23.8471C152.91 23.9254 153.017 23.9694 153.129 23.9694H157.902C160.809 23.9694 162.953 21.6789 162.953 18.5401C162.953 15.4013 160.809 13.1108 157.902 13.1108Z" fill="#5A31F4"></path>
    <path d="M172.568 30.8293C172.568 32.2827 173.795 33.0914 175.933 33.0914C178.84 33.0914 180.559 31.5192 180.559 28.731V27.928L176.205 28.1542C173.908 28.2673 172.568 29.2231 172.568 30.8293Z" fill="#5A31F4"></path>
    <path d="M207.914 0.103016H143.781C142.729 0.103015 141.687 0.310344 140.716 0.713145C139.743 1.11595 138.86 1.70633 138.117 2.45056C137.373 3.19479 136.783 4.07828 136.381 5.05055C135.978 6.0228 135.772 7.06476 135.773 8.11689V43.2262C135.773 45.3506 136.617 47.3882 138.119 48.8909C139.62 50.3936 141.657 51.2385 143.781 51.24H207.914C208.968 51.243 210.012 51.0385 210.986 50.6378C211.96 50.2371 212.845 49.6481 213.592 48.9049C214.338 48.1617 214.931 47.2786 215.336 46.3061C215.741 45.3336 215.949 44.2909 215.951 43.2376V8.12817C215.953 7.07273 215.747 6.02721 215.344 5.0518C214.941 4.07641 214.348 3.19033 213.602 2.44452C212.855 1.69872 211.968 1.10792 210.992 0.706079C210.016 0.304238 208.97 0.0992866 207.914 0.103016ZM158.146 27.9112H153.101C152.989 27.9112 152.882 27.9558 152.801 28.0353C152.722 28.1149 152.677 28.2228 152.677 28.3354V35.5178C152.677 35.6303 152.632 35.7382 152.553 35.8177C152.473 35.8973 152.366 35.942 152.253 35.942H148.701C148.59 35.9405 148.482 35.8953 148.403 35.816C148.323 35.7369 148.279 35.6299 148.277 35.5178V9.6099C148.277 9.49747 148.322 9.38956 148.402 9.30998C148.481 9.23045 148.589 9.18577 148.701 9.18577H158.146C163.496 9.18577 167.325 13.0824 167.325 18.5513C167.325 24.0202 163.524 27.9224 158.175 27.9224L158.146 27.9112ZM184.727 35.5122C184.728 35.5683 184.718 35.624 184.696 35.6762C184.675 35.7283 184.644 35.7758 184.605 35.8157C184.565 35.8557 184.518 35.8875 184.466 35.9092C184.415 35.9308 184.359 35.942 184.303 35.942H180.949C180.893 35.942 180.837 35.9308 180.786 35.9092C180.733 35.8875 180.686 35.8557 180.647 35.8157C180.608 35.7758 180.576 35.7283 180.556 35.6762C180.535 35.624 180.524 35.5683 180.525 35.5122V34.7374C180.53 34.6693 180.514 34.6013 180.478 34.5436C180.442 34.4857 180.388 34.441 180.324 34.4162C180.261 34.3914 180.191 34.3879 180.126 34.406C180.059 34.4241 180.001 34.4629 179.96 34.5168C178.958 35.6083 177.33 36.4 174.734 36.4C170.911 36.4 168.382 34.4093 168.382 30.9708C168.346 30.1323 168.519 29.298 168.886 28.5434C169.253 27.7889 169.804 27.138 170.487 26.65C171.866 25.615 174.004 25.0778 177.177 24.9533L180.542 24.8402V23.8561C180.542 21.871 179.207 21.0284 177.063 21.0284C174.92 21.0284 173.568 21.7862 173.252 23.0248C173.227 23.1122 173.173 23.1888 173.099 23.2421C173.026 23.2954 172.936 23.3224 172.845 23.3188H169.525C169.464 23.3204 169.403 23.3085 169.347 23.2841C169.292 23.2596 169.241 23.2232 169.201 23.1774C169.161 23.1315 169.13 23.0775 169.113 23.0188C169.096 22.9602 169.091 22.8986 169.101 22.8382C169.599 19.8973 172.03 17.6633 177.217 17.6633C182.725 17.6633 184.71 20.2253 184.71 25.1173L184.727 35.5122ZM205.619 18.7039L198.154 38.617C196.457 43.2432 193.488 44.4309 190.235 44.4309C189.623 44.4458 189.011 44.3715 188.42 44.2104C188.328 44.1855 188.247 44.1312 188.188 44.0555C188.13 43.9799 188.099 43.8872 188.098 43.7918V40.7661C188.098 40.7028 188.111 40.6402 188.138 40.5828C188.165 40.5255 188.203 40.4747 188.252 40.4342C188.301 40.3936 188.358 40.3644 188.419 40.3485C188.48 40.3325 188.544 40.3303 188.607 40.3419C189.12 40.4392 189.64 40.4884 190.162 40.489C191.061 40.5341 191.95 40.2761 192.685 39.7562C193.42 39.2363 193.96 38.4846 194.217 37.6217L194.438 36.926C194.472 36.8329 194.472 36.7307 194.438 36.6376L187.459 18.7096C187.437 18.6456 187.431 18.5773 187.442 18.5105C187.452 18.4436 187.477 18.3801 187.515 18.325C187.555 18.27 187.607 18.2249 187.666 18.1934C187.726 18.162 187.793 18.145 187.86 18.1441H191.254C191.34 18.1449 191.425 18.1717 191.496 18.2211C191.568 18.2705 191.623 18.3402 191.655 18.4212L196.395 31.0669C196.426 31.1495 196.481 31.2207 196.554 31.2709C196.627 31.3212 196.713 31.348 196.802 31.348C196.889 31.348 196.977 31.3212 197.049 31.2709C197.122 31.2207 197.178 31.1495 197.208 31.0669L201.321 18.4552C201.348 18.3692 201.403 18.2942 201.476 18.2413C201.549 18.1884 201.637 18.1603 201.727 18.1611H205.206C205.273 18.1608 205.339 18.1764 205.4 18.2064C205.459 18.2365 205.512 18.2802 205.552 18.3341C205.592 18.388 205.619 18.4506 205.63 18.5168C205.642 18.5829 205.638 18.6509 205.619 18.7153V18.7039Z" fill="#5A31F4"></path>
  </symbol>
</svg>
