<svg id="playstore-icon"  xmlns="http://www.w3.org/2000/svg" fill="currentColor" viewBox="0 0 24 24"><path fill="#32BBFF" d="M17.924 8.232C15.136 6.672 10.66 4.17 3.72.282A1.673 1.673 0 0 0 2.248.09L14.157 12l3.767-3.767Z"/><path fill="#32BBFF" d="M2.248.09a1.675 1.675 0 0 0-1.144 1.597V22.31a1.674 1.674 0 0 0 1.144 1.598l11.909-11.909L2.248.09ZM14.157 11.999 2.248 23.908a1.656 1.656 0 0 0 1.472-.193c6.731-3.769 11.155-6.243 13.976-7.816l.231-.13-3.77-3.77Z"/><path fill="#2C9FD9" d="M1.104 11.999v10.312a1.674 1.674 0 0 0 1.144 1.597l11.909-11.909H1.104Z"/><path fill="#29CC5E" d="M3.72.283A1.679 1.679 0 0 0 1.995.199l11.981 11.98 3.947-3.947C15.137 6.673 10.662 4.17 3.72.282Z"/><path fill="#D93F21" d="M13.976 11.818 1.996 23.8a1.667 1.667 0 0 0 1.724-.084c6.73-3.769 11.155-6.243 13.976-7.816l.231-.13-3.95-3.95Z"/><path fill="#FFD500" d="M22.896 11.999a1.67 1.67 0 0 0-.86-1.468l-4.344-2.428-3.896 3.896 3.9 3.9c3.24-1.819 4.34-2.432 4.34-2.432.572-.32.86-.897.86-1.468Z"/><path fill="#FA0" d="M22.036 13.467c.572-.32.86-.897.86-1.468h-9.1l3.9 3.9c3.24-1.819 4.34-2.432 4.34-2.432Z"/></svg>