<?xml version="1.0" encoding="UTF-8" standalone="no"?>
<svg
   xmlns:dc="http://purl.org/dc/elements/1.1/"
   xmlns:cc="http://creativecommons.org/ns#"
   xmlns:rdf="http://www.w3.org/1999/02/22-rdf-syntax-ns#"
   xmlns:svg="http://www.w3.org/2000/svg"
   xmlns="http://www.w3.org/2000/svg"
   id="svg11"
   version="1.1"
   class="css-1j8o68f"
   viewBox="0 0 370.45454545454544 62.13840014965397"
   height="71.9585546763723"
   width="429">
  <metadata
     id="metadata15">
    <rdf:RDF>
      <cc:Work
         rdf:about="">
        <dc:format>image/svg+xml</dc:format>
        <dc:type
           rdf:resource="http://purl.org/dc/dcmitype/StillImage" />
        <dc:title></dc:title>
      </cc:Work>
    </rdf:RDF>
  </metadata>
  <defs
     id="SvgjsDefs11450" />
  <g
     fill="currentColor"
     transform="matrix(1.109614288386678,0,0,1.109614288386678,267.2465556624122,-24.411514344506916)"
     featurekey="symbolFeature-0"
     id="SvgjsG11451">
    <g
       id="g5"
       transform="translate(0,-952.36218)">
      <path
         id="path3"
         transform="translate(0,952.36218)"
         d="M 18.84375 22 C 15.783255 22 13.28125 24.47466 13.28125 27.53125 L 13.28125 63.03125 A 1.0001 1.0001 0 1 0 15.28125 63.03125 L 15.28125 27.53125 C 15.28125 25.55532 16.858085 24 18.84375 24 L 81.15625 24 C 83.141915 24 84.71875 25.55532 84.71875 27.53125 L 84.71875 63.03125 A 1.0001 1.0001 0 1 0 86.71875 63.03125 L 86.71875 27.53125 C 86.71875 24.47466 84.216745 22 81.15625 22 L 18.84375 22 z M 33.65625 31.4375 A 1.0043849 1.0043849 0 0 0 33.84375 33.4375 L 36.6875 33.4375 L 41.78125 49 A 1.0001 1.0001 0 0 0 42.75 49.6875 L 58.375 49.6875 A 1.0001 1.0001 0 0 0 59.3125 49 L 63.125 37.375 A 1.0001 1.0001 0 0 0 62.1875 36.0625 L 43.21875 36.0625 A 1.0001 1.0001 0 1 0 43.21875 38.0625 L 60.78125 38.0625 L 57.65625 47.6875 L 43.46875 47.6875 L 38.375 32.125 A 1.0001 1.0001 0 0 0 37.4375 31.4375 L 33.84375 31.4375 A 1.0001 1.0001 0 0 0 33.65625 31.4375 z M 43.28125 53.28125 C 41.393687 53.28125 39.875 54.83335 39.875 56.71875 C 39.875 58.60415 41.393687 60.125 43.28125 60.125 C 45.168814 60.125 46.71875 58.60415 46.71875 56.71875 C 46.71875 54.83335 45.168814 53.28125 43.28125 53.28125 z M 57.53125 53.28125 C 55.643686 53.28125 54.0625 54.83335 54.0625 56.71875 C 54.0625 58.60415 55.643686 60.125 57.53125 60.125 C 59.418813 60.125 60.9375 58.60415 60.9375 56.71875 C 60.9375 54.83335 59.418813 53.28125 57.53125 53.28125 z M 43.28125 55.28125 C 44.087324 55.28125 44.71875 55.91355 44.71875 56.71875 C 44.71875 57.52385 44.087324 58.125 43.28125 58.125 C 42.475177 58.125 41.875 57.52385 41.875 56.71875 C 41.875 55.91355 42.475177 55.28125 43.28125 55.28125 z M 57.53125 55.28125 C 58.337323 55.28125 58.9375 55.91355 58.9375 56.71875 C 58.9375 57.52385 58.337323 58.125 57.53125 58.125 C 56.725176 58.125 56.0625 57.52385 56.0625 56.71875 C 56.0625 55.91355 56.725176 55.28125 57.53125 55.28125 z M 7.84375 66.40625 A 1.0001 1.0001 0 0 0 7.03125 67.28125 C 6.7100805 69.81385 8.2059138 72.33115 9.9375 74.34375 C 10.803293 75.34995 11.737041 76.2324 12.65625 76.875 C 13.575459 77.5176 14.434216 78 15.40625 78 L 84.59375 78 C 85.565784 78 86.424541 77.5176 87.34375 76.875 C 88.262959 76.2324 89.196707 75.34995 90.0625 74.34375 C 91.794086 72.33115 93.28992 69.81385 92.96875 67.28125 A 1.0001 1.0001 0 0 0 91.96875 66.40625 L 58.4375 66.40625 A 1.0001 1.0001 0 0 0 57.5625 66.9375 L 56.59375 68.71875 L 43.40625 68.71875 L 42.4375 66.9375 A 1.0001 1.0001 0 0 0 41.5625 66.40625 L 8.03125 66.40625 A 1.0001 1.0001 0 0 0 7.84375 66.40625 z M 9.21875 68.40625 L 40.96875 68.40625 L 41.9375 70.1875 A 1.0001 1.0001 0 0 0 42.8125 70.71875 L 57.1875 70.71875 A 1.0001 1.0001 0 0 0 58.0625 70.1875 L 59.03125 68.40625 L 90.78125 68.40625 C 90.607122 69.84215 89.8377 71.5804 88.5625 73.0625 C 87.799099 73.9498 86.938538 74.7249 86.1875 75.25 C 85.436462 75.7751 84.731951 76 84.59375 76 L 15.40625 76 C 15.268049 76 14.563538 75.7751 13.8125 75.25 C 13.061462 74.7249 12.200901 73.9498 11.4375 73.0625 C 10.1623 71.5804 9.3928785 69.84215 9.21875 68.40625 z "
         style="font-size:medium;font-style:normal;font-variant:normal;font-weight:normal;font-stretch:normal;text-indent:0;text-align:start;text-decoration:none;line-height:normal;letter-spacing:normal;word-spacing:normal;text-transform:none;direction:ltr;block-progression:tb;writing-mode:lr-tb;text-anchor:start;baseline-shift:baseline;opacity:1;color:;fill:currentColor;fill-opacity:1;stroke:none;stroke-width:2;marker:none;visibility:visible;display:inline;overflow:visible;enable-background:accumulate;font-family:Sans;-inkscape-font-specification:Sans" /> 
    </g>
  </g>
  <g
     fill="currentColor"
     transform="matrix(1.4524290174518044,0,0,1.4524290174518044,-4.647772232530862,-11.429148209421655)"
     featurekey="nameFeature-0"
     id="SvgjsG11452">
    <path
       id="path8"
       d="M14.4 19.2 l0 2.6 l-3.8 0 c-3 0 -4.6 3.4 -4.6 3.4 l0 14.8 l-2.8 0 l0 -20.4 l1.8 0 l0.4 2.8 l0.2 0 s1.6 -3.2 5 -3.2 l3.8 0 z M32.295 40 l-9.6 0 c-3.8 0 -6 -2.4 -6 -5.6 l0 -9.6 c0 -3.2 2.4 -5.6 6 -5.6 l4.4 0 c3.6 0 6 2.4 6 5.6 l0 6.2 l-13.6 0 l0 3.4 c0 1.8 1.4 3.2 3.2 3.2 l9.6 0 l0 2.4 z M19.495 24.8 l0 3.8 l10.8 0 l0 -3.8 c0 -1.8 -1.4 -3.2 -3.2 -3.2 l-4.4 0 c-1.8 0 -3.2 1.4 -3.2 3.2 z M52.99 40 l-1.8 0 l-0.4 -2.8 l-0.2 0 s-1.6 3.2 -5 3.2 l-3.2 0 c-3.8 0 -6 -2.4 -6 -5.6 l0 -1.2 c0 -3.2 2.4 -5.6 6 -5.6 l7.8 0 l0 -2.8 c0 -1.8 -1.4 -3.2 -3.2 -3.2 l-8.8 0 l0 -2.4 l8.8 0 c3.6 0 6 2.4 6 5.6 l0 14.8 z M42.39 38 l3.2 0 c3 0 4.6 -3.6 4.6 -3.6 l0 -4 l-7.8 0 c-1.8 0 -3.2 1.4 -3.2 3.2 l0 1.2 c0 1.8 1.4 3.2 3.2 3.2 z M72.485 22 l-8.4 0 c-1.8 0 -3.2 1.4 -3.2 3.2 l0 9.2 c0 1.8 1.4 3.2 3.2 3.2 l9.2 0 l0 2.4 l-9.2 0 c-3.8 0 -6 -2.4 -6 -5.6 l0 -9.2 c0 -3.2 2.4 -5.6 6 -5.6 l9.2 0 l0 1.6 z M74.38 22 l0 -2.4 l3.2 0 l1.2 -6 l1.6 0 l0 6 l5.8 0 l0 2.4 l-5.8 0 l0 12.4 c0 1.8 1.4 3.2 3.2 3.2 l3.8 0 l0 2.4 l-3.8 0 c-3.6 0 -6 -2.4 -6 -5.6 l0 -12.4 l-3.2 0 z M100.77000000000001 25.2 c0 1.6 0.8 2.44 2.6 2.8 l5.8 1.2 c2.8 0.6 4.4 2.2 4.4 5.2 c0 3.2 -2.4 5.6 -6 5.6 l-9.8 0 l0 -2.4 l9.8 0 c1.8 0 3.2 -1.4 3.2 -3.2 c0 -1.6 -0.8 -2.44 -2.6 -2.8 l-5.8 -1.2 c-2.8 -0.56 -4.4 -2.2 -4.4 -5.2 c0 -3.24 2.4 -5.6 6 -5.6 l9 0 l0 1.6 l-0.8 0.8 l-8.2 0 c-1.8 0 -3.2 1.4 -3.2 3.2 z M117.265 12 l2.8 0 l0 7.6 l8.2 0 c3.6 0 6 2.4 6 5.6 l0 14.8 l-2.8 0 l0 -14.8 c0 -1.8 -1.4 -3.2 -3.2 -3.2 l-8.2 0 l0 18 l-2.8 0 l0 -28 z M142.16 24.8 l0 10 c0 1.8 1.4 3.2 3.2 3.2 l5 0 c1.8 0 3.2 -1.4 3.2 -3.2 l0 -10 c0 -1.8 -1.4 -3.2 -3.2 -3.2 l-5 0 c-1.8 0 -3.2 1.4 -3.2 3.2 z M139.36 34.8 l0 -10 c0 -3.2 2.4 -5.6 6 -5.6 l5 0 c3.6 0 6 2.4 6 5.6 l0 10 c0 3.2 -2.4 5.6 -6 5.6 l-5 0 c-3.8 0 -6 -2.4 -6 -5.6 z M168.855 19.2 l3.6 0 c3.6 0 6 2.4 6 5.6 l0 9.6 c0 3.2 -2.4 5.6 -6 5.6 l-8.2 0 l0 6.8 l-2.8 0 l0 -27.2 l1.8 0 l0.4 2.8 l0.2 0 s1.6 -3.2 5 -3.2 z M172.45499999999998 21.6 l-3.6 0 c-3 0 -4.6 3.6 -4.6 3.6 l0 12.4 l8.2 0 c1.8 0 3.2 -1.4 3.2 -3.2 l0 -9.6 c0 -1.8 -1.4 -3.2 -3.2 -3.2 z" />
  </g>
</svg>
